<?xml version="1.0" encoding="UTF-8"?>
<svg version="1.1" xmlns="http://www.w3.org/2000/svg" width="512" height="512">
<path d="M0 0 C1.16192871 -0.00832352 2.32385742 -0.01664703 3.52099609 -0.02522278 C7.35363134 -0.04927284 11.18609617 -0.05808947 15.01879883 -0.06469727 C17.01649729 -0.07139904 19.01419576 -0.07810327 21.01189309 -0.08513218 C27.29260366 -0.10656341 33.57326031 -0.11593152 39.85400391 -0.11914062 C46.30531774 -0.12277007 52.75615417 -0.15263147 59.2073223 -0.19454521 C64.76855543 -0.22939336 70.32963149 -0.24469158 75.89097291 -0.24538666 C79.20248261 -0.24617477 82.51339949 -0.25711292 85.82481956 -0.28338432 C89.52685782 -0.31041429 93.22759905 -0.30543686 96.9296875 -0.29296875 C98.00698624 -0.30780304 99.08428497 -0.32263733 100.19422913 -0.33792114 C115.29758472 -0.1939828 125.62593828 7.54633411 135.91333008 17.86889648 C136.64680664 18.62170898 137.3802832 19.37452148 138.13598633 20.15014648 C140.74891897 22.76782129 143.51734713 25.15424675 146.32348633 27.56030273 C149.10257522 30.02999008 151.67693504 32.6854297 154.28442383 35.33374023 C156.86431224 37.87339647 159.5891606 40.21518016 162.33520508 42.57202148 C164.92786964 44.87430762 167.34055496 47.3297273 169.74536133 49.82592773 C172.84706287 52.80199074 174.93002825 53.56247437 179.10424805 53.66943359 C180.57255569 53.71474464 180.57255569 53.71474464 182.07052612 53.76097107 C183.65947189 53.79699181 183.65947189 53.79699181 185.28051758 53.83374023 C187.53573037 53.9045618 189.79093856 53.97553019 192.04614258 54.04663086 C195.59162097 54.14701606 199.13716157 54.24321577 202.68286133 54.33544922 C233.57549354 55.16974098 233.57549354 55.16974098 246.41333008 61.93139648 C247.08436768 62.278396 247.75540527 62.62539551 248.44677734 62.98291016 C265.02769586 71.86349063 276.88484476 86.33443839 282.60864258 104.23999023 C284.90299803 112.25730162 285.67313127 120.16987663 285.78833008 128.49389648 C285.80694092 129.37891846 285.82555176 130.26394043 285.84472656 131.17578125 C285.7903464 136.68718426 285.01962407 139.9813342 281.28833008 144.30639648 C275.63771829 147.76595472 269.82426709 148.23567663 263.28833008 147.30639648 C260.53833008 145.61889648 260.53833008 145.61889648 259.28833008 143.30639648 C259.35083008 140.68139648 259.35083008 140.68139648 260.28833008 138.30639648 C263.5732438 136.116454 265.11928647 135.95362309 268.97583008 135.68139648 C270.46663086 135.56924805 270.46663086 135.56924805 271.98754883 135.45483398 C272.74680664 135.40584961 273.50606445 135.35686523 274.28833008 135.30639648 C275.17445679 116.13980385 271.19290795 99.43358902 258.51098633 84.55249023 C243.36220098 69.24396374 224.94219854 65.91608119 204.35153198 65.76791382 C201.13162229 65.74317261 197.91249288 65.69883246 194.69287109 65.64941406 C190.32389982 65.58295826 185.95491895 65.51945488 181.58582973 65.46123028 C164.76473731 65.23688663 147.94428841 64.97995462 131.12465763 64.66376591 C124.86319536 64.54688105 118.60178496 64.44832555 112.33981895 64.36286354 C108.3847786 64.30473941 104.43017778 64.23001332 100.47550964 64.15076447 C98.60870007 64.11669144 96.74175227 64.08945673 94.8747406 64.06929779 C92.30152216 64.04043251 89.72990169 63.98734729 87.15722656 63.92822266 C86.39868346 63.9254705 85.64014036 63.92271833 84.85861111 63.91988277 C81.55510298 63.82057661 79.74821341 63.7350008 77.28089905 61.4355011 C75.98586762 58.65760105 76.35717567 57.1774559 77.28833008 54.30639648 C78.99662418 52.59810238 81.14837385 53.18667722 83.42619324 53.18197632 C84.1613063 53.18557159 84.89641937 53.18916687 85.65380859 53.19287109 C86.42448669 53.19272507 87.19516479 53.19257904 87.98919678 53.19242859 C90.54857146 53.19312788 93.10787428 53.20092103 95.66723633 53.20874023 C97.43700623 53.21060436 99.20677664 53.21202829 100.97654724 53.21302795 C105.64384373 53.2168536 110.31110931 53.22668428 114.97839355 53.23773193 C119.73730043 53.24794505 124.49621229 53.25252536 129.25512695 53.25756836 C138.59954161 53.26830651 147.94393328 53.28538349 157.28833008 53.30639648 C156.16718858 52.17933154 155.04519982 51.05310934 153.92285156 49.92724609 C152.98577614 48.98636391 152.98577614 48.98636391 152.0297699 48.026474 C150.20186765 46.22099469 148.31554846 44.52407499 146.35083008 42.86889648 C143.54256661 40.4502187 140.88862415 37.94739966 138.28833008 35.30639648 C135.12047779 32.09540224 131.84686357 29.08963985 128.41333008 26.16577148 C126.87663935 24.8211671 125.38111489 23.4290239 123.91333008 22.00952148 C122.67583008 20.82616211 122.67583008 20.82616211 121.41333008 19.61889648 C120.30344727 18.5302832 120.30344727 18.5302832 119.17114258 17.41967773 C111.49409903 11.7919263 103.68552222 10.70799972 94.37426758 10.69702148 C93.27861481 10.68048523 92.18296204 10.66394897 91.05410767 10.64691162 C87.5904564 10.59873191 84.12724323 10.57712693 80.66333008 10.55639648 C78.30002714 10.52821179 75.93674435 10.4982809 73.57348633 10.46655273 C67.81184633 10.39298122 62.05032801 10.34116344 56.28833008 10.30639648 C55.88183167 20.46938764 55.60657081 30.62733466 55.48780155 40.79798222 C55.42871416 45.52442844 55.32857369 50.24171078 55.12597656 54.96435547 C53.39317886 78.31463506 53.39317886 78.31463506 62.54174805 98.8137207 C67.22408841 103.87768172 72.54684494 108.13823159 78.20774841 112.06590271 C80.28833008 114.30639648 80.28833008 114.30639648 80.598526 118.07142639 C80.49616135 119.13896652 80.39379669 120.20650665 80.28833008 121.30639648 C77.78833008 122.74389648 77.78833008 122.74389648 74.28833008 123.30639648 C72.56567383 122.12231445 72.56567383 122.12231445 70.72583008 120.36108398 C67.6505592 117.50228666 64.50290748 114.94593584 61.13208008 112.44311523 C46.85753643 100.9658583 46.85753643 100.9658583 45.3762207 92.05297852 C44.32201364 82.17883202 45.17519164 72.13969021 46.28833008 62.30639648 C45.47008003 62.3097274 45.47008003 62.3097274 44.63529968 62.31312561 C7.50350724 62.45646389 -29.58849806 62.05744506 -66.71166992 61.30639648 C-66.38166992 62.29639648 -66.05166992 63.28639648 -65.71166992 64.30639648 C-65.5651891 66.57403222 -65.49070732 68.84672015 -65.46166992 71.11889648 C-65.43588867 72.3215918 -65.41010742 73.52428711 -65.38354492 74.76342773 C-65.85299232 79.83234189 -67.45422449 83.08204172 -71.08666992 86.61889648 C-77.0306572 90.44003117 -84.32871911 89.48998343 -91.14916992 89.49389648 C-92.82849609 89.51226562 -92.82849609 89.51226562 -94.54174805 89.53100586 C-104.68560788 89.54906614 -104.68560788 89.54906614 -109.71166992 87.30639648 C-112.26726969 89.86199625 -110.89724921 96.99716655 -110.89916992 100.43139648 C-110.91753906 102.12522461 -110.91753906 102.12522461 -110.9362793 103.85327148 C-111.05610297 112.3179012 -111.05610297 112.3179012 -108.71166992 120.30639648 C-104.45331793 124.07194216 -100.27384246 125.16073822 -94.83666992 126.05639648 C-94.14831055 126.18143555 -93.45995117 126.30647461 -92.75073242 126.43530273 C-91.0732561 126.7381804 -89.39272905 127.02408121 -87.71166992 127.30639648 C-87.42420898 126.2712793 -87.13674805 125.23616211 -86.84057617 124.16967773 C-83.21845576 111.56038892 -77.87915993 101.57157976 -66.21166992 94.80639648 C-54.72148765 89.14919965 -43.91046217 88.99378673 -31.82885742 93.04467773 C-21.40545909 97.2636723 -14.48218865 104.40044865 -9.75463867 114.51342773 C-5.8586882 124.94640373 -5.78389115 135.87358438 -9.87182617 146.25170898 C-15.09299392 156.69404447 -22.80712406 164.08771207 -33.71166992 168.30639648 C-43.01469795 170.95635719 -55.39908162 170.58509716 -64.25854492 166.68530273 C-73.64715015 161.4079498 -80.95322299 154.16116689 -84.58276367 143.82592773 C-85.14916992 141.61889648 -85.14916992 141.61889648 -85.71166992 138.30639648 C-86.69393555 138.25032227 -86.69393555 138.25032227 -87.69604492 138.19311523 C-98.31631594 137.42809571 -108.98125222 136.31622687 -116.71166992 128.30639648 C-120.83840456 122.74793758 -121.84799409 117.84821989 -121.77416992 111.05639648 C-121.76514648 109.97874023 -121.75612305 108.90108398 -121.74682617 107.79077148 C-121.73522461 106.97092773 -121.72362305 106.15108398 -121.71166992 105.30639648 C-122.27152588 105.31687012 -122.83138184 105.32734375 -123.40820312 105.33813477 C-125.94681299 105.37972974 -128.48535112 105.40573333 -131.02416992 105.43139648 C-132.34578125 105.4565332 -132.34578125 105.4565332 -133.6940918 105.48217773 C-134.54165039 105.48862305 -135.38920898 105.49506836 -136.26245117 105.50170898 C-137.04273682 105.51218262 -137.82302246 105.52265625 -138.62695312 105.53344727 C-140.71166992 105.30639648 -140.71166992 105.30639648 -143.71166992 103.30639648 C-143.96827087 100.22718516 -144.10598496 98.09502655 -142.71166992 95.30639648 C-139.9460161 94.38451188 -138.32883291 94.18854426 -135.48120117 94.20874023 C-134.27753906 94.21357422 -134.27753906 94.21357422 -133.04956055 94.21850586 C-131.79949219 94.23107422 -131.79949219 94.23107422 -130.52416992 94.24389648 C-129.67918945 94.2484082 -128.83420898 94.25291992 -127.96362305 94.25756836 C-125.87960837 94.26934245 -123.79563015 94.28727758 -121.71166992 94.30639648 C-121.73487305 93.68893555 -121.75807617 93.07147461 -121.78198242 92.43530273 C-122.05867639 79.45045001 -118.75793557 69.89077556 -109.84057617 60.34936523 C-102.73297274 53.52867423 -94.42452575 51.03183849 -84.77416992 49.80639648 C-81.4792945 49.26845764 -80.24542928 48.36404987 -77.71166992 46.30639648 C-78.60998535 46.28657715 -79.50830078 46.26675781 -80.43383789 46.24633789 C-83.7625707 46.16830387 -87.09084248 46.08161534 -90.41918945 45.98901367 C-91.86050732 45.95069975 -93.3019216 45.91585106 -94.7434082 45.88452148 C-96.81390878 45.83892202 -98.88374425 45.78092205 -100.95385742 45.72045898 C-102.20021973 45.68903809 -103.44658203 45.65761719 -104.73071289 45.62524414 C-107.71166992 45.30639648 -107.71166992 45.30639648 -109.71166992 43.30639648 C-109.96166992 40.30639648 -109.96166992 40.30639648 -109.71166992 37.30639648 C-107.71166992 35.30639648 -107.71166992 35.30639648 -105.83248901 35.11540222 C-105.06800446 35.14128922 -104.3035199 35.16717621 -103.51586914 35.19384766 C-102.21212845 35.22698311 -102.21212845 35.22698311 -100.88204956 35.26078796 C-99.93637115 35.29001846 -98.99069275 35.31924896 -98.01635742 35.34936523 C-95.99946733 35.37295623 -93.98253347 35.39301704 -91.96557617 35.40991211 C-88.79515323 35.44229318 -85.63082567 35.49233354 -82.4621582 35.60449219 C-69.48058244 36.03420306 -60.64382545 35.40812848 -50.82659912 26.3734436 C-49.6326992 25.21659109 -48.4503867 24.04761871 -47.28192139 22.86508179 C-45.25317455 20.8512783 -43.06227377 19.12395844 -40.78198242 17.40405273 C-40.11730957 16.8894751 -39.45263672 16.37489746 -38.76782227 15.84472656 C-25.8753137 5.9919814 -16.52131149 0.01009846 0 0 Z M-39.64282227 30.36865234 C-44.979053 34.74303925 -50.42162959 38.94903634 -55.94213867 43.08764648 C-58.73987541 45.3289927 -61.22673168 47.72605842 -63.71166992 50.30639648 C-59.9940041 51.15887445 -56.51511602 51.45496588 -52.7043457 51.51171875 C-51.507995 51.53165894 -50.31164429 51.55159912 -49.07904053 51.57214355 C-47.13762177 51.59721985 -47.13762177 51.59721985 -45.15698242 51.62280273 C-43.78907773 51.64350433 -42.42117818 51.6645483 -41.05328369 51.68591309 C-37.40099357 51.74156141 -33.74864463 51.79098685 -30.09624481 51.83882523 C-27.84069156 51.86884296 -25.58517075 51.90065189 -23.32965088 51.93307495 C-0.12116802 52.26593991 23.07676635 52.40075243 46.28833008 52.30639648 C46.28833008 38.44639648 46.28833008 24.58639648 46.28833008 10.30639648 C38.47726923 10.21435125 30.66810551 10.13477123 22.85693359 10.08666992 C20.20199322 10.06887596 17.54792476 10.03935769 14.89306641 10.00463867 C11.06767923 9.95588022 7.24287858 9.93337152 3.41723633 9.91577148 C2.23875626 9.89512634 1.06027618 9.8744812 -0.15391541 9.85321045 C-16.76367318 9.84873184 -27.38605003 20.31088068 -39.64282227 30.36865234 Z M-103.71166992 70.30639648 C-105.0660666 73.01518984 -104.77668443 75.31572916 -104.71166992 78.30639648 C-100.25345826 78.39314077 -95.79546188 78.44670161 -91.33666992 78.49389648 C-90.0656543 78.5190332 -88.79463867 78.54416992 -87.48510742 78.57006836 C-85.6675293 78.58457031 -85.6675293 78.58457031 -83.81323242 78.59936523 C-82.13221436 78.62293091 -82.13221436 78.62293091 -80.41723633 78.64697266 C-79.52439941 78.53458252 -78.6315625 78.42219238 -77.71166992 78.30639648 C-75.24118557 74.60066996 -75.06334218 71.60264834 -75.71166992 67.30639648 C-76.85168647 64.58157523 -76.85168647 64.58157523 -79.71166992 63.30639648 C-88.90404889 62.02270953 -96.89430175 63.90220214 -103.71166992 70.30639648 Z M-70.71166992 112.30639648 C-75.39026122 118.98414845 -77.45893219 127.32321401 -76.14916992 135.36889648 C-73.78375574 144.90540808 -68.95939328 151.3740059 -60.71948242 156.56030273 C-53.55255547 160.32753357 -45.60396922 160.6074693 -37.83276367 158.54077148 C-28.06089208 154.87085846 -22.85954843 148.7452389 -18.33666992 139.49389648 C-16.23653909 128.78322925 -17.89648289 120.14138841 -23.83666992 111.05639648 C-31.76749061 103.47039409 -39.33322789 100.92184461 -50.13354492 101.03295898 C-58.61572967 101.68116088 -65.08748476 106.07005511 -70.71166992 112.30639648 Z " fill="#000000" transform="translate(192.711669921875,189.693603515625)"/>
<path d="M0 0 C8.74507659 6.72471319 13.81698474 15.15375799 15.9453125 25.98046875 C17.18982449 36.8404734 15.43286178 47.03970388 8.859375 55.91796875 C2.61402373 63.45982332 -4.9631645 69.65011665 -14.68359375 71.78125 C-28.57502523 72.7536502 -39.21192667 71.78448679 -50.18359375 62.34375 C-53.58416544 59.06345576 -56.44797821 55.94762441 -58.68359375 51.78125 C-58.68359375 51.12125 -58.68359375 50.46125 -58.68359375 49.78125 C-59.26332632 49.78217179 -59.84305889 49.78309359 -60.44035912 49.78404331 C-74.77545331 49.80646545 -89.11054591 49.82283544 -103.44565392 49.83306217 C-110.37897768 49.83814353 -117.31228935 49.84506002 -124.24560547 49.85668945 C-177.27534281 49.94331898 -177.27534281 49.94331898 -200.66749954 49.51351738 C-202.47654124 49.48141251 -204.28567275 49.45398157 -206.09486008 49.43153572 C-208.53206469 49.39935261 -210.96806377 49.34823109 -213.40478516 49.29077148 C-214.46102018 49.28147645 -214.46102018 49.28147645 -215.53859329 49.27199364 C-218.37707905 49.18526171 -220.26193317 49.08277394 -222.60726929 47.40565491 C-224.199083 45.00326595 -224.24544316 43.59049705 -223.68359375 40.78125 C-219.07053929 36.72426016 -213.96198051 37.47596837 -208.19140625 37.671875 C-207.10150894 37.69562698 -206.01161163 37.71937897 -204.88868713 37.74385071 C-202.47726076 37.79775538 -200.06598231 37.85859536 -197.65487671 37.92532349 C-191.63730503 38.09104722 -185.61885144 38.21448982 -179.60033989 38.34025764 C-177.35373519 38.38766199 -175.10717512 38.4369057 -172.86061096 38.4861908 C-151.78782944 38.93891245 -130.7106324 39.10619846 -109.63430023 39.31169128 C-104.21533314 39.36492884 -98.79638838 39.42034473 -93.37744141 39.47558594 C-83.14617925 39.57957911 -72.91489578 39.68126158 -62.68359375 39.78125 C-62.75768463 39.09200439 -62.83177551 38.40275879 -62.90811157 37.69262695 C-63.00240448 36.78988037 -63.09669739 35.88713379 -63.19384766 34.95703125 C-63.28856354 34.06153564 -63.38327942 33.16604004 -63.48086548 32.2434082 C-64.28886453 22.43016661 -59.51360039 12.99636437 -53.49609375 5.53125 C-39.37155466 -9.53695442 -16.96624276 -11.11111885 0 0 Z M-43.70703125 10.6796875 C-50.78219595 18.20229345 -53.06328083 25.51957413 -52.96484375 35.609375 C-52.30009612 43.10625109 -49.11591967 49.58511217 -43.68359375 54.78125 C-34.94894884 60.81738672 -28.32156051 62.71256398 -17.68359375 61.78125 C-9.70623494 59.80665624 -3.57485567 55.98672188 1.078125 49.21875 C5.85943916 40.83751866 7.06091617 32.58585887 4.6484375 23.17578125 C1.93409965 16.28918611 -2.91508624 10.02615888 -9.43359375 6.40625 C-21.52067878 1.22275007 -33.48347167 1.94319113 -43.70703125 10.6796875 Z " fill="#000000" transform="translate(423.68359375,287.21875)"/>
<path d="M0 0 C5.54094464 3.73691616 8.62286437 7.40126304 10.6875 13.8125 C11.39086371 20.14277338 10.34518179 24.55669263 6.6875 29.8125 C2.32804979 34.53026119 -2.25620975 36.84943065 -8.625 37.1875 C-13.55242711 37.04812186 -17.35873154 35.77567287 -21.3125 32.8125 C-26.19821304 27.47822273 -27.67752883 22.62278067 -27.59375 15.44921875 C-27.01620447 10.03472943 -24.72819634 6.19189644 -20.875 2.4375 C-14.26235949 -1.75588178 -7.46445244 -2.67593578 0 0 Z M-16.3125 12.8125 C-17.52937766 16.74945713 -17.73365413 18.8150297 -16.125 22.625 C-14.1961966 24.95286617 -13.20960361 25.98475611 -10.3125 26.8125 C-6.8493575 26.6682024 -4.83784996 26.15812497 -1.9375 24.25 C-0.05313819 21.42345728 0.37597338 19.1810869 0.2109375 15.78515625 C-0.78546959 12.03004 -3.07223692 10.80650805 -6.3125 8.8125 C-11.13653959 8.8125 -12.70139667 9.68287711 -16.3125 12.8125 Z " fill="#000000" transform="translate(154.3125,302.1875)"/>
<path d="M0 0 C4.9961892 2.83184813 7.89529949 7.06089848 9.6875 12.4375 C10.47095685 18.94918238 9.50646138 24.05570211 5.6875 29.4375 C1.37774186 34.08967728 -2.90549631 36.2433868 -9.1875 36.75 C-14.73371985 36.58288226 -18.8242824 34.68895571 -23.0625 31.125 C-27.43372709 25.90381208 -28.89970369 21.71053963 -28.65625 14.96484375 C-27.98992278 10.06582429 -26.26779407 6.22392776 -22.59375 2.8671875 C-15.83597025 -2.143878 -7.874139 -3.50294396 0 0 Z M-16.3125 11.4375 C-18.24113839 13.97979606 -18.32152291 15.22095018 -18.1875 18.4375 C-17.17148613 21.92097614 -16.2012092 23.2709681 -13.3125 25.4375 C-9.90389909 26.78300036 -8.59477635 26.54266178 -5.125 25.25 C-1.69727207 23.05505002 -1.69727207 23.05505002 -0.3125 19.4375 C-0.45936155 15.91282271 -0.91301989 13.9849357 -3 11.125 C-7.82878795 7.60128987 -11.69236049 7.71572095 -16.3125 11.4375 Z " fill="#000000" transform="translate(409.3125,302.5625)"/>
<path d="M0 0 C1.21465942 -0.00960754 2.42931885 -0.01921509 3.68078613 -0.02911377 C5.65734192 -0.03548859 5.65734192 -0.03548859 7.67382812 -0.04199219 C9.03381351 -0.04774282 10.39379886 -0.05350056 11.75378418 -0.05926514 C14.60522846 -0.06977215 17.45664455 -0.07561723 20.30810547 -0.07910156 C23.96696679 -0.0845955 27.62545768 -0.10864338 31.28420258 -0.13707352 C34.09284568 -0.1556668 36.9013988 -0.16090363 39.71009827 -0.16243744 C41.71656592 -0.16694776 43.72298547 -0.18560704 45.72937012 -0.20440674 C46.94402954 -0.20140564 48.15868896 -0.19840454 49.41015625 -0.1953125 C50.48334106 -0.19895813 51.55652588 -0.20260376 52.66223145 -0.20635986 C53.50137085 -0.08508728 54.34051025 0.0361853 55.20507812 0.16113281 C57.20507812 3.16113281 57.20507812 3.16113281 56.95507812 6.28613281 C56.58382812 7.70925781 56.58382812 7.70925781 56.20507812 9.16113281 C53.54523658 10.49105358 51.4963983 10.3102731 48.51782227 10.33813477 C47.32641129 10.35097 46.13500031 10.36380524 44.90748596 10.37702942 C43.61479294 10.38441635 42.32209991 10.39180328 40.99023438 10.39941406 C40.00567166 10.40552735 40.00567166 10.40552735 39.0012188 10.41176414 C35.5288919 10.4326167 32.05660447 10.4469234 28.58422852 10.45629883 C24.99485152 10.46737809 21.40609196 10.50179644 17.81693363 10.54147053 C15.0588616 10.56758706 12.30093804 10.57598602 9.54275322 10.57958031 C7.57561812 10.58682973 5.60858432 10.61328671 3.64161682 10.63996887 C1.84977211 10.63558052 1.84977211 10.63558052 0.02172852 10.63110352 C-1.55807045 10.63990288 -1.55807045 10.63990288 -3.16978455 10.64888 C-5.79492188 10.16113281 -5.79492188 10.16113281 -7.67018127 8.29972839 C-8.79492188 6.16113281 -8.79492188 6.16113281 -8.60742188 3.47363281 C-7.11246203 -0.78125289 -4.02710308 0.02562194 0 0 Z " fill="#000000" transform="translate(81.794921875,196.8388671875)"/>
<path d="M0 0 C1.19141098 -0.01283524 2.38282196 -0.02567047 3.6103363 -0.03889465 C4.90302933 -0.04628159 6.19572235 -0.05366852 7.52758789 -0.0612793 C8.18396303 -0.06535482 8.84033817 -0.06943035 9.51660347 -0.07362938 C12.98893036 -0.09448194 16.4612178 -0.10878863 19.93359375 -0.11816406 C23.52297075 -0.12924333 27.1117303 -0.16366168 30.70088863 -0.20333576 C33.45896066 -0.22945229 36.21688423 -0.23785125 38.97506905 -0.24144554 C40.94220415 -0.24869496 42.90923795 -0.27515194 44.87620544 -0.30183411 C46.66805016 -0.29744576 46.66805016 -0.29744576 48.49609375 -0.29296875 C50.07589272 -0.30176811 50.07589272 -0.30176811 51.68760681 -0.31074524 C54.31274414 0.17700195 54.31274414 0.17700195 56.30128479 1.83137512 C57.31274414 4.17700195 57.31274414 4.17700195 56.50024414 7.42700195 C56.10836914 8.33450195 55.71649414 9.24200195 55.31274414 10.17700195 C47.26352294 10.24643432 39.21442632 10.29977841 31.16497993 10.33243847 C27.42750618 10.34811167 23.69023691 10.36937956 19.95288086 10.40332031 C16.34782774 10.43585562 12.74297162 10.4538425 9.13778305 10.46163368 C7.76060763 10.46718776 6.38344329 10.4780333 5.00635147 10.49419212 C3.08140783 10.51588631 1.15626702 10.51722667 -0.76879883 10.51757812 C-1.86578094 10.52423996 -2.96276306 10.53090179 -4.09298706 10.5377655 C-4.94909576 10.41871353 -5.80520447 10.29966156 -6.68725586 10.17700195 C-8.68725586 7.17700195 -8.68725586 7.17700195 -8.43725586 4.05200195 C-8.06600586 2.62887695 -8.06600586 2.62887695 -7.68725586 1.17700195 C-5.02741432 -0.15291882 -2.97857603 0.02786167 0 0 Z " fill="#000000" transform="translate(134.687255859375,175.822998046875)"/>
<path d="M0 0 C0.9215538 0.00222061 1.8431076 0.00444122 2.79258728 0.00672913 C3.83359085 0.00680466 4.87459442 0.00688019 5.94714355 0.00695801 C7.07941879 0.01211929 8.21169403 0.01728058 9.37828064 0.02259827 C10.53106003 0.02401321 11.68383942 0.02542816 12.87155151 0.02688599 C16.57043503 0.03250446 20.26925903 0.0450601 23.96812439 0.05775452 C26.46877456 0.06276714 28.96942567 0.06733045 31.47007751 0.07142639 C37.6152829 0.0824799 43.76044354 0.09975692 49.90562439 0.12025452 C49.90562439 3.42025452 49.90562439 6.72025452 49.90562439 10.12025452 C42.69739543 10.19430776 35.48938698 10.24881116 28.28086853 10.28504944 C25.82770431 10.30015333 23.37456715 10.32063773 20.92149353 10.34657288 C17.39920884 10.38288509 13.87728058 10.39996488 10.35484314 10.41322327 C8.70472481 10.43644905 8.70472481 10.43644905 7.02127075 10.46014404 C5.49002312 10.46048393 5.49002312 10.46048393 3.92784119 10.46083069 C3.0284935 10.46749252 2.12914581 10.47415436 1.20254517 10.48101807 C-1.09437561 10.12025452 -1.09437561 10.12025452 -2.92388916 8.79428101 C-4.09437561 7.12025452 -4.09437561 7.12025452 -3.84437561 3.99525452 C-2.84474551 0.16333913 -2.84474551 0.16333913 0 0 Z " fill="#000000" transform="translate(345.09437561035156,197.87974548339844)"/>
<path d="M0 0 C0.8910997 -0.00960754 1.7821994 -0.01921509 2.70030212 -0.02911377 C3.66488846 -0.03336365 4.62947479 -0.03761353 5.62329102 -0.04199219 C7.10660667 -0.0505423 7.10660667 -0.0505423 8.61988831 -0.05926514 C10.71386645 -0.06872095 12.80785951 -0.07525142 14.90185547 -0.07910156 C18.11069555 -0.08881722 21.31889797 -0.11983941 24.52758789 -0.15136719 C26.55948512 -0.15789608 28.59138694 -0.163147 30.62329102 -0.16699219 C32.06713417 -0.18551239 32.06713417 -0.18551239 33.54014587 -0.20440674 C34.88152367 -0.19990509 34.88152367 -0.19990509 36.25 -0.1953125 C37.43008888 -0.20078094 37.43008888 -0.20078094 38.63401794 -0.20635986 C41.24003666 0.25951669 42.15188504 1.02936868 43.68969727 3.16113281 C43.25491466 8.59591542 43.25491466 8.59591542 41.68969727 10.16113281 C40.22713549 10.26454532 38.75965462 10.29963603 37.29345703 10.30639648 C35.89179039 10.31596626 35.89179039 10.31596626 34.46180725 10.32572937 C33.44517502 10.32684219 32.42854279 10.32795502 31.38110352 10.32910156 C30.3440477 10.33242996 29.30699188 10.33575836 28.23851013 10.33918762 C26.04019618 10.34426141 23.84187449 10.34659581 21.64355469 10.34643555 C18.27013526 10.34862119 14.89704309 10.36676996 11.52368164 10.38574219 C9.39282339 10.38867611 7.26196358 10.39066091 5.13110352 10.39160156 C4.11649551 10.39878708 3.10188751 10.4059726 2.05653381 10.41337585 C1.11893723 10.41029922 0.18134064 10.4072226 -0.78466797 10.40405273 C-1.61216049 10.40547775 -2.43965302 10.40690277 -3.29222107 10.40837097 C-5.31030273 10.16113281 -5.31030273 10.16113281 -7.31030273 8.16113281 C-7.06030273 4.59863281 -7.06030273 4.59863281 -6.31030273 1.16113281 C-3.98179907 -0.00311902 -2.59375894 0.02253405 0 0 Z " fill="#000000" transform="translate(378.310302734375,218.8388671875)"/>
<path d="M0 0 C5.96313166 -0.02464574 11.92623395 -0.042834 17.8894043 -0.05493164 C19.91968298 -0.05997278 21.94995802 -0.06680557 23.98022461 -0.07543945 C26.89177347 -0.08751467 29.8032745 -0.09323034 32.71484375 -0.09765625 C33.6283812 -0.10281754 34.54191864 -0.10797882 35.48313904 -0.11329651 C37.65575427 -0.11349168 39.82827296 -0.06211805 42 0 C43 1 43 1 43.25 4.4375 C43.1675 5.613125 43.085 6.78875 43 8 C39.16527882 10.55648079 35.9839998 10.32360943 31.53515625 10.3359375 C30.29057899 10.3459227 30.29057899 10.3459227 29.02085876 10.35610962 C27.26661393 10.36623111 25.51233064 10.37092679 23.75805664 10.37060547 C21.07568894 10.3749785 18.39496715 10.41130084 15.71289062 10.44921875 C14.00781812 10.45508709 12.30273781 10.45905637 10.59765625 10.4609375 C9.79650894 10.47530853 8.99536163 10.48967957 8.16993713 10.50448608 C4.43111825 10.47384434 2.43134065 10.34488991 -0.53735352 7.97119141 C-1.02002686 7.32069824 -1.5027002 6.67020508 -2 6 C-1.34 4.02 -0.68 2.04 0 0 Z " fill="#000000" transform="translate(129,153)"/>
<path d="M0 0 C1.79715454 0.00616333 1.79715454 0.00616333 3.63061523 0.01245117 C4.92805664 0.01438477 6.22549805 0.01631836 7.56225586 0.01831055 C8.23893311 0.02451416 8.91561035 0.03071777 9.61279297 0.03710938 C11.68461369 0.0553794 13.75598795 0.05761897 15.82788086 0.05737305 C25.98662641 0.10283735 25.98662641 0.10283735 27.12670898 1.24291992 C27.37670898 4.68041992 27.37670898 4.68041992 27.12670898 8.24291992 C22.25544581 11.49042871 16.85080871 10.57077427 11.12670898 10.55541992 C9.92530273 10.5715332 8.72389648 10.58764648 7.48608398 10.60424805 C6.33624023 10.60489258 5.18639648 10.60553711 4.00170898 10.60620117 C2.94725586 10.60918213 1.89280273 10.61216309 0.80639648 10.61523438 C-1.87329102 10.24291992 -1.87329102 10.24291992 -3.72094727 8.88037109 C-5.34470857 6.57304757 -5.22640692 4.99722398 -4.87329102 2.24291992 C-2.87329102 0.24291992 -2.87329102 0.24291992 0 0 Z " fill="#000000" transform="translate(38.873291015625,250.757080078125)"/>
<path d="M0 0 C0.82435547 -0.03738281 1.64871094 -0.07476562 2.49804688 -0.11328125 C4.78777549 -0.14676225 6.82284178 -0.10464058 9.0625 0.375 C11.25390625 2.5859375 11.25390625 2.5859375 12.0625 5.375 C11.25 8.1875 11.25 8.1875 10.0625 10.375 C6.77090684 10.43290353 3.47944397 10.46856261 0.1875 10.5 C-1.21822266 10.52513672 -1.21822266 10.52513672 -2.65234375 10.55078125 C-3.99619141 10.56044922 -3.99619141 10.56044922 -5.3671875 10.5703125 C-6.19460449 10.58078613 -7.02202148 10.59125977 -7.87451172 10.60205078 C-9.9375 10.375 -9.9375 10.375 -11.9375 8.375 C-11.6875 4.8125 -11.6875 4.8125 -10.9375 1.375 C-7.52411 -0.331695 -3.7629714 0.06442441 0 0 Z " fill="#000000" transform="translate(274.9375,263.625)"/>
</svg>
