<?xml version="1.0" encoding="UTF-8"?>
<svg version="1.1" xmlns="http://www.w3.org/2000/svg" width="512" height="512">
<path d="M0 0 C1.03024607 -0.00311998 2.06049213 -0.00623996 3.12195778 -0.00945449 C6.56101899 -0.01740753 9.99990244 -0.01112127 13.43896484 -0.00482178 C15.90989281 -0.00753283 18.38081997 -0.0110944 20.85174561 -0.01544189 C26.85852974 -0.02360881 32.86524456 -0.02242178 38.87202597 -0.01661661 C43.75544742 -0.01209316 48.63885488 -0.01149017 53.52227783 -0.01366425 C54.21827516 -0.01397071 54.91427249 -0.01427718 55.63136065 -0.01459293 C57.04542653 -0.0152324 58.45949241 -0.01588083 59.87355828 -0.01653811 C73.12193444 -0.02223623 86.37028288 -0.01569165 99.61865449 -0.00493738 C110.97739161 0.00399766 122.33608784 0.00244547 133.69482422 -0.0067749 C146.89697378 -0.01748669 160.09909907 -0.02168696 173.30125237 -0.01555037 C174.71001052 -0.0149133 176.11876869 -0.01428456 177.52752686 -0.01366425 C178.56713214 -0.01320142 178.56713214 -0.01320142 179.62773955 -0.01272924 C184.50323612 -0.01100503 189.37871725 -0.0139115 194.25421143 -0.01862335 C200.82057184 -0.02483004 207.3868671 -0.02038807 213.95322418 -0.00883484 C216.36225507 -0.0061917 218.77129245 -0.00694743 221.18032074 -0.01136017 C224.47023622 -0.01683058 227.7599049 -0.00996308 231.04980469 0 C232.00156397 -0.00446144 232.95332325 -0.00892289 233.93392372 -0.01351953 C241.07933737 0.0284094 248.21825263 0.39534859 253.83740234 5.31646729 C254.47291016 5.84369385 255.10841797 6.37092041 255.76318359 6.91412354 C261.29497191 14.26122154 260.94156638 23.04304565 260.86547852 31.85186768 C260.86463074 33.20293153 260.86511031 34.55399676 260.86680603 35.90505981 C260.86766156 39.547096 260.85010821 43.18883162 260.82908416 46.83079839 C260.810243 50.64643505 260.80856109 54.46207973 260.80500793 58.27775574 C260.7957092 65.49175451 260.77112509 72.70561577 260.74095947 79.91955417 C260.70734754 88.13724125 260.69091242 96.35493513 260.67587316 104.57267392 C260.64457339 121.46651996 260.59124632 138.36022379 260.52490234 155.25396729 C267.45490234 155.25396729 274.38490234 155.25396729 281.52490234 155.25396729 C281.50395508 152.23627197 281.48300781 149.21857666 281.46142578 146.10943604 C281.3950785 136.12707154 281.35093598 126.14469717 281.31765366 116.16217041 C281.29679957 110.11110753 281.26852116 104.060271 281.22314453 98.00933838 C281.17960993 92.16732566 281.15574884 86.32553036 281.14539337 80.48336792 C281.13801574 78.25707579 281.12360895 76.03079525 281.10198212 73.80459595 C281.07284761 70.68068948 281.06895063 67.55767576 281.07080078 64.43365479 C281.05641968 63.5179924 281.04203857 62.60233002 281.02722168 61.65892029 C281.06905456 55.1098906 282.38604088 49.64648397 286.93694687 44.72781372 C292.51289316 39.79742054 297.53771193 38.95486492 304.76831055 38.96343994 C305.58524384 38.95672272 306.40217712 38.95000549 307.24386597 38.94308472 C309.93786749 38.92412611 312.63161955 38.92018148 315.32568359 38.91802979 C317.20509441 38.91159992 319.08450423 38.90487142 320.96391296 38.89785767 C324.90215372 38.88588992 328.8403068 38.88217628 332.77856445 38.88336182 C337.81228964 38.88356487 342.84544941 38.85627439 347.87904072 38.8218174 C351.76108862 38.79952218 355.64300107 38.7955251 359.52510643 38.79658127 C361.38016901 38.79422882 363.23523552 38.7854254 365.09023476 38.76991653 C367.6916565 38.75020504 370.29186712 38.75611455 372.89331055 38.76812744 C373.65150589 38.75688843 374.40970123 38.74564941 375.19087219 38.73406982 C382.17606948 38.81557292 387.35805814 41.10981651 392.32226562 46.02203369 C394.74783091 49.58107085 396.29369963 52.94352793 397.76708984 56.96490479 C398.05253159 57.71414215 398.33797333 58.46337952 398.63206482 59.23532104 C399.56614569 61.69570779 400.48315868 64.162074 401.39990234 66.62896729 C402.0501997 68.35329872 402.70150242 70.0772513 403.35375977 71.80084229 C404.71998372 75.41774669 406.07870905 79.03734368 407.43164062 82.65924072 C409.18145053 87.34213657 410.94584306 92.01935903 412.71612549 96.69454956 C414.42695075 101.21294766 416.13243836 105.7333549 417.83740234 110.25396729 C418.16150085 111.11222107 418.48559937 111.97047485 418.81951904 112.85473633 C419.74130623 115.29917459 420.65912354 117.745065 421.57568359 120.19146729 C421.845858 120.90654449 422.11603241 121.6216217 422.39439392 122.35836792 C423.12548779 124.31671605 423.82814504 126.2831908 424.52490234 128.25396729 C424.90952637 129.29714111 425.29415039 130.34031494 425.69042969 131.4151001 C426.9433214 137.17884184 426.82998925 142.8566676 426.82568359 148.73834229 C426.82996872 150.03088928 426.83425385 151.32343628 426.83866882 152.65515137 C426.84609583 155.37839893 426.84586335 158.10151672 426.84057617 160.82476807 C426.83475422 164.3141578 426.85179414 167.80302142 426.87492085 171.29232407 C426.8931739 174.62851946 426.88947413 177.96459717 426.88818359 181.30084229 C426.89739334 182.55395203 426.90660309 183.80706177 426.91609192 185.09814453 C426.90674873 186.83575043 426.90674873 186.83575043 426.8972168 188.60845947 C426.89784622 189.62881287 426.89847565 190.64916626 426.89912415 191.70043945 C426.52490234 194.25396729 426.52490234 194.25396729 425.2696228 196.08552551 C423.09185213 197.54398163 421.84727386 197.61750721 419.23706055 197.59454346 C418.37639481 197.59431686 417.51572906 197.59409027 416.62898254 197.59385681 C415.70389389 197.57837296 414.77880524 197.5628891 413.82568359 197.54693604 C412.8754985 197.54269119 411.92531342 197.53844635 410.94633484 197.53407288 C407.90973646 197.51727213 404.87380032 197.47961721 401.83740234 197.44146729 C399.77946922 197.42642226 397.72152569 197.41273354 395.66357422 197.40045166 C390.61709487 197.36736399 385.57111091 197.31557191 380.52490234 197.25396729 C380.37939941 198.35482666 380.23389648 199.45568604 380.08398438 200.58990479 C378.81321542 208.91815829 374.28674447 216.24066662 367.52490234 221.25396729 C356.60684167 227.66270941 345.95958353 230.42563479 333.39990234 227.19146729 C324.54270512 224.14413576 317.17825455 218.39733364 312.52490234 210.25396729 C308.52490234 201.85396729 308.52490234 201.85396729 308.52490234 197.25396729 C257.37490234 197.25396729 206.22490234 197.25396729 153.52490234 197.25396729 C152.86490234 200.55396729 152.20490234 203.85396729 151.52490234 207.25396729 C146.8710451 217.48987491 138.96625722 225.33880857 128.56787109 229.56256104 C118.69980074 232.90223303 105.56558384 232.83629328 95.98193359 228.64068604 C83.85574429 221.79681131 77.36821467 212.47948323 73.52490234 199.25396729 C73.52490234 198.59396729 73.52490234 197.93396729 73.52490234 197.25396729 C72.20490234 197.25396729 70.88490234 197.25396729 69.52490234 197.25396729 C69.42693359 197.81084229 69.32896484 198.36771729 69.22802734 198.94146729 C67.12009765 209.69917747 62.22883423 217.92520091 53.54443359 224.82818604 C51.58791214 226.12862844 49.63266065 227.21836349 47.52490234 228.25396729 C46.90744141 228.57236572 46.28998047 228.89076416 45.65380859 229.21881104 C36.5343522 233.07635886 23.76321237 232.73489172 14.46240234 229.69146729 C4.7475715 225.43657966 -3.39284498 218.05680899 -7.79541016 208.33990479 C-10.47509766 201.23779596 -10.47509766 201.23779596 -10.47509766 197.25396729 C-11.54207886 197.27753296 -11.54207886 197.27753296 -12.63061523 197.30157471 C-15.84952869 197.36388644 -19.06831534 197.40294596 -22.28759766 197.44146729 C-23.40714844 197.466604 -24.52669922 197.49174072 -25.68017578 197.51763916 C-26.75332031 197.52730713 -27.82646484 197.5369751 -28.93212891 197.54693604 C-30.41676636 197.57050171 -30.41676636 197.57050171 -31.93139648 197.59454346 C-34.47509766 197.25396729 -34.47509766 197.25396729 -36.29663086 196.25543213 C-38.20327995 193.01724916 -37.90170328 189.59070505 -37.87353516 185.93756104 C-37.87640533 185.12529556 -37.87927551 184.31303009 -37.88223267 183.47615051 C-37.88427286 181.76056216 -37.87874606 180.04495051 -37.86621094 178.32940674 C-37.8501352 175.69761437 -37.86607102 173.06735289 -37.88525391 170.43560791 C-37.88327187 168.76958888 -37.87942902 167.10357081 -37.87353516 165.43756104 C-37.87960785 164.64796494 -37.88568054 163.85836884 -37.89193726 163.04484558 C-37.86328125 160.82989502 -37.86328125 160.82989502 -37.47509766 157.25396729 C-34.03989286 154.96383075 -32.48976666 155.07553755 -28.47509766 155.25396729 C-28.47786304 154.53282179 -28.48062841 153.81167629 -28.48347759 153.0686779 C-28.54974837 135.51663682 -28.59938356 117.96462754 -28.63053417 100.41248894 C-28.64599902 91.92438131 -28.66708121 83.43635723 -28.70141602 74.94830322 C-28.7313301 67.54958322 -28.75067544 60.15092373 -28.75736314 52.75214493 C-28.761272 48.83501133 -28.77045033 44.91805084 -28.79228783 41.00097275 C-28.8126848 37.31232313 -28.81892502 33.62391756 -28.8144207 29.9352169 C-28.81563657 27.93962361 -28.8317619 25.94405676 -28.84835815 23.9485321 C-28.84423416 22.7538884 -28.84011017 21.55924469 -28.83586121 20.32839966 C-28.83862659 19.29414793 -28.84139196 18.2598962 -28.84424114 17.19430351 C-28.22201577 12.23809575 -26.05535322 8.26159918 -22.28759766 5.00396729 C-21.75779297 4.52443604 -21.22798828 4.04490479 -20.68212891 3.55084229 C-14.34080177 -0.17538888 -7.12740838 -0.03341026 0 0 Z M-17.47509766 17.25396729 C-18.20340947 20.05089935 -18.20340947 20.05089935 -18.07637024 23.09425354 C-18.08324356 24.26228012 -18.09011688 25.4303067 -18.09719849 26.63372803 C-18.07922211 27.90615356 -18.06124573 29.1785791 -18.04272461 30.48956299 C-18.04131347 31.84988859 -18.04210741 33.21021799 -18.04493713 34.57054138 C-18.04637018 38.25641315 -18.01699976 41.94146931 -17.98206735 45.62715173 C-17.95078459 49.48148973 -17.94787162 53.33584699 -17.94194031 57.19029236 C-17.92640741 64.4859952 -17.88538676 71.78132288 -17.83519286 79.07686061 C-17.7792819 87.38389965 -17.75180854 95.69095672 -17.72671568 103.99813712 C-17.67447016 121.08363075 -17.58653899 138.16875933 -17.47509766 155.25396729 C-13.36751803 155.32886004 -9.26021005 155.38291482 -5.15209961 155.41876221 C-3.75847437 155.43372666 -2.36489522 155.45410579 -0.97143555 155.48028564 C9.59103437 155.69544624 9.59103437 155.69544624 19.70654297 152.9425354 C22.97766958 151.70383995 26.03910853 151.85821851 29.52490234 151.87896729 C30.82427734 151.87123291 32.12365234 151.86349854 33.46240234 151.85552979 C36.46040328 152.00949584 38.77540987 152.65453093 41.56005859 153.75396729 C47.06206317 155.63828175 52.25305783 155.68680175 58.02490234 155.65240479 C59.63848633 155.65671005 59.63848633 155.65671005 61.28466797 155.66110229 C63.54704315 155.66313341 65.80943628 155.65767065 68.07177734 155.64508057 C71.51488895 155.62901401 74.95682681 155.64496258 78.39990234 155.66412354 C80.60823824 155.66214094 82.81657342 155.65829692 85.02490234 155.65240479 C86.04390625 155.65847748 87.06291016 155.66455017 88.11279297 155.67080688 C93.7170684 155.61624469 98.33469245 154.99964709 103.5637207 152.93511963 C106.92409406 151.76800377 109.96971195 151.85780544 113.52490234 151.87896729 C114.82427734 151.87123291 116.12365234 151.86349854 117.46240234 151.85552979 C120.45762402 152.00891415 122.75876946 152.65303498 125.53794861 153.75758362 C131.16179279 155.68084566 136.482989 155.65391596 142.37866211 155.59454346 C143.53089767 155.59498154 144.68313324 155.59541962 145.87028503 155.59587097 C149.65246943 155.59379255 153.43420229 155.57050554 157.21630859 155.54693604 C159.84903216 155.54133673 162.48175887 155.53706821 165.11448669 155.53407288 C171.31914129 155.52478162 177.52363562 155.50020788 183.72821993 155.47002441 C190.79719526 155.43638892 197.86617861 155.4199715 204.93521416 155.4049381 C219.46519255 155.37365535 233.9950452 155.32095227 248.52490234 155.25396729 C248.641701 137.34742178 248.72987339 119.44097514 248.7839632 101.53413105 C248.80974557 93.21966634 248.84489645 84.90543829 248.90209961 76.59112549 C248.95193391 69.34440125 248.98419313 62.0978484 248.99534482 54.85095757 C249.00186365 51.01364086 249.01718453 47.17681448 249.05355263 43.33965492 C249.08751311 39.72722244 249.09795559 36.11548184 249.09044075 32.50290489 C249.09247031 30.54642281 249.11936543 28.59001595 249.14700317 26.63372803 C249.13669319 24.88168816 249.13669319 24.88168816 249.12617493 23.09425354 C249.13078389 22.08120305 249.13539286 21.06815256 249.14014149 20.02440357 C248.24182947 15.97928349 246.91758529 14.62987363 243.52490234 12.25396729 C240.09362376 11.53160295 236.73468311 11.57918152 233.23852539 11.61904907 C232.19239169 11.61124912 231.14625799 11.60344917 230.06842327 11.59541285 C226.55746599 11.57544412 223.04758673 11.59127749 219.53662109 11.60699463 C217.02185431 11.60022073 214.50709248 11.59131889 211.99234009 11.58044434 C205.8677318 11.55998924 199.74352375 11.5630141 193.61891007 11.57750754 C188.6414528 11.58879876 183.66408139 11.59033122 178.68661499 11.58488846 C177.97824358 11.58412229 177.26987216 11.58335613 176.54003495 11.58256675 C175.10099925 11.58096812 173.66196358 11.57934706 172.22292793 11.57770379 C158.728524 11.56344547 145.2342899 11.57984023 131.73991382 11.60670562 C120.1606713 11.62904454 108.5816794 11.62516444 97.00244141 11.60211182 C83.55639551 11.57535519 70.11049846 11.56481877 56.66442966 11.58017313 C55.23068303 11.58176588 53.79693638 11.58333774 52.3631897 11.58488846 C51.65775597 11.58565984 50.95232224 11.58643121 50.22551173 11.58722597 C45.25393234 11.5915434 40.28244734 11.58425552 35.31088257 11.57249069 C28.6196466 11.55700448 21.92895747 11.56802713 15.23774338 11.59696198 C12.77908491 11.60358474 10.32038668 11.60165497 7.86174393 11.59064865 C4.51104659 11.57702963 1.16187859 11.59406707 -2.1887207 11.61904907 C-3.16682866 11.60789546 -4.14493662 11.59674186 -5.15268421 11.58525026 C-10.90392169 11.66869909 -14.05549571 12.15467991 -17.47509766 17.25396729 Z M294.52490234 53.25396729 C292.76313605 56.83331401 292.2765472 59.71044342 292.28439331 63.676651 C292.28164398 64.75212189 292.27889465 65.82759277 292.27606201 66.93565369 C292.28325256 68.1052211 292.29044312 69.27478851 292.29785156 70.47979736 C292.29755951 71.71923096 292.29726746 72.95866455 292.29696655 74.23565674 C292.29811962 77.62584442 292.30813724 81.01578734 292.32211447 84.40593171 C292.33463272 87.95200518 292.33579319 91.49808204 292.33816528 95.04417419 C292.34437684 101.75536483 292.36078325 108.46649016 292.38086426 115.17765206 C292.40323337 122.81969322 292.41421924 130.46173752 292.42425513 138.10380328 C292.44514978 153.82056344 292.48072318 169.53725437 292.52490234 185.25396729 C297.80490234 185.25396729 303.08490234 185.25396729 308.52490234 185.25396729 C309.06115234 183.62459229 309.59740234 181.99521729 310.14990234 180.31646729 C313.88791188 170.20567065 318.87070475 163.39451406 328.52490234 158.25396729 C340.20424163 153.57223499 351.02166494 154.38166874 362.52490234 159.25396729 C373.30275321 165.46329629 377.02542135 173.58903064 380.52490234 185.25396729 C392.07490234 185.25396729 403.62490234 185.25396729 415.52490234 185.25396729 C415.52490234 182.61396729 415.52490234 179.97396729 415.52490234 177.25396729 C409.91490234 176.92396729 404.30490234 176.59396729 398.52490234 176.25396729 C398.85490234 167.67396729 399.18490234 159.09396729 399.52490234 150.25396729 C407.44490234 149.75896729 407.44490234 149.75896729 415.52490234 149.25396729 C416.24393269 138.75612416 414.20011476 134.27960454 410.52490234 123.25396729 C380.32990234 122.75896729 380.32990234 122.75896729 349.52490234 122.25396729 C349.52490234 101.46396729 349.52490234 80.67396729 349.52490234 59.25396729 C361.40490234 58.92396729 373.28490234 58.59396729 385.52490234 58.25396729 C383.23783868 52.62341312 383.23783868 52.62341312 380.81407166 50.89613342 C377.51550892 49.97080855 374.29575931 49.96756098 370.89819336 49.97930908 C370.13510864 49.97419815 369.37202393 49.96908722 368.58581543 49.96382141 C366.06673307 49.94993677 363.54792464 49.95088129 361.02880859 49.95318604 C359.27530313 49.94929852 357.5217986 49.94496373 355.76829529 49.94020081 C352.09395291 49.93274106 348.41970662 49.93302812 344.74536133 49.93829346 C340.0398458 49.94408818 335.33472387 49.92715595 330.62927341 49.90394878 C327.00812994 49.88920766 323.38708118 49.88834025 319.76591301 49.89145851 C318.03119057 49.8909455 316.2964628 49.88571157 314.56176949 49.87564659 C312.13458904 49.86329184 309.7081743 49.87006765 307.28100586 49.88165283 C306.56655807 49.87400909 305.85211029 49.86636536 305.11601257 49.85848999 C300.76063669 49.90437385 297.89876408 50.43343975 294.52490234 53.25396729 Z M355.52490234 66.25396729 C355.52490234 82.42396729 355.52490234 98.59396729 355.52490234 115.25396729 C372.35490234 115.25396729 389.18490234 115.25396729 406.52490234 115.25396729 C404.52854689 108.59944909 402.46482564 102.19160752 399.95068359 95.74615479 C399.62198776 94.89465851 399.29329193 94.04316223 398.95463562 93.16586304 C397.91905669 90.4855284 396.87833117 87.80722814 395.83740234 85.12896729 C395.12807435 83.29576687 394.41908696 81.46243463 393.71044922 79.62896729 C391.98648702 75.1688452 390.25555666 70.71151974 388.52490234 66.25396729 C377.63490234 66.25396729 366.74490234 66.25396729 355.52490234 66.25396729 Z M406.52490234 157.25396729 C406.52490234 161.21396729 406.52490234 165.17396729 406.52490234 169.25396729 C409.49490234 169.25396729 412.46490234 169.25396729 415.52490234 169.25396729 C415.52490234 165.29396729 415.52490234 161.33396729 415.52490234 157.25396729 C412.55490234 157.25396729 409.58490234 157.25396729 406.52490234 157.25396729 Z M7.39990234 172.37896729 C2.0840609 178.95382381 -0.22211725 186.15892182 0.14599609 194.58990479 C1.47788246 203.95430168 7.28705387 210.96747255 14.58740234 216.62896729 C21.93291665 220.69244329 29.80831485 221.74797372 38.02099609 219.60162354 C45.8652817 216.43400041 52.49199355 210.69933737 56.52490234 203.25396729 C59.36367615 195.87315539 59.62792641 188.57641865 56.96240234 181.12896729 C53.13590665 172.6063178 47.17317047 166.81412007 38.52490234 163.25396729 C26.65844526 160.3877615 15.82957181 163.42375733 7.39990234 172.37896729 Z M90.27490234 173.50396729 C85.11345823 181.61480803 83.36368952 189.05197712 84.89208984 198.53131104 C86.84087908 206.12624989 92.29285439 212.4764574 98.78662109 216.73834229 C106.34616573 220.59496765 114.0856751 221.69993266 122.36083984 219.50006104 C132.14537751 215.75372905 137.42268133 209.74042941 141.89990234 200.37896729 C143.64282219 191.66436806 142.90310887 184.05183808 138.52490234 176.25396729 C134.00128625 169.57401605 127.93923562 164.56173702 119.98583984 162.64068604 C107.81668852 160.72839083 98.80258802 164.97628161 90.27490234 173.50396729 Z M-26.47509766 166.25396729 C-26.47509766 172.52396729 -26.47509766 178.79396729 -26.47509766 185.25396729 C-21.19509766 185.25396729 -15.91509766 185.25396729 -10.47509766 185.25396729 C-9.71197266 183.04709229 -8.94884766 180.84021729 -8.16259766 178.56646729 C-6.57695281 173.98095382 -5.00069873 170.46330241 -2.47509766 166.25396729 C-10.39509766 166.25396729 -18.31509766 166.25396729 -26.47509766 166.25396729 Z M61.52490234 166.25396729 C62.47365234 168.27521729 63.42240234 170.29646729 64.39990234 172.37896729 C66.38859462 176.61574649 68.12611432 180.7859939 69.52490234 185.25396729 C70.84490234 185.25396729 72.16490234 185.25396729 73.52490234 185.25396729 C73.85103516 184.38513916 74.17716797 183.51631104 74.51318359 182.62115479 C74.95017578 181.46873291 75.38716797 180.31631104 75.83740234 179.12896729 C76.26666016 177.99201416 76.69591797 176.85506104 77.13818359 175.68365479 C78.43766742 172.46972013 79.97454534 169.35468129 81.52490234 166.25396729 C74.92490234 166.25396729 68.32490234 166.25396729 61.52490234 166.25396729 Z M145.52490234 166.25396729 C147.50490234 170.21396729 149.48490234 174.17396729 151.52490234 178.25396729 C152.18490234 180.56396729 152.84490234 182.87396729 153.52490234 185.25396729 C195.76490234 185.25396729 238.00490234 185.25396729 281.52490234 185.25396729 C281.52490234 178.98396729 281.52490234 172.71396729 281.52490234 166.25396729 C236.64490234 166.25396729 191.76490234 166.25396729 145.52490234 166.25396729 Z M323.15380859 176.93756104 C318.52337951 183.5223199 318.82694116 190.46153989 319.52490234 198.25396729 C321.17510758 204.43976654 325.42018845 209.50356524 330.52490234 213.25396729 C337.69154887 217.13265001 344.60485321 218.38276662 352.52490234 216.25396729 C360.15394773 213.14502104 364.83158159 208.56339651 368.52490234 201.25396729 C371.21094857 194.83081327 370.87497133 188.70268859 368.87646484 182.11724854 C366.06429847 175.55122704 360.4767942 170.23958342 354.13037109 167.05084229 C341.43762654 163.16880347 331.39196921 167.36798052 323.15380859 176.93756104 Z " fill="#000000" transform="translate(61.47509765625,139.74603271484375)"/>
<path d="M0 0 C1.10794922 0.00410889 2.21589844 0.00821777 3.35742188 0.01245117 C5.16146484 0.01535156 5.16146484 0.01535156 7.00195312 0.01831055 C8.26394531 0.03055664 9.5259375 0.04280273 10.82617188 0.05541992 C12.08816406 0.05606445 13.35015625 0.05670898 14.65039062 0.05737305 C24.0457082 0.10268808 24.0457082 0.10268808 26.32617188 1.24291992 C26.34929898 9.43982553 26.36708883 17.6367176 26.37798405 25.83364773 C26.38321207 29.63943569 26.39030826 33.44520141 26.40161133 37.25097656 C26.41244307 40.92084536 26.41844932 44.5906927 26.42104912 48.26057625 C26.42290285 49.66366985 26.42652248 51.06676222 26.43190193 52.46984673 C26.43911607 54.42861672 26.43957996 56.38740813 26.43969727 58.34619141 C26.44191788 59.46315903 26.44413849 60.58012665 26.44642639 61.73094177 C26.32617188 64.24291992 26.32617188 64.24291992 25.32617188 65.24291992 C20.68601862 65.49707542 16.03495881 65.4281479 11.38867188 65.43041992 C10.07447266 65.44266602 8.76027344 65.45491211 7.40625 65.4675293 C6.15392578 65.46946289 4.90160156 65.47139648 3.61132812 65.47338867 C1.87701538 65.479552 1.87701538 65.479552 0.10766602 65.48583984 C-2.67382812 65.24291992 -2.67382812 65.24291992 -4.67382812 63.24291992 C-4.92779541 60.70007324 -4.92779541 60.70007324 -4.93261719 57.44799805 C-4.93892151 56.23333862 -4.94522583 55.0186792 -4.95172119 53.76721191 C-4.94767273 52.44950806 -4.94362427 51.1318042 -4.93945312 49.77416992 C-4.94079989 48.41418386 -4.94274052 47.05419827 -4.94525146 45.69421387 C-4.94820222 42.84272685 -4.94390677 39.99136505 -4.93457031 37.13989258 C-4.92317567 33.48109215 -4.92973542 29.82258513 -4.94171524 26.16379547 C-4.94893524 23.355141 -4.9466453 20.54655633 -4.94145966 17.73789978 C-4.93947274 15.7314739 -4.94555675 13.72504533 -4.95172119 11.71862793 C-4.94541687 10.50396851 -4.93911255 9.28930908 -4.93261719 8.0378418 C-4.931026 6.96465698 -4.92943481 5.89147217 -4.92779541 4.7857666 C-4.5643095 1.146365 -3.62239554 0.32909821 0 0 Z M3.32617188 8.24291992 C3.32617188 24.41291992 3.32617188 40.58291992 3.32617188 57.24291992 C8.27617187 57.24291992 13.22617187 57.24291992 18.32617188 57.24291992 C18.32617188 41.07291992 18.32617188 24.90291992 18.32617188 8.24291992 C13.37617188 8.24291992 8.42617188 8.24291992 3.32617188 8.24291992 Z " fill="#000000" transform="translate(366.673828125,197.757080078125)"/>
<path d="M0 0 C4.55555556 0.55555556 4.55555556 0.55555556 6 2 C6.09558036 3.44213999 6.12188394 4.88894079 6.12025452 6.33424377 C6.12162918 7.26958954 6.12300385 8.2049353 6.12442017 9.16862488 C6.12082489 10.20296158 6.11722961 11.23729828 6.11352539 12.30297852 C6.11367142 13.38577087 6.11381744 14.46856323 6.1139679 15.58416748 C6.11326823 19.18243374 6.10547333 22.78064897 6.09765625 26.37890625 C6.09579226 28.86612418 6.09436827 31.35334248 6.09336853 33.84056091 C6.0899335 39.73021191 6.08204277 45.6198439 6.07201904 51.50948709 C6.05976246 58.87025374 6.05437791 66.23102264 6.04882812 73.59179688 C6.03808815 86.72787398 6.02120089 99.86393583 6 113 C3.6875 114.125 3.6875 114.125 1 115 C0.01 114.34 -0.98 113.68 -2 113 C-2.37473011 111.02596283 -2.37473011 111.02596283 -2.3742218 108.55895996 C-2.38123611 107.62512985 -2.38825043 106.69129974 -2.39547729 105.72917175 C-2.38783356 104.70157242 -2.38018982 103.67397308 -2.37231445 102.61523438 C-2.37596512 101.53550858 -2.37961578 100.45578278 -2.38337708 99.34333801 C-2.39150962 95.75998399 -2.37784971 92.17707835 -2.36328125 88.59375 C-2.36276297 86.11275228 -2.36327942 83.63175415 -2.36479187 81.15075684 C-2.3646905 75.27762857 -2.34978456 69.40466599 -2.32914084 63.53157759 C-2.30944835 57.51382609 -2.31362329 51.49622065 -2.31969929 45.47844696 C-2.32303457 40.35363747 -2.31641749 35.22887986 -2.30657005 30.1040802 C-2.30271015 27.63841523 -2.30157309 25.17274451 -2.3031559 22.70707703 C-2.30352515 19.26619394 -2.29094557 15.82560474 -2.2746582 12.38476562 C-2.27713562 11.35716629 -2.27961304 10.32956696 -2.28216553 9.27082825 C-2.27508072 8.33699814 -2.26799591 7.40316803 -2.26069641 6.44104004 C-2.25864354 5.62692909 -2.25659067 4.81281815 -2.25447559 3.97403717 C-2 2 -2 2 0 0 Z " fill="#000000" transform="translate(154,166)"/>
<path d="M0 0 C4.55555556 0.55555556 4.55555556 0.55555556 6 2 C6.09558036 3.44213999 6.12188394 4.88894079 6.12025452 6.33424377 C6.12162918 7.26958954 6.12300385 8.2049353 6.12442017 9.16862488 C6.12082489 10.20296158 6.11722961 11.23729828 6.11352539 12.30297852 C6.11367142 13.38577087 6.11381744 14.46856323 6.1139679 15.58416748 C6.11326823 19.18243374 6.10547333 22.78064897 6.09765625 26.37890625 C6.09579226 28.86612418 6.09436827 31.35334248 6.09336853 33.84056091 C6.0899335 39.73021191 6.08204277 45.6198439 6.07201904 51.50948709 C6.05976246 58.87025374 6.05437791 66.23102264 6.04882812 73.59179688 C6.03808815 86.72787398 6.02120089 99.86393583 6 113 C3.6875 114.125 3.6875 114.125 1 115 C0.01 114.34 -0.98 113.68 -2 113 C-2.37473011 111.02596283 -2.37473011 111.02596283 -2.3742218 108.55895996 C-2.38123611 107.62512985 -2.38825043 106.69129974 -2.39547729 105.72917175 C-2.38783356 104.70157242 -2.38018982 103.67397308 -2.37231445 102.61523438 C-2.37596512 101.53550858 -2.37961578 100.45578278 -2.38337708 99.34333801 C-2.39150962 95.75998399 -2.37784971 92.17707835 -2.36328125 88.59375 C-2.36276297 86.11275228 -2.36327942 83.63175415 -2.36479187 81.15075684 C-2.3646905 75.27762857 -2.34978456 69.40466599 -2.32914084 63.53157759 C-2.30944835 57.51382609 -2.31362329 51.49622065 -2.31969929 45.47844696 C-2.32303457 40.35363747 -2.31641749 35.22887986 -2.30657005 30.1040802 C-2.30271015 27.63841523 -2.30157309 25.17274451 -2.3031559 22.70707703 C-2.30352515 19.26619394 -2.29094557 15.82560474 -2.2746582 12.38476562 C-2.27713562 11.35716629 -2.27961304 10.32956696 -2.28216553 9.27082825 C-2.27508072 8.33699814 -2.26799591 7.40316803 -2.26069641 6.44104004 C-2.25864354 5.62692909 -2.25659067 4.81281815 -2.25447559 3.97403717 C-2 2 -2 2 0 0 Z " fill="#000000" transform="translate(112,166)"/>
<path d="M0 0 C4.55555556 0.55555556 4.55555556 0.55555556 6 2 C6.09558036 3.44213999 6.12188394 4.88894079 6.12025452 6.33424377 C6.12162918 7.26958954 6.12300385 8.2049353 6.12442017 9.16862488 C6.12082489 10.20296158 6.11722961 11.23729828 6.11352539 12.30297852 C6.11367142 13.38577087 6.11381744 14.46856323 6.1139679 15.58416748 C6.11326823 19.18243374 6.10547333 22.78064897 6.09765625 26.37890625 C6.09579226 28.86612418 6.09436827 31.35334248 6.09336853 33.84056091 C6.0899335 39.73021191 6.08204277 45.6198439 6.07201904 51.50948709 C6.05976246 58.87025374 6.05437791 66.23102264 6.04882812 73.59179688 C6.03808815 86.72787398 6.02120089 99.86393583 6 113 C3.525 113.99 3.525 113.99 1 115 C-0.97661739 113.37051195 -1.9134088 112.48097757 -2.37473011 109.91853237 C-2.37456237 109.11271756 -2.37439463 108.30690275 -2.3742218 107.47666931 C-2.38123611 106.54987869 -2.38825043 105.62308807 -2.39547729 104.66821289 C-2.38783356 103.65355957 -2.38018982 102.63890625 -2.37231445 101.59350586 C-2.37596512 100.5233876 -2.37961578 99.45326935 -2.38337708 98.35072327 C-2.39149859 94.80526984 -2.37785968 91.26027111 -2.36328125 87.71484375 C-2.36276288 85.25769552 -2.3632797 82.80054687 -2.36479187 80.34339905 C-2.36470208 75.19102802 -2.3542573 70.03881323 -2.33618164 64.88647461 C-2.31348247 58.26941087 -2.31295181 51.65257533 -2.31969929 45.03548336 C-2.32303433 39.96128802 -2.31641814 34.88714508 -2.30657005 29.81295967 C-2.30271064 27.37241451 -2.30157289 24.93186354 -2.3031559 22.49131584 C-2.30352513 19.08646327 -2.29094639 15.68190773 -2.2746582 12.27709961 C-2.27713562 11.26042206 -2.27961304 10.24374451 -2.28216553 9.19625854 C-2.27508072 8.27228775 -2.26799591 7.34831696 -2.26069641 6.39634705 C-2.25864354 5.59090926 -2.25659067 4.78547148 -2.25447559 3.95562649 C-2 2 -2 2 0 0 Z " fill="#000000" transform="translate(196,166)"/>
<path d="M0 0 C4.55555556 0.55555556 4.55555556 0.55555556 6 2 C6.1020165 3.42247925 6.13518092 4.8499695 6.14044189 6.27609253 C6.14900711 7.65998672 6.14900711 7.65998672 6.15774536 9.07183838 C6.15886322 10.09211121 6.15998108 11.11238403 6.16113281 12.16357422 C6.16609772 13.23179413 6.17106262 14.30001404 6.17617798 15.40060425 C6.1908428 18.95197176 6.19760868 22.50329462 6.203125 26.0546875 C6.20887277 28.51229861 6.21463054 30.96990969 6.22039795 33.42752075 C6.23092016 38.58758759 6.23675488 43.74763878 6.24023438 48.90771484 C6.24572251 55.53148675 6.26975242 62.15505343 6.29820633 68.77876091 C6.31679627 73.8572755 6.32203636 78.9357403 6.32357025 84.01428604 C6.32660541 86.45680997 6.33466276 88.89933285 6.34775543 91.34182358 C6.36474013 94.75392175 6.36295412 98.16551386 6.35644531 101.57763672 C6.3656601 102.59386108 6.37487488 103.61008545 6.3843689 104.65710449 C6.37879974 105.58534027 6.37323059 106.51357605 6.36749268 107.46994019 C6.36895924 108.27705381 6.3704258 109.08416744 6.3719368 109.91573906 C5.91402914 112.48176385 4.97922062 113.36939405 3 115 C1.35 114.34 -0.3 113.68 -2 113 C-2.04667978 98.56195469 -2.0818362 84.12392104 -2.10362434 69.68581581 C-2.11394563 62.98225002 -2.12802217 56.27873105 -2.15087891 49.57519531 C-2.17254588 43.11077754 -2.18455562 36.64640851 -2.18975449 30.18195724 C-2.19346132 27.71069954 -2.20069939 25.23944461 -2.21146011 22.76820755 C-2.22589332 19.31758016 -2.22798137 15.86715643 -2.22705078 12.41650391 C-2.23424133 11.38576248 -2.24143188 10.35502106 -2.24884033 9.29304504 C-2.246091 8.35632462 -2.24334167 7.41960419 -2.24050903 6.45449829 C-2.24235262 5.63778971 -2.24419621 4.82108112 -2.24609566 3.97962379 C-2 2 -2 2 0 0 Z " fill="#000000" transform="translate(70,166)"/>
<path d="M0 0 C4.875 0.875 4.875 0.875 6 2 C6.09558036 3.44213999 6.12188394 4.88894079 6.12025452 6.33424377 C6.12162918 7.26958954 6.12300385 8.2049353 6.12442017 9.16862488 C6.12082489 10.20296158 6.11722961 11.23729828 6.11352539 12.30297852 C6.11367142 13.38577087 6.11381744 14.46856323 6.1139679 15.58416748 C6.11326823 19.18243374 6.10547333 22.78064897 6.09765625 26.37890625 C6.09579226 28.86612418 6.09436827 31.35334248 6.09336853 33.84056091 C6.0899335 39.73021191 6.08204277 45.6198439 6.07201904 51.50948709 C6.05976246 58.87025374 6.05437791 66.23102264 6.04882812 73.59179688 C6.03808815 86.72787398 6.02120089 99.86393583 6 113 C3.525 113.99 3.525 113.99 1 115 C-0.96467295 113.37664216 -1.91178007 112.48569021 -2.37473011 109.93694305 C-2.37456237 109.13980141 -2.37439463 108.34265976 -2.3742218 107.5213623 C-2.38123611 106.604431 -2.38825043 105.68749969 -2.39547729 104.74278259 C-2.38783356 103.73905106 -2.38018982 102.73531952 -2.37231445 101.70117188 C-2.37596512 100.64241348 -2.37961578 99.58365509 -2.38337708 98.49281311 C-2.39149901 94.98463013 -2.37785845 91.47690665 -2.36328125 87.96875 C-2.36276284 85.53641765 -2.36327979 83.10408487 -2.36479187 80.67175293 C-2.36470207 75.57065589 -2.35425714 70.46971665 -2.33618164 65.36865234 C-2.31349437 58.82118859 -2.31294962 52.27395555 -2.31969929 45.72646332 C-2.32303651 40.70283956 -2.3164138 35.67926865 -2.30657005 30.65565491 C-2.30271352 28.24105607 -2.30157171 25.82645137 -2.3031559 23.41184998 C-2.30352565 20.04072819 -2.29093136 16.66990515 -2.2746582 13.29882812 C-2.27713562 12.29509659 -2.27961304 11.29136505 -2.28216553 10.25721741 C-2.27508072 9.3402861 -2.26799591 8.4233548 -2.26069641 7.4786377 C-2.25864354 6.68149605 -2.25659067 5.8843544 -2.25447559 5.06305695 C-2 3 -2 3 0 0 Z " fill="#000000" transform="translate(280,166)"/>
<path d="M0 0 C4.875 0.875 4.875 0.875 6 2 C6.09558036 3.44213999 6.12188394 4.88894079 6.12025452 6.33424377 C6.12162918 7.26958954 6.12300385 8.2049353 6.12442017 9.16862488 C6.12082489 10.20296158 6.11722961 11.23729828 6.11352539 12.30297852 C6.11367142 13.38577087 6.11381744 14.46856323 6.1139679 15.58416748 C6.11326823 19.18243374 6.10547333 22.78064897 6.09765625 26.37890625 C6.09579226 28.86612418 6.09436827 31.35334248 6.09336853 33.84056091 C6.0899335 39.73021191 6.08204277 45.6198439 6.07201904 51.50948709 C6.05976246 58.87025374 6.05437791 66.23102264 6.04882812 73.59179688 C6.03808815 86.72787398 6.02120089 99.86393583 6 113 C3.525 113.99 3.525 113.99 1 115 C-0.96467295 113.37664216 -1.91178007 112.48569021 -2.37473011 109.93694305 C-2.37456237 109.13980141 -2.37439463 108.34265976 -2.3742218 107.5213623 C-2.38123611 106.604431 -2.38825043 105.68749969 -2.39547729 104.74278259 C-2.38783356 103.73905106 -2.38018982 102.73531952 -2.37231445 101.70117188 C-2.37596512 100.64241348 -2.37961578 99.58365509 -2.38337708 98.49281311 C-2.39149901 94.98463013 -2.37785845 91.47690665 -2.36328125 87.96875 C-2.36276284 85.53641765 -2.36327979 83.10408487 -2.36479187 80.67175293 C-2.36470207 75.57065589 -2.35425714 70.46971665 -2.33618164 65.36865234 C-2.31349437 58.82118859 -2.31294962 52.27395555 -2.31969929 45.72646332 C-2.32303651 40.70283956 -2.3164138 35.67926865 -2.30657005 30.65565491 C-2.30271352 28.24105607 -2.30157171 25.82645137 -2.3031559 23.41184998 C-2.30352565 20.04072819 -2.29093136 16.66990515 -2.2746582 13.29882812 C-2.27713562 12.29509659 -2.27961304 11.29136505 -2.28216553 10.25721741 C-2.27508072 9.3402861 -2.26799591 8.4233548 -2.26069641 7.4786377 C-2.25864354 6.68149605 -2.25659067 5.8843544 -2.25447559 5.06305695 C-2 3 -2 3 0 0 Z " fill="#000000" transform="translate(238,166)"/>
<path d="M0 0 C3.82938453 3.54918566 6.07005201 6.63501711 7.5 11.6875 C7.58954006 16.97036375 6.66975089 21.81530995 3.234375 25.98828125 C-0.46608148 29.28947795 -4.38586263 31.32597771 -9.3828125 31.40625 C-15.64286869 30.9302001 -19.49064409 28.42432202 -23.8125 23.875 C-26.21735704 18.6953079 -26.3026418 13.98713725 -25.4375 8.375 C-23.75494246 4.29390299 -21.32233068 2.02808931 -17.8125 -0.5625 C-11.68818962 -2.49052364 -5.86038098 -2.77036192 0 0 Z M-17.4375 10.375 C-18.09193062 13.17642229 -18.05404918 15.56883691 -17.4375 18.375 C-15.42554165 21.39293753 -13.94869412 22.18608043 -10.5625 23.4375 C-7.22018192 23.64316688 -7.22018192 23.64316688 -4.125 21.25 C-0.87969628 17.8221591 -0.87969628 17.8221591 -0.4375 13.375 C-1.82307787 10.53786436 -3.20751704 8.60498296 -5.4375 6.375 C-10.77884086 5.7703199 -13.93062758 6.12424556 -17.4375 10.375 Z " fill="#000000" transform="translate(184.4375,316.625)"/>
<path d="M0 0 C4.35285299 2.27064409 6.94661217 4.87431752 8.9296875 9.31640625 C9.67628157 14.91971022 9.7044447 19.64769844 7.3046875 24.81640625 C3.07899289 29.26450583 -0.70093857 31.92928874 -6.98828125 32.41015625 C-11.45921599 32.20883836 -15.34543743 30.92173552 -18.6484375 27.84765625 C-23.12846735 22.59520746 -23.41189375 19.03538368 -23.35546875 12.3046875 C-22.88012966 7.3233943 -20.65270719 4.70699552 -17.0078125 1.50390625 C-12.03267562 -1.54537119 -5.50204206 -1.816712 0 0 Z M-13.4453125 9.00390625 C-15.28953057 11.62837042 -15.99200273 13.10570572 -16.0703125 16.31640625 C-14.4476648 19.9033117 -12.60276521 22.49971629 -9.0703125 24.31640625 C-5.57383708 24.24356301 -3.61613182 23.67549791 -0.6953125 21.75390625 C1.30228236 18.75751397 1.57386151 16.77564854 1.375 13.22265625 C1.01443805 11.04207581 1.01443805 11.04207581 -1.1328125 8.81640625 C-5.60540935 6.53252701 -9.22662705 6.00641922 -13.4453125 9.00390625 Z " fill="#000000" transform="translate(98.0703125,315.68359375)"/>
<path d="M0 0 C3.5677811 2.35149209 5.84221079 4.99692157 7.75 8.8125 C8.29035594 13.7377115 8.29435469 17.68191718 6.125 22.1875 C2.88226355 25.77157713 0.28524104 28.40785241 -4.6484375 29.1953125 C-10.33222994 29.45133919 -13.89938655 28.74876932 -18.25 24.8125 C-21.95136323 20.62411529 -22.84406206 17.41764756 -22.5703125 11.98828125 C-21.89216146 7.38181627 -20.12349805 4.62048569 -16.75 1.5 C-11.45935825 -2.07118318 -5.83839616 -2.13326013 0 0 Z M-12.625 8.4375 C-14.73706506 11.52436432 -14.86195145 13.1407913 -14.25 16.8125 C-12.75 19.3125 -12.75 19.3125 -10.25 20.8125 C-6.5782913 21.42445145 -4.96186432 21.29956506 -1.875 19.1875 C0.23706506 16.10063568 0.36195145 14.4842087 -0.25 10.8125 C-1.75 8.3125 -1.75 8.3125 -4.25 6.8125 C-7.9217087 6.20054855 -9.53813568 6.32543494 -12.625 8.4375 Z " fill="#000000" transform="translate(413.25,317.1875)"/>
<path d="M0 0 C0.72445313 -0.00386719 1.44890625 -0.00773437 2.1953125 -0.01171875 C5.39282879 -0.00581927 7.94582607 0.10694202 11 1.125 C12.125 5.875 12.125 5.875 11 8.125 C4.07 8.125 -2.86 8.125 -10 8.125 C-10.66 6.475 -11.32 4.825 -12 3.125 C-9.82046475 -1.23407049 -4.26268206 -0.02275453 0 0 Z " fill="#000000" transform="translate(421,273.875)"/>
</svg>
