<?xml version="1.0" encoding="UTF-8"?>
<svg version="1.1" xmlns="http://www.w3.org/2000/svg" width="512" height="512">
<path d="M0 0 C1.25392736 -0.01104769 2.50785473 -0.02209538 3.79977989 -0.03347784 C5.18865546 -0.02552078 6.57752889 -0.01718311 7.96640015 -0.00850582 C9.44383755 -0.01383067 10.92126954 -0.02089601 12.39869118 -0.02955288 C16.45962092 -0.04821531 20.52018688 -0.04186299 24.58113194 -0.03139985 C28.9602179 -0.02441805 33.33922836 -0.04039794 37.71829224 -0.05339718 C46.2972807 -0.07505913 54.87613662 -0.07490474 63.45514345 -0.06677163 C70.42629561 -0.06047662 77.39740905 -0.06160408 84.36856079 -0.06804371 C85.36001905 -0.06894536 86.35147731 -0.06984702 87.37297976 -0.070776 C89.38698945 -0.07262716 91.40099912 -0.07448972 93.41500878 -0.07636356 C112.30875578 -0.0929495 131.20242814 -0.08421587 150.09617066 -0.06737798 C167.39049859 -0.05267844 184.68465282 -0.0673116 201.97895837 -0.09614814 C219.72826457 -0.12552345 237.47749054 -0.13651999 255.22681999 -0.12696594 C257.23349888 -0.12594337 259.24017778 -0.12494876 261.24685669 -0.12398243 C262.72791615 -0.12326784 262.72791615 -0.12326784 264.23889601 -0.12253882 C271.20320966 -0.12037233 278.16744755 -0.13019122 285.13174438 -0.14475346 C293.61675741 -0.1622477 302.10154889 -0.16220128 310.5865531 -0.1394018 C314.91736287 -0.12823337 319.24778191 -0.1251556 323.57857513 -0.14370251 C327.54126986 -0.16045495 331.50323148 -0.15422837 335.46587825 -0.12948572 C336.90120204 -0.12458469 338.33658438 -0.12816632 339.77185941 -0.14097316 C341.71965756 -0.15710227 343.66764812 -0.1395501 345.61541748 -0.12025452 C347.23978257 -0.11984998 347.23978257 -0.11984998 348.89696312 -0.11943728 C352.80068726 0.71957486 354.32153779 2.45331453 356.80770874 5.50615788 C357.42294788 8.40153313 357.42294788 8.40153313 357.40898132 11.65015507 C357.41929131 13.50316479 357.41929131 13.50316479 357.42980957 15.39360905 C357.41211624 16.75445501 357.39394223 18.11529479 357.37533569 19.47612858 C357.37392468 20.91527094 357.37471825 22.3544169 357.37754822 23.79355717 C357.37898173 27.69427944 357.34960344 31.59423162 357.31467843 35.49477506 C357.2834036 39.57333319 357.28048332 43.65190934 357.27455139 47.73056889 C357.2590162 55.45125336 357.21799233 63.17158347 357.16780394 70.89211196 C357.11190023 79.68282069 357.08442143 88.47354642 357.05932677 97.26438868 C357.00707602 115.34517925 356.91914023 133.42564006 356.80770874 151.50615788 C357.79770874 151.50615788 358.78770874 151.50615788 359.80770874 151.50615788 C359.80494336 150.88900882 359.80217798 150.27185976 359.7993288 149.63600922 C359.73301108 134.60386745 359.68340006 119.57177072 359.65227222 104.53952026 C359.63681806 97.26996379 359.61575641 90.0005051 359.58139038 82.73101139 C359.55144345 76.39326188 359.53212319 70.05558321 359.52544326 63.71776491 C359.52153992 60.36341236 359.51239714 57.00926242 359.49051857 53.65497494 C359.46873912 49.90594694 359.46574213 46.15733858 359.46713257 42.40825748 C359.45095383 40.74884884 359.45095383 40.74884884 359.43444824 39.05591679 C359.46171382 32.26109463 359.87104726 26.85662166 364.52645874 21.54522038 C365.11427124 21.07857975 365.70208374 20.61193913 366.30770874 20.13115788 C366.89552124 19.6490485 367.48333374 19.16693913 368.08895874 18.67022038 C374.53900199 14.301782 384.5632021 16.53687454 391.89413452 17.39238834 C393.16452072 17.53387302 393.16452072 17.53387302 394.46057129 17.67821598 C397.2253834 17.98767759 399.98919451 18.30521274 402.75302124 18.62334538 C404.69250777 18.84309048 406.63203281 19.06249595 408.57159424 19.28157902 C412.6215881 19.74034113 416.67109918 20.20310282 420.7203064 20.66875553 C425.89518201 21.26354541 431.07111832 21.84844871 436.24745369 22.43038082 C440.24744434 22.88115017 444.24683247 23.33709231 448.24605942 23.79458332 C450.15395184 24.01222764 452.06202406 24.22830209 453.97027969 24.44273853 C456.64084042 24.74363886 459.31051245 25.05149761 461.98007202 25.36113834 C462.75846436 25.44745518 463.53685669 25.53377201 464.33883667 25.62270451 C478.21899967 27.25916816 478.21899967 27.25916816 482.68270874 31.38115788 C483.23700562 31.87357975 483.79130249 32.36600163 484.36239624 32.87334538 C487.55697629 36.48235744 488.13542177 39.89245187 488.55380249 44.62334538 C488.66691772 45.85576969 488.78003296 47.08819401 488.89657593 48.35796452 C488.95309326 49.0131406 489.0096106 49.66831669 489.06784058 50.3433466 C489.2475746 52.40833964 489.44048069 54.47173337 489.6368103 56.53521061 C490.24006875 62.92536828 490.80542169 69.31577721 491.27122498 75.71752262 C491.41977346 77.72022558 491.58255582 79.72185608 491.74545288 81.72344303 C491.9471298 84.20695476 492.12632111 86.69244189 492.27816772 89.17949772 C492.82735327 95.66706429 494.00612867 100.21167601 497.33334351 105.83818913 C501.78661303 114.11126001 501.78014878 121.82078838 501.63192749 131.03350163 C501.62901524 132.67823889 501.62864321 134.32298238 501.63066101 135.96772099 C501.62747076 139.38609989 501.60083692 142.8031713 501.55551147 146.22124577 C501.49853051 150.58801283 501.4906889 154.95317273 501.49891949 159.32025146 C501.50172283 162.70481957 501.48408619 166.08903312 501.45978737 169.47350597 C501.44963009 171.08373556 501.4444794 172.69400531 501.4445858 174.30426693 C501.44059413 176.55319472 501.41035163 178.80029399 501.37289429 181.04888248 C501.35454781 182.96077618 501.35454781 182.96077618 501.33583069 184.91129398 C500.50162604 190.58962678 498.35454843 194.30656791 493.74520874 197.88115788 C490.23983353 199.82030161 487.52047461 200.6268007 483.57723999 200.82256413 C482.37357788 200.88540592 482.37357788 200.88540592 481.14559937 200.94951725 C480.31222046 200.98883366 479.47884155 201.02815006 478.62020874 201.06865788 C477.77522827 201.11184147 476.9302478 201.15502506 476.05966187 201.19951725 C473.97586441 201.30547305 471.89180771 201.40630808 469.80770874 201.50615788 C469.51380249 202.43234928 469.51380249 202.43234928 469.21395874 203.37725163 C465.75262866 213.17938035 460.13879238 219.83825844 450.88583374 224.63115788 C442.90682901 227.99073881 431.51686142 227.91842584 423.37020874 225.00615788 C414.14019378 220.5620766 408.55245848 213.91818513 404.80770874 204.50615788 C404.47770874 203.51615788 404.14770874 202.52615788 403.80770874 201.50615788 C385.98770874 201.50615788 368.16770874 201.50615788 349.80770874 201.50615788 C348.48770874 204.80615788 347.16770874 208.10615788 345.80770874 211.50615788 C341.21577877 218.47763185 334.93790437 223.43152835 327.01864624 226.11162663 C317.61275033 227.79006388 307.07642419 227.60567925 298.80770874 222.50615788 C290.93215369 217.01099567 286.81417831 210.52556658 283.80770874 201.50615788 C282.81770874 201.17615788 281.82770874 200.84615788 280.80770874 200.50615788 C280.63755249 201.086236 280.46739624 201.66631413 280.29208374 202.26397038 C277.11978441 212.48957353 271.33218742 219.75423933 261.87020874 224.94365788 C253.66176487 228.23558589 242.50225989 227.89625666 234.24520874 224.94365788 C225.92007316 220.89435723 220.48442584 214.95642785 216.80770874 206.50615788 C216.56020874 205.43365788 216.31270874 204.36115788 216.05770874 203.25615788 C214.30410661 199.39823319 211.67907035 198.57482818 207.99520874 196.70928288 C202.07618554 193.45382012 201.16641952 188.79605328 198.80770874 182.50615788 C198.80770874 175.90615788 198.80770874 169.30615788 198.80770874 162.50615788 C184.94770874 162.50615788 171.08770874 162.50615788 156.80770874 162.50615788 C156.80770874 169.43615788 156.80770874 176.36615788 156.80770874 183.50615788 C151.37487292 195.73003847 151.37487292 195.73003847 143.43270874 198.81865788 C142.13333374 199.15897038 142.13333374 199.15897038 140.80770874 199.50615788 C140.76645874 200.47553288 140.72520874 201.44490788 140.68270874 202.44365788 C139.55661442 210.07950289 133.79254045 216.29421788 127.98348999 220.99834538 C119.53780517 226.8511898 110.90797521 227.58366475 100.80770874 226.50615788 C97.17588716 225.60303203 94.07467523 224.31848965 90.80770874 222.50615788 C90.16317749 222.15553288 89.51864624 221.80490788 88.85458374 221.44365788 C82.36963871 217.38351838 78.27290714 210.63555795 75.80770874 203.50615788 C75.80770874 202.51615788 75.80770874 201.52615788 75.80770874 200.50615788 C74.48770874 200.50615788 73.16770874 200.50615788 71.80770874 200.50615788 C71.71489624 201.71272038 71.71489624 201.71272038 71.62020874 202.94365788 C69.68596015 211.42459401 64.93432417 217.62872249 57.80770874 222.50615788 C49.75992456 227.46993717 39.98930717 227.93338342 30.80770874 226.50615788 C22.12599907 223.7762425 14.70138599 218.8250842 10.31161499 210.75615788 C7.09956196 203.913484 7.09956196 203.913484 6.34677124 200.28350163 C5.91118499 198.15246591 5.91118499 198.15246591 3.05770874 196.75615788 C-1.75213564 193.42626561 -4.35433506 189.02002646 -6.19229126 183.50615788 C-6.29437453 181.85332248 -6.34701264 180.19716506 -6.36807251 178.54131413 C-6.39192017 177.57645084 -6.41576782 176.61158756 -6.44033813 175.617486 C-6.48321981 173.5890527 -6.51451779 171.56034062 -6.53408813 169.5315485 C-6.56180298 168.56539616 -6.58951782 167.59924381 -6.61807251 166.60381413 C-6.63265503 165.72217594 -6.64723755 164.84053776 -6.66226196 163.93218327 C-6.97634481 161.34558966 -6.97634481 161.34558966 -9.19325161 159.74594212 C-11.82744755 156.79450963 -11.69712991 155.16178624 -11.70695496 151.24358463 C-11.71967941 149.95650105 -11.73240387 148.66941746 -11.74551392 147.34333134 C-11.73933164 145.91908939 -11.73272562 144.49484923 -11.72573853 143.070611 C-11.73279659 141.56913244 -11.74154113 140.067661 -11.75184631 138.56620121 C-11.77436181 134.48973679 -11.77139588 130.41366021 -11.76252484 126.33715725 C-11.75741783 122.93489233 -11.76470508 119.53270049 -11.77199692 116.1304431 C-11.7890024 108.10538862 -11.78542316 100.08052428 -11.76870728 92.05547428 C-11.75177904 83.7732928 -11.76762839 75.4916381 -11.79993016 67.20951414 C-11.82660819 60.1002606 -11.83390711 52.99117123 -11.82541507 45.88187265 C-11.82048133 41.63506059 -11.82272551 37.38856563 -11.84320259 33.14179325 C-11.86153233 29.14920739 -11.85563515 25.15738075 -11.83100319 21.16483593 C-11.82598684 19.69908943 -11.82950655 18.23328534 -11.84215164 16.7675848 C-11.85803884 14.76801697 -11.84013877 12.76826543 -11.82048035 10.76873112 C-11.81960088 9.08964287 -11.81960088 9.08964287 -11.81870365 7.37663364 C-10.48185698 1.25065973 -5.68692266 0.00625709 0 0 Z M-1.19229126 10.50615788 C-1.19229126 57.03615788 -1.19229126 103.56615788 -1.19229126 151.50615788 C113.31770874 151.50615788 227.82770874 151.50615788 345.80770874 151.50615788 C345.80770874 104.97615788 345.80770874 58.44615788 345.80770874 10.50615788 C231.29770874 10.50615788 116.78770874 10.50615788 -1.19229126 10.50615788 Z M370.80770874 31.50615788 C370.20737048 34.44477737 370.20737048 34.44477737 370.29977417 37.76200199 C370.28849487 39.04764042 370.27721558 40.33327885 370.26559448 41.65787601 C370.27337156 43.08053147 370.28156423 44.50318469 370.29013062 45.92583561 C370.28470981 47.42568994 370.27758738 48.92553894 370.26889038 50.42537785 C370.25064727 54.49779354 370.25772886 58.56980411 370.27040672 62.64222693 C370.28053123 66.90401571 370.2711424 71.16576972 370.26486206 75.42755985 C370.25758325 82.58573987 370.26717861 89.74375486 370.28622437 96.90190983 C370.30798532 105.17605878 370.30094846 113.44981335 370.27891874 121.72395271 C370.26076144 128.828121 370.25820827 135.93217061 370.26867342 143.0363546 C370.27490763 147.27923295 370.27574623 151.52192601 370.26252747 155.76479244 C370.25096499 159.75483988 370.25900151 163.74437951 370.28210449 167.73437214 C370.28738988 169.19808134 370.28588063 170.66183334 370.27705383 172.12552547 C370.26610977 174.12477808 370.28227291 176.12412416 370.29977417 178.12333012 C370.30128227 179.24180049 370.30279037 180.36027086 370.30434418 181.51263428 C370.9260947 185.21020262 372.15985703 186.89070606 374.80770874 189.50615788 C377.98954026 190.19345014 377.98954026 190.19345014 381.54208374 189.99443913 C382.83759155 189.97832584 384.13309937 189.96221256 385.46786499 189.945611 C386.83116302 189.90383727 388.19444426 189.86151257 389.55770874 189.81865788 C390.93657498 189.79356698 392.31548471 189.77075516 393.69442749 189.7502985 C397.0666223 189.69134405 400.43661615 189.60908958 403.80770874 189.50615788 C403.99889282 188.83286442 404.1900769 188.15957096 404.38705444 187.46587467 C404.64575317 186.57553532 404.9044519 185.68519596 405.17098999 184.76787663 C405.55057861 183.44856144 405.55057861 183.44856144 405.93783569 182.10259342 C408.41189882 174.71790036 413.23007122 168.66988675 419.80770874 164.50615788 C430.86947905 159.8187327 439.22320106 159.32746662 450.54598999 163.04912663 C457.9221431 166.3441028 463.94689194 172.0341015 467.13583374 179.51006413 C468.24681857 182.81072254 469.07779151 186.09987746 469.80770874 189.50615788 C472.39167553 189.58728241 474.97308442 189.64670536 477.55770874 189.69365788 C478.28731812 189.71879459 479.01692749 189.74393131 479.76864624 189.76982975 C483.0182106 189.81414199 485.37165147 189.74154548 488.26083374 188.18193913 C491.20594127 184.99140597 490.96556551 181.60466054 491.04818726 177.46856022 C491.07393326 176.22230869 491.09967926 174.97605717 491.12620544 173.69204044 C491.21653774 167.94249228 491.27639992 162.19273543 491.32260132 156.44268131 C491.34913377 153.42596571 491.39755522 150.41087619 491.46615601 147.39482975 C492.02003908 123.36657841 492.02003908 123.36657841 482.80770874 101.50615788 C482.47770874 100.51615788 482.14770874 99.52615788 481.80770874 98.50615788 C480.38950081 98.49735851 480.38950081 98.49735851 478.94264221 98.48838139 C470.04014178 98.43121228 461.13788698 98.35848143 452.23563671 98.27044296 C447.65868572 98.22568148 443.08182494 98.18643828 438.50473022 98.15972233 C434.08902455 98.13374674 429.67366493 98.0933856 425.25817299 98.04297161 C423.57208873 98.02626388 421.88594457 98.01477398 420.19978905 98.00854397 C417.84110457 97.99894502 415.48331324 97.97093803 413.12484741 97.93853092 C412.07504196 97.94068356 412.07504196 97.94068356 411.00402832 97.94287968 C408.22697315 97.88877908 406.24541991 97.78701173 403.87663269 96.26709843 C402.50881157 94.01375602 402.41484639 92.53179618 402.38778687 89.898736 C402.371875 88.96767033 402.35596313 88.03660465 402.33956909 87.07732487 C402.33936768 86.07415226 402.33916626 85.07097965 402.33895874 84.03740788 C402.33134521 83.00555363 402.32373169 81.97369938 402.31588745 80.91057682 C402.30507944 78.72843186 402.30223617 76.54623513 402.30673218 74.36406803 C402.30770511 71.01863125 402.26607728 67.67548242 402.22177124 64.33037663 C402.21656494 62.21189184 402.21387604 60.09339906 402.21395874 57.97490788 C402.18936584 56.47014896 402.18936584 56.47014896 402.16427612 54.93499088 C402.17358154 54.00392521 402.18288696 53.07285954 402.19247437 52.11357975 C402.19041992 51.29434025 402.18836548 50.47510075 402.18624878 49.6310358 C402.80770874 47.50615788 402.80770874 47.50615788 404.91481018 45.74521732 C408.37298871 44.26404241 410.94884812 44.10815843 414.70932007 44.07378483 C415.38304657 44.06359318 416.05677307 44.05340153 416.75091553 44.04290104 C418.96394255 44.01285752 421.17653613 44.00351883 423.38973999 43.99443913 C424.92960539 43.97758594 426.46945709 43.95943483 428.0092926 43.94004154 C432.05175494 43.89260452 436.09416171 43.86275465 440.1368103 43.83660221 C444.26615369 43.80676474 448.39530574 43.7602454 452.52450562 43.71514225 C460.61881251 43.62918087 468.71313694 43.56180397 476.80770874 43.50615788 C476.4820442 41.06367385 476.26375289 39.85554818 474.26954651 38.3277216 C470.7171253 37.14220871 467.12279371 36.76368383 463.41830444 36.36113834 C462.57386276 36.26331059 461.72942108 36.16548283 460.85939026 36.06469059 C458.06822568 35.74337699 455.27595661 35.43312305 452.48348999 35.12334538 C450.53772664 34.90252244 448.59202324 34.68117071 446.64637756 34.45931339 C442.56566998 33.99567704 438.48441649 33.53730002 434.40267944 33.08281803 C429.18776741 32.5019072 423.97419656 31.90985825 418.76096821 31.31404781 C414.74037161 30.85549099 410.71921599 30.40200279 406.69786644 29.9501009 C404.77651078 29.73375345 402.85530533 29.51606738 400.93425941 29.29698658 C398.23806598 28.99046372 395.54121378 28.69056059 392.84408569 28.39238834 C392.05986237 28.30202305 391.27563904 28.21165775 390.46765137 28.11855412 C388.24886841 27.87722892 386.0329835 27.67708115 383.80770874 27.50615788 C382.60952546 27.40979731 382.60952546 27.40979731 381.38713646 27.31149006 C380.20200683 27.25668287 380.20200683 27.25668287 378.99293518 27.20076847 C378.28556811 27.16235907 377.57820105 27.12394966 376.84939861 27.08437634 C373.77785742 27.71890922 372.66391952 29.01896482 370.80770874 31.50615788 Z M412.80770874 54.50615788 C412.80770874 65.39615788 412.80770874 76.28615788 412.80770874 87.50615788 C435.24770874 87.50615788 457.68770874 87.50615788 480.80770874 87.50615788 C481.20930296 71.47628219 481.20930296 71.47628219 477.80770874 54.50615788 C456.35770874 54.50615788 434.90770874 54.50615788 412.80770874 54.50615788 Z M4.80770874 162.50615788 C4.78708374 165.57928288 4.76645874 168.65240788 4.74520874 171.81865788 C4.73610474 172.78327946 4.72700073 173.74790104 4.71762085 174.74175358 C4.71512329 175.50576481 4.71262573 176.26977604 4.71005249 177.05693913 C4.70481567 177.83722477 4.69957886 178.61751041 4.69418335 179.42144108 C4.72633011 181.70231337 4.72633011 181.70231337 5.80770874 184.50615788 C6.46770874 184.50615788 7.12770874 184.50615788 7.80770874 184.50615788 C8.14802124 183.72111881 8.48833374 182.93607975 8.83895874 182.12725163 C12.14976048 174.95091275 15.41634493 170.15089392 21.80770874 165.50615788 C23.12770874 164.51615788 24.44770874 163.52615788 25.80770874 162.50615788 C18.87770874 162.50615788 11.94770874 162.50615788 4.80770874 162.50615788 Z M53.80770874 162.50615788 C56.4401769 164.61213241 59.08375041 166.70743826 61.80770874 168.69365788 C68.01234188 173.90937776 70.61030298 181.94922587 72.80770874 189.50615788 C73.79770874 189.17615788 74.78770874 188.84615788 75.80770874 188.50615788 C76.69219764 186.37529371 76.69219764 186.37529371 77.24520874 183.81865788 C79.86115748 174.30365262 85.77053132 168.73966875 93.80770874 163.50615788 C93.80770874 163.17615788 93.80770874 162.84615788 93.80770874 162.50615788 C80.60770874 162.50615788 67.40770874 162.50615788 53.80770874 162.50615788 Z M122.80770874 162.50615788 C124.45770874 163.82615788 126.10770874 165.14615788 127.80770874 166.50615788 C129.51550847 168.1306503 131.18321631 169.79835815 132.80770874 171.50615788 C133.48833374 172.20740788 134.16895874 172.90865788 134.87020874 173.63115788 C137.75339151 177.90942908 139.2019165 182.62899101 140.80770874 187.50615788 C143.76836893 185.2914908 145.54983686 183.93589721 146.2203064 180.21856022 C146.29946401 177.52464804 146.2429642 174.88667369 146.12020874 172.19365788 C145.96552124 167.39834538 145.96552124 167.39834538 145.80770874 162.50615788 C138.21770874 162.50615788 130.62770874 162.50615788 122.80770874 162.50615788 Z M209.80770874 162.50615788 C209.74583374 165.53803288 209.68395874 168.56990788 209.62020874 171.69365788 C209.59289673 172.64007145 209.56558472 173.58648502 209.53744507 174.5615778 C209.49083069 179.28366438 209.50921809 182.7924726 212.80770874 186.50615788 C213.79770874 186.50615788 214.78770874 186.50615788 215.80770874 186.50615788 C216.02684937 185.87709538 216.24598999 185.24803288 216.47177124 184.59990788 C219.82634067 175.54529771 223.68219141 169.15976764 232.26864624 164.41631413 C232.77653687 164.11596256 233.28442749 163.815611 233.80770874 163.50615788 C233.80770874 163.17615788 233.80770874 162.84615788 233.80770874 162.50615788 C225.88770874 162.50615788 217.96770874 162.50615788 209.80770874 162.50615788 Z M261.80770874 162.50615788 C263.12770874 163.49615788 264.44770874 164.48615788 265.80770874 165.50615788 C274.5018337 172.51919227 278.25000259 178.61653017 280.80770874 189.50615788 C281.79770874 189.50615788 282.78770874 189.50615788 283.80770874 189.50615788 C284.02684937 188.73272038 284.24598999 187.95928288 284.47177124 187.16240788 C287.69530304 176.57454734 291.52191696 170.405309 301.04989624 164.63506413 C301.62997437 164.26252506 302.21005249 163.889986 302.80770874 163.50615788 C302.80770874 163.17615788 302.80770874 162.84615788 302.80770874 162.50615788 C289.27770874 162.50615788 275.74770874 162.50615788 261.80770874 162.50615788 Z M345.55380249 161.72490788 C344.24379272 161.79258366 344.24379272 161.79258366 342.90731812 161.86162663 C341.58957397 161.93316959 341.58957397 161.93316959 340.24520874 162.00615788 C339.33190796 162.05385319 338.41860718 162.1015485 337.47763062 162.15068913 C335.2542048 162.26709885 333.03091395 162.38562072 330.80770874 162.50615788 C334.20120416 165.23588315 334.20120416 165.23588315 337.65145874 167.89287663 C344.85850677 173.55312897 348.03990801 180.66715422 349.80770874 189.50615788 C353.43770874 189.50615788 357.06770874 189.50615788 360.80770874 189.50615788 C360.31270874 175.64615788 360.31270874 175.64615788 359.80770874 161.50615788 C352.66449419 161.4891343 352.66449419 161.4891343 345.55380249 161.72490788 Z M20.80770874 180.50615788 C17.45174624 185.37771634 16.549434 190.66053964 16.80770874 196.50615788 C18.42301171 204.13903316 22.32204641 209.25484849 28.80770874 213.50615788 C34.81954692 216.43349085 41.72741146 216.63995096 48.15536499 214.85381413 C53.96636988 212.24502002 58.1867863 207.85902484 60.94833374 202.14678288 C62.91624831 196.09991809 62.86741375 188.97203513 60.24520874 183.13115788 C56.37307183 176.61892762 51.08624088 173.02035416 43.86630249 170.97490788 C34.45114688 168.83103942 27.01918048 173.86532173 20.80770874 180.50615788 Z M231.31552124 177.79131413 C226.26569351 183.53451199 225.13253513 189.01945317 225.42880249 196.60772038 C226.3434404 203.60422894 229.59895182 207.85248043 234.92880249 212.27959538 C241.11900037 216.32059773 247.6331441 216.34000558 254.80770874 215.50615788 C260.73198552 213.3588472 265.40065913 208.72880629 268.80770874 203.50615788 C271.36007144 197.00923463 271.77112358 191.36355692 269.12020874 184.88115788 C266.03819515 178.53393408 261.38138078 174.18578724 254.80770874 171.50615788 C245.94745259 169.1207043 237.92232772 171.50716564 231.31552124 177.79131413 Z M90.11239624 179.58037663 C86.12509608 185.74360344 85.02853595 191.21223478 85.80770874 198.50615788 C88.06781404 205.60583648 92.99346875 211.26994258 99.60067749 214.76787663 C105.51925713 216.74772008 111.86629067 216.59675131 117.69442749 214.43584538 C124.00134305 210.9854252 128.3147303 206.45706704 130.41317749 199.49834538 C131.69551034 193.02319933 130.91831989 187.29189462 127.80770874 181.50615788 C123.46516364 176.34205018 118.09433315 172.02159673 111.24130249 171.19756413 C102.54650244 170.82347234 95.79757503 172.62454727 90.11239624 179.58037663 Z M299.43270874 179.00615788 C295.72141726 183.56752171 294.19567628 187.58965292 293.80770874 193.50615788 C294.54577338 200.23074681 296.47514282 205.63813145 301.74130249 210.17022038 C308.62294328 215.49875691 314.14515138 216.27665218 322.80770874 215.50615788 C329.08682368 213.77757897 333.18277407 209.78205288 336.80770874 204.50615788 C339.87410653 198.66540018 340.37225234 192.69078615 338.52255249 186.41631413 C336.09484981 179.92917417 331.5116509 176.10186679 325.80770874 172.50615788 C315.8764389 169.1957346 306.35399273 171.26962649 299.43270874 179.00615788 Z M419.49520874 178.69365788 C415.45036887 183.87679968 413.43287335 189.4692833 413.80770874 196.06865788 C414.82368193 202.32836363 418.10155508 207.22223138 422.80770874 211.38115788 C429.22066659 215.92366968 435.1176159 216.29616741 442.80770874 215.50615788 C448.99366336 213.78726533 453.33614658 209.82406042 456.80770874 204.50615788 C459.72111222 198.47980274 459.94450349 191.59725754 458.15536499 185.15850163 C455.54657089 179.34749673 451.1605757 175.12708031 445.44833374 172.36553288 C435.73940145 169.20582118 426.44244787 171.38971453 419.49520874 178.69365788 Z " fill="#000000" transform="translate(11.192291259765625,142.49384212493896)"/>
<path d="M0 0 C4.62 0 9.24 0 14 0 C14 38.94 14 77.88 14 118 C9.38 118 4.76 118 0 118 C0 79.06 0 40.12 0 0 Z " fill="#000000" transform="translate(314,162)"/>
<path d="M0 0 C4.62 0 9.24 0 14 0 C14 38.94 14 77.88 14 118 C9.38 118 4.76 118 0 118 C0 79.06 0 40.12 0 0 Z " fill="#000000" transform="translate(273,162)"/>
<path d="M0 0 C4.62 0 9.24 0 14 0 C14 38.94 14 77.88 14 118 C9.38 118 4.76 118 0 118 C0 79.06 0 40.12 0 0 Z " fill="#000000" transform="translate(232,162)"/>
<path d="M0 0 C4.62 0 9.24 0 14 0 C14 38.94 14 77.88 14 118 C9.38 118 4.76 118 0 118 C0 79.06 0 40.12 0 0 Z " fill="#000000" transform="translate(191,162)"/>
<path d="M0 0 C4.62 0 9.24 0 14 0 C14 38.94 14 77.88 14 118 C9.38 118 4.76 118 0 118 C0 79.06 0 40.12 0 0 Z " fill="#000000" transform="translate(149,162)"/>
<path d="M0 0 C4.62 0 9.24 0 14 0 C14 38.94 14 77.88 14 118 C9.38 118 4.76 118 0 118 C0 79.06 0 40.12 0 0 Z " fill="#000000" transform="translate(108,162)"/>
<path d="M0 0 C4.62 0 9.24 0 14 0 C14 38.94 14 77.88 14 118 C9.38 118 4.76 118 0 118 C0 79.06 0 40.12 0 0 Z " fill="#000000" transform="translate(67,162)"/>
<path d="M0 0 C4.62 0 9.24 0 14 0 C14 38.94 14 77.88 14 118 C9.38 118 4.76 118 0 118 C0 79.06 0 40.12 0 0 Z " fill="#000000" transform="translate(25,162)"/>
</svg>
