<?xml version="1.0" encoding="UTF-8"?>
<svg version="1.1" xmlns="http://www.w3.org/2000/svg" width="512" height="512">
<path d="M0 0 C0.8677002 -0.01260864 1.73540039 -0.02521729 2.62939453 -0.03820801 C3.55864746 -0.03011108 4.48790039 -0.02201416 5.4453125 -0.01367188 C6.40679199 -0.01749878 7.36827148 -0.02132568 8.35888672 -0.02526855 C10.3896591 -0.0279879 12.42046649 -0.02062517 14.45117188 -0.00390625 C17.5593882 0.01750288 20.66529306 -0.00370734 23.7734375 -0.02929688 C25.74740093 -0.0266536 27.72136293 -0.02152864 29.6953125 -0.01367188 C30.62456543 -0.0217688 31.55381836 -0.02986572 32.51123047 -0.03820801 C38.94482493 0.05527923 38.94482493 0.05527923 42.15209961 2.42578125 C43.67521142 4.67229906 44.13807003 5.82572491 44.1328125 8.51757812 C44.15472656 9.17757812 44.17664062 9.83757812 44.19921875 10.51757812 C43.5703125 12.51757812 43.5703125 12.51757812 38.5703125 16.51757812 C28.0103125 16.51757812 17.4503125 16.51757812 6.5703125 16.51757812 C6.5703125 54.79757813 6.5703125 93.07757813 6.5703125 132.51757812 C107.8803125 132.51757812 209.1903125 132.51757812 313.5703125 132.51757812 C313.5703125 94.23757812 313.5703125 55.95757812 313.5703125 16.51757812 C295.22050781 16.56398437 276.87070312 16.61039063 257.96484375 16.65820312 C246.36653496 16.67863194 234.76823718 16.6980767 223.16992188 16.71289062 C217.07901975 16.72072228 210.98811803 16.72880425 204.8972168 16.73730469 C204.13380712 16.73835968 203.37039744 16.73941468 202.58385414 16.74050164 C190.254429 16.75790538 177.92507837 16.78944419 165.59569744 16.82618931 C152.94518912 16.86357742 140.29471985 16.88580946 127.64415854 16.8939321 C119.83619973 16.89942432 112.02845144 16.91677934 104.22055741 16.94924399 C98.2364014 16.97286027 92.25242701 16.97540337 86.26821899 16.97000885 C83.8111561 16.97111182 81.35408545 16.97910183 78.89706993 16.99440002 C75.54854073 17.01423129 72.20092041 17.00954165 68.85237122 16.99859619 C67.87474361 17.01024756 66.897116 17.02189892 65.88986331 17.03390336 C61.57568416 16.99565113 59.21197944 16.91148386 55.46699047 14.6125145 C53.42005336 12.35161251 52.90818944 11.51799021 53.0078125 8.51757812 C53.00587891 7.52757812 53.00587891 7.52757812 53.00390625 6.51757812 C53.8837216 3.4109198 54.92727908 2.4370551 57.5703125 0.51757812 C61.09029533 -0.10047759 64.58813498 -0.02578763 68.15403748 0.00291443 C69.24423583 -0.0040311 70.33443418 -0.01097663 71.45766884 -0.01813263 C75.12359653 -0.03648024 78.78888275 -0.0261163 82.45483398 -0.01586914 C85.07782477 -0.02292365 87.70081149 -0.03166668 90.3237915 -0.04197693 C96.71649662 -0.06363601 103.10902386 -0.06348517 109.50175362 -0.05535138 C114.69709481 -0.04905515 119.89238406 -0.05018494 125.08772469 -0.05662346 C125.82676056 -0.05752511 126.56579644 -0.05842677 127.32722734 -0.05935575 C128.82851157 -0.06120692 130.32979577 -0.06306948 131.83107997 -0.06494331 C145.91441182 -0.08152854 159.99764355 -0.07279658 174.0809694 -0.05595773 C186.96844549 -0.04126138 199.85568843 -0.05588687 212.74313449 -0.08472789 C225.97236592 -0.11411357 239.2014897 -0.12509653 252.43075234 -0.11554569 C253.92686306 -0.11452313 255.42297379 -0.11352852 256.91908455 -0.11256218 C257.65521848 -0.11208579 258.39135241 -0.1116094 259.14979343 -0.11111857 C264.33877436 -0.10895327 269.52765351 -0.11876471 274.71661186 -0.13333321 C281.70081522 -0.15266823 288.68457749 -0.14579062 295.66876221 -0.1211338 C298.23546696 -0.11611056 300.80220453 -0.11965458 303.36888313 -0.13228226 C306.86629477 -0.14813074 310.36226145 -0.13333715 313.85960388 -0.11061096 C314.88119439 -0.12244669 315.9027849 -0.13428242 316.9553327 -0.14647681 C321.52850734 -0.08588501 323.86879642 0.03045161 327.70046997 2.69113159 C329.83249945 5.91389888 330.19628792 7.53581882 330.19850159 11.36891174 C330.21748253 13.12490189 330.21748253 13.12490189 330.23684692 14.91636658 C330.22515472 16.19185867 330.21346252 17.46735077 330.20141602 18.78149414 C330.20655689 20.14519175 330.21383945 21.50888272 330.22309875 22.87255859 C330.24159848 26.56894496 330.22868471 30.26460918 330.20900846 33.96096539 C330.19261177 37.83083247 330.2014361 41.70065418 330.20652771 45.57054138 C330.21104701 52.06789679 330.19518786 58.56496415 330.16723633 65.06225586 C330.13517145 72.57359764 330.13520576 80.08442033 330.1524511 87.59579903 C330.16831422 94.82375316 330.16158496 102.05151701 330.14451408 109.27946281 C330.13764229 112.35477706 330.13867723 115.42993883 330.14605904 118.50525093 C330.15371997 122.12600241 330.1416031 125.74616296 330.11421013 129.36681366 C330.10403844 131.32929129 330.11351032 133.29183985 330.12353516 135.25431824 C330.10444847 137.00607864 330.10444847 137.00607864 330.0849762 138.79322815 C330.08216928 139.80808068 330.07936235 140.82293322 330.07647038 141.86853886 C329.43420711 145.22990236 328.22268735 146.42191413 325.5703125 148.51757812 C323.19110107 148.99859619 323.19110107 148.99859619 320.52636719 148.97167969 C319.52563171 148.97137756 318.52489624 148.97107544 317.49383545 148.97076416 C316.42079163 148.95011902 315.3477478 148.92947388 314.2421875 148.90820312 C313.13804504 148.90254333 312.03390259 148.89688354 310.89630127 148.89105225 C307.37053024 148.8686658 303.84577626 148.81846309 300.3203125 148.76757812 C297.92970218 148.74751615 295.53907592 148.72926486 293.1484375 148.71289062 C287.28867076 148.66879322 281.42966405 148.5997481 275.5703125 148.51757812 C275.5703125 151.81757813 275.5703125 155.11757813 275.5703125 158.51757812 C303.2903125 158.51757812 331.0103125 158.51757812 359.5703125 158.51757812 C359.5703125 152.57757813 359.5703125 146.63757813 359.5703125 140.51757812 C354.15493955 140.67525558 354.15493955 140.67525558 348.74121094 140.87792969 C348.0609082 140.88791992 347.38060547 140.89791016 346.6796875 140.90820312 C345.98842773 140.92915039 345.29716797 140.95009766 344.58496094 140.97167969 C341.57621148 140.29350785 340.48188082 138.90665966 338.5703125 136.51757812 C338.06910706 133.51316833 338.06910706 133.51316833 338.06860352 129.96069336 C338.06049904 128.98681168 338.06049904 128.98681168 338.05223083 127.99325562 C338.03975435 125.85375962 338.05622316 123.71561213 338.07421875 121.57617188 C338.07406375 120.08691843 338.07257466 118.59766458 338.06980896 117.1084137 C338.06842553 113.9904696 338.08097434 110.87298583 338.10375977 107.75512695 C338.1321695 103.75780553 338.12939994 99.76124742 338.11666965 95.76386929 C338.10971702 92.6900632 338.11749647 89.61643375 338.12992668 86.54265022 C338.13444353 85.06865173 338.13477593 83.59463429 338.13086128 82.12063408 C338.12795235 80.06171616 338.14443751 78.003853 338.16625977 75.94506836 C338.17166275 74.77354721 338.17706573 73.60202606 338.18263245 72.39500427 C338.5703125 69.51757813 338.5703125 69.51757813 339.9080658 67.67835999 C343.74736308 64.99729788 347.78965017 65.40084273 352.2578125 65.45507812 C352.95970703 65.45958984 353.66160156 65.46410156 354.38476562 65.46875 C356.11331788 65.48050886 357.84182615 65.49844359 359.5703125 65.51757812 C359.54412842 64.78120117 359.51794434 64.04482422 359.4909668 63.28613281 C359.38697564 59.94683196 359.3219784 56.60787157 359.2578125 53.26757812 C359.21591797 52.10871094 359.17402344 50.94984375 359.13085938 49.75585938 C359.11474609 48.64082031 359.09863281 47.52578125 359.08203125 46.37695312 C359.05584717 45.35053711 359.02966309 44.32412109 359.00268555 43.26660156 C359.5703125 40.51757812 359.5703125 40.51757812 361.52548218 38.37910461 C365.71136348 35.81997057 369.03773397 35.94800595 373.85522461 35.98413086 C374.78265976 35.97551529 375.71009491 35.96689972 376.66563416 35.95802307 C379.72659336 35.93534953 382.78663804 35.94210487 385.84765625 35.95117188 C387.97848279 35.94593673 390.109307 35.93966065 392.24012756 35.93238831 C396.70471099 35.92198137 401.16897574 35.92654967 405.63354492 35.94116211 C411.35141841 35.95834572 417.06828663 35.93486081 422.78604794 35.89967251 C427.18618921 35.87769826 431.58608999 35.87914019 435.986269 35.88743782 C438.09417383 35.88825741 440.20209632 35.88139268 442.30994987 35.86666679 C445.2592612 35.84922186 448.20676676 35.86376369 451.15600586 35.88647461 C452.02424988 35.87478241 452.8924939 35.86309021 453.78704834 35.8510437 C459.79276712 35.9450075 462.37444192 37.19555565 466.5703125 41.51757812 C468.33403253 43.59653934 469.99850571 45.65690019 471.6328125 47.83007812 C472.59244316 49.0784796 473.55343675 50.32583431 474.515625 51.57226562 C475.01352539 52.21905273 475.51142578 52.86583984 476.02441406 53.53222656 C478.63309527 56.88247855 481.32123823 60.16720574 484.0078125 63.45507812 C488.4622236 68.92073205 492.90532297 74.39500623 497.3203125 79.89257812 C497.83392334 80.52929443 498.34753418 81.16601074 498.87670898 81.82202148 C502.03757906 85.7654082 503.68903578 87.83940872 503.72421265 92.86923218 C503.73281311 93.78334366 503.74141357 94.69745514 503.75027466 95.63926697 C503.75666458 97.14790062 503.75666458 97.14790062 503.76318359 98.68701172 C503.77136108 99.74401779 503.77953857 100.80102386 503.78796387 101.89006042 C503.81284011 105.39870633 503.82933786 108.90731177 503.84375 112.41601562 C503.85173552 114.20959944 503.85173552 114.20959944 503.85988235 116.03941727 C503.88662107 122.36578989 503.90599544 128.69214272 503.92041016 135.01855469 C503.93707784 141.56499069 503.98187196 148.11092521 504.0327816 154.65717125 C504.06637165 159.6808228 504.07797848 164.704354 504.08363724 169.72810745 C504.09037036 172.14192166 504.1056454 174.55572739 504.12952805 176.96943283 C504.16101028 180.34316147 504.16124154 183.71551961 504.15380859 187.08935547 C504.1784166 188.59191643 504.1784166 188.59191643 504.20352173 190.12483215 C504.14248905 196.87304397 504.14248905 196.87304397 501.24143982 200.14096069 C497.80820046 201.91034739 495.37448369 201.97381934 491.51953125 201.90820312 C490.86072464 201.90254333 490.20191803 201.89688354 489.52314758 201.89105225 C487.43394034 201.86879052 485.34649477 201.81862143 483.2578125 201.76757812 C481.83531136 201.74749957 480.41278313 201.72925116 478.99023438 201.71289062 C475.5163617 201.66896171 472.04350925 201.60000908 468.5703125 201.51757812 C468.4571167 202.1136084 468.3439209 202.70963867 468.22729492 203.32373047 C466.03403646 214.10934997 459.73647989 222.40679986 450.5703125 228.51757812 C446.75856362 229.78816108 444.42315291 229.60800466 440.5703125 228.51757812 C437.82762482 226.21725943 437.60426766 224.77575971 437.13671875 221.22070312 C437.61855899 217.10552703 438.62791461 215.87223206 441.73828125 213.23632812 C442.30160156 212.79289063 442.86492187 212.34945312 443.4453125 211.89257812 C448.54587416 207.75059069 450.75826974 204.70328433 452.3828125 198.33007812 C452.69766954 191.92798508 451.24674914 186.53789921 447.1328125 181.58007812 C446.2871875 180.89945313 445.4415625 180.21882812 444.5703125 179.51757812 C443.8690625 178.94007813 443.1678125 178.36257813 442.4453125 177.76757812 C437.67300868 174.58604225 432.07679227 174.97595716 426.5703125 175.51757812 C420.44759592 177.38277655 416.66867846 180.60937153 413.6328125 186.26367188 C411.15873591 191.75302931 411.08165042 196.71087137 412.5703125 202.51757812 C415.26672325 209.0445123 419.84633364 212.65255502 425.5703125 216.51757812 C426.5703125 217.51757812 426.5703125 217.51757812 426.9453125 220.76757812 C426.5703125 224.51757812 426.5703125 224.51757812 424.5703125 227.51757812 C421.5703125 229.51757812 421.5703125 229.51757812 417.8203125 229.76757812 C410.58113099 228.29242416 405.2670074 222.90339451 401.1953125 217.01757812 C398.09521894 211.96270334 395.5703125 207.57181847 395.5703125 201.51757812 C378.7403125 201.51757812 361.9103125 201.51757812 344.5703125 201.51757812 C343.9103125 204.48757813 343.2503125 207.45757812 342.5703125 210.51757812 C337.44398506 221.42141514 329.68972568 227.44185337 318.5703125 231.51757812 C308.9933579 234.48564257 298.43295772 232.80947472 289.5703125 228.51757812 C280.59588247 223.00852207 274.98763583 215.43730835 271.5703125 205.51757812 C271.5703125 204.19757813 271.5703125 202.87757813 271.5703125 201.51757812 C268.9303125 201.51757812 266.2903125 201.51757812 263.5703125 201.51757812 C263.61671875 202.54238281 263.663125 203.5671875 263.7109375 204.62304688 C263.74847261 205.98369468 263.78487091 207.34437418 263.8203125 208.70507812 C263.87058594 209.71538086 263.87058594 209.71538086 263.921875 210.74609375 C263.98883185 214.17763253 263.72440602 216.26466415 261.92701721 219.21472168 C258.94324303 222.13031971 257.59104773 222.14062197 253.47241211 222.1328125 C251.62545998 222.14677063 251.62545998 222.14677063 249.74119568 222.16101074 C248.40167083 222.14542554 247.06215729 222.12884065 245.72265625 222.11132812 C244.34550582 222.10961655 242.96835214 222.10968318 241.59120178 222.1114502 C238.70851366 222.10979825 235.82660447 222.09112358 232.9440918 222.05957031 C229.24939503 222.01985444 225.5557163 222.01552977 221.86084652 222.02303314 C219.01862766 222.02610238 216.17663769 222.01398487 213.33447456 221.99690247 C211.97212726 221.98987285 210.60975402 221.98674789 209.24738884 221.9875946 C207.3444596 221.9857971 205.44158876 221.96215224 203.53881836 221.9375 C202.45612167 221.92908081 201.37342499 221.92066162 200.25791931 221.9119873 C197.5703125 221.51757812 197.5703125 221.51757812 195.74000549 220.10168457 C192.99319489 216.38169958 193.46314971 212.23385723 193.5078125 207.76757812 C193.51683594 206.59710938 193.52585938 205.42664063 193.53515625 204.22070312 C193.55255859 202.88265625 193.55255859 202.88265625 193.5703125 201.51757812 C191.9203125 201.51757812 190.2703125 201.51757812 188.5703125 201.51757812 C188.3640625 202.81695312 188.1578125 204.11632812 187.9453125 205.45507812 C186.07208497 213.79945529 180.33966533 221.36363904 173.5703125 226.51757812 C162.96916004 232.33014183 152.34228989 234.54445184 140.3828125 231.45507812 C130.34140493 227.95036607 122.19529282 220.84521692 117.4765625 211.30664062 C116.09221962 207.85860141 115.5703125 205.2576114 115.5703125 201.51757812 C111.9403125 201.51757812 108.3103125 201.51757812 104.5703125 201.51757812 C104.3640625 202.81695312 104.1578125 204.11632812 103.9453125 205.45507812 C102.07208497 213.79945529 96.33966533 221.36363904 89.5703125 226.51757812 C78.96916004 232.33014183 68.34228989 234.54445184 56.3828125 231.45507812 C46.34140493 227.95036607 38.19529282 220.84521692 33.4765625 211.30664062 C32.09221962 207.85860141 31.5703125 205.2576114 31.5703125 201.51757812 C30.53624268 201.53852539 29.50217285 201.55947266 28.43676758 201.58105469 C24.58843922 201.65363101 20.74017096 201.6994413 16.89135742 201.73730469 C15.22784237 201.7573802 13.56439754 201.78464689 11.90112305 201.81933594 C9.5055201 201.86803579 7.11085258 201.89058668 4.71484375 201.90820312 C3.60517998 201.93917084 3.60517998 201.93917084 2.47309875 201.97076416 C-0.98587795 201.97225633 -3.31182874 201.57830969 -6.39941406 199.98730469 C-9.15179947 196.63916486 -9.1337668 193.76391849 -9.05859375 189.61132812 C-9.06100571 188.84961304 -9.06341766 188.08789795 -9.06590271 187.30310059 C-9.06492517 185.69599185 -9.05155344 184.08884907 -9.02661133 182.48193359 C-8.99229398 180.02520105 -9.00595445 177.57206558 -9.02539062 175.11523438 C-9.0184919 173.55141702 -9.00881927 171.98760892 -8.99609375 170.42382812 C-9.00105362 169.69143921 -9.00601349 168.95905029 -9.01112366 168.20446777 C-8.93555169 164.92361106 -8.7614436 162.9417776 -6.71159363 160.32073975 C-3.99873126 158.17703662 -2.79975056 158.02899163 0.61425781 158.06347656 C1.61499329 158.06377869 2.61572876 158.06408081 3.64678955 158.06439209 C4.71983337 158.08503723 5.7928772 158.10568237 6.8984375 158.12695312 C8.55465118 158.13544281 8.55465118 158.13544281 10.24432373 158.144104 C13.77009476 158.16649045 17.29484874 158.21669316 20.8203125 158.26757812 C23.21092282 158.2876401 25.60154908 158.30589139 27.9921875 158.32226562 C33.85195424 158.36636303 39.71096095 158.43540815 45.5703125 158.51757812 C45.5703125 155.21757812 45.5703125 151.91757812 45.5703125 148.51757812 C44.07661133 148.53852539 42.58291016 148.55947266 41.04394531 148.58105469 C35.50530575 148.653422 29.96670802 148.69936651 24.42773438 148.73730469 C22.02987644 148.75742748 19.63206762 148.78472872 17.234375 148.81933594 C13.78893927 148.86782303 10.34415198 148.89054053 6.8984375 148.90820312 C5.28887177 148.93917084 5.28887177 148.93917084 3.64678955 148.97076416 C2.14568634 148.97121735 2.14568634 148.97121735 0.61425781 148.97167969 C-0.26510437 148.98056213 -1.14446655 148.98944458 -2.05047607 148.99859619 C-5.30028607 148.3415645 -6.36072922 147.07817014 -8.4296875 144.51757812 C-8.93305206 141.85012817 -8.93305206 141.85012817 -8.93762207 138.74853516 C-8.95454102 136.98198578 -8.95454102 136.98198578 -8.97180176 135.17974854 C-8.96370483 133.89131042 -8.95560791 132.60287231 -8.94726562 131.27539062 C-8.95268698 129.90199033 -8.95980971 128.52859586 -8.96850586 127.1552124 C-8.98674105 123.42788179 -8.97967119 119.70099405 -8.96698952 115.9736557 C-8.95686273 112.07308254 -8.96625429 108.17254731 -8.97253418 104.27197266 C-8.97981155 97.72161043 -8.97022064 91.17142859 -8.95117188 84.62109375 C-8.92940282 77.04787044 -8.93645414 69.47507787 -8.9584775 61.90186501 C-8.97662906 55.39982732 -8.97919106 48.89791932 -8.96872282 42.39586449 C-8.96248649 38.51239333 -8.96165593 34.62912465 -8.97486877 30.7456665 C-8.98642327 27.09458502 -8.9784097 23.44405889 -8.95529175 19.79303741 C-8.94747906 17.81383528 -8.95936402 15.83458619 -8.97180176 13.85540771 C-8.96052246 12.67770813 -8.94924316 11.50000854 -8.93762207 10.28662109 C-8.93611397 9.2630954 -8.93460587 8.2395697 -8.93305206 7.18502808 C-7.99217321 2.1990846 -4.9157238 0.02056461 0 0 Z M375.5703125 52.51757812 C375.5703125 96.40757812 375.5703125 140.29757812 375.5703125 185.51757812 C382.5003125 185.51757812 389.4303125 185.51757812 396.5703125 185.51757812 C397.8903125 182.54757812 399.2103125 179.57757813 400.5703125 176.51757812 C405.27957615 168.30621418 412.84259935 162.64328284 421.9296875 159.99023438 C433.11098932 157.98884751 443.28405418 159.16429859 453.03515625 164.99023438 C460.5333876 170.26769171 464.22145363 177.14543095 467.5703125 185.51757812 C474.1703125 185.51757812 480.7703125 185.51757812 487.5703125 185.51757812 C487.5703125 179.24757813 487.5703125 172.97757812 487.5703125 166.51757812 C484.2703125 166.18757813 480.9703125 165.85757813 477.5703125 165.51757812 C476.07946418 161.04503316 476.07946418 156.99012309 477.5703125 152.51757812 C482.5203125 152.02257812 482.5203125 152.02257812 487.5703125 151.51757812 C487.5703125 135.34757812 487.5703125 119.17757812 487.5703125 102.51757812 C482.79175781 102.48019531 478.01320313 102.4428125 473.08984375 102.40429688 C470.05920899 102.37401417 467.02863275 102.34286451 463.99804688 102.30859375 C459.18972748 102.25430237 454.38152385 102.20319126 449.57299805 102.17114258 C445.69541946 102.14509752 441.81823038 102.10468711 437.94089317 102.05439186 C436.46300801 102.03773118 434.98505548 102.0262119 433.50708961 102.01996422 C431.43375626 102.01031398 429.36141754 101.98224643 427.28833008 101.94995117 C426.10918533 101.93884811 424.93004059 101.92774506 423.71516418 101.91630554 C420.23319247 101.47483557 418.36035565 100.61473806 415.5703125 98.51757812 C412.90321876 94.35083608 412.18741616 91.10588862 412.171875 86.20117188 C412.16800781 85.02490234 412.16414063 83.84863281 412.16015625 82.63671875 C412.17175781 81.42177734 412.18335938 80.20683594 412.1953125 78.95507812 C412.18371094 77.73626953 412.17210937 76.51746094 412.16015625 75.26171875 C412.16402344 74.08673828 412.16789062 72.91175781 412.171875 71.70117188 C412.17525879 70.63439209 412.17864258 69.5676123 412.18212891 68.46850586 C412.81506718 63.65698078 414.58749563 61.34978336 418.25634766 58.24316406 C422.12879888 56.22677352 425.32648609 55.91555913 429.59375 55.90820312 C430.33992584 55.89166687 431.08610168 55.87513062 431.85488892 55.85809326 C434.218449 55.80983522 436.58136685 55.78829336 438.9453125 55.76757812 C440.55602151 55.73939962 442.16670089 55.70946957 443.77734375 55.67773438 C447.70828038 55.60408322 451.63886515 55.55437399 455.5703125 55.51757812 C454.5803125 54.03257812 454.5803125 54.03257812 453.5703125 52.51757812 C451.02645241 52.23093832 448.72774677 52.13903883 446.18310547 52.17700195 C445.40971392 52.17664035 444.63632236 52.17627874 443.83949471 52.17590618 C441.33023525 52.17814956 438.82164021 52.20101373 436.3125 52.22460938 C434.76570966 52.22901893 433.21891485 52.23208026 431.67211914 52.23376465 C425.9297821 52.24950835 420.18754081 52.29139186 414.4453125 52.33007812 C401.6165625 52.39195312 388.7878125 52.45382813 375.5703125 52.51757812 Z M427.5703125 71.51757812 C427.5703125 76.46757812 427.5703125 81.41757813 427.5703125 86.51757812 C445.0603125 86.51757812 462.5503125 86.51757812 480.5703125 86.51757812 C479.2503125 84.53757812 477.9303125 82.55757812 476.5703125 80.51757812 C476.18480225 79.68105713 475.79929199 78.84453613 475.40209961 77.98266602 C473.76431353 74.94308701 472.47318041 73.44409683 469.5703125 71.51757812 C462.60105016 69.96724495 455.21027112 70.67710795 448.1328125 70.95507812 C446.14136606 71.00025363 444.14982172 71.04131286 442.15820312 71.078125 C437.29314764 71.17699826 432.43280545 71.3321078 427.5703125 71.51757812 Z M354.5703125 81.51757812 C354.5703125 95.70757812 354.5703125 109.89757812 354.5703125 124.51757812 C356.2203125 124.51757812 357.8703125 124.51757812 359.5703125 124.51757812 C359.5703125 110.32757813 359.5703125 96.13757813 359.5703125 81.51757812 C357.9203125 81.51757812 356.2703125 81.51757812 354.5703125 81.51757812 Z M61.5703125 148.51757812 C61.5703125 151.81757813 61.5703125 155.11757813 61.5703125 158.51757812 C126.9103125 158.51757812 192.2503125 158.51757812 259.5703125 158.51757812 C259.5703125 155.21757812 259.5703125 151.91757812 259.5703125 148.51757812 C194.2303125 148.51757812 128.8903125 148.51757812 61.5703125 148.51757812 Z M6.5703125 174.51757812 C6.5703125 178.14757812 6.5703125 181.77757812 6.5703125 185.51757812 C15.1503125 185.51757812 23.7303125 185.51757812 32.5703125 185.51757812 C33.8903125 181.88757813 35.2103125 178.25757813 36.5703125 174.51757812 C26.6703125 174.51757812 16.7703125 174.51757812 6.5703125 174.51757812 Z M51.1953125 181.89257812 C47.51954482 186.59716121 46.02498938 191.26271946 46.1875 197.29882812 C47.15667902 202.91611059 50.0038046 207.90984633 53.9453125 211.95507812 C60.14486501 215.64528795 65.37707778 217.60896546 72.5703125 216.51757812 C79.55299293 214.37690237 83.95833693 209.76651099 87.7109375 203.66210938 C89.68288694 198.74119917 89.45967864 192.42000056 87.91796875 187.38867188 C84.97509238 181.74289618 79.46396835 176.907783 73.5703125 174.51757812 C64.43662372 173.29786192 57.47031077 175.07324266 51.1953125 181.89257812 Z M98.5703125 174.51757812 C100.2203125 178.14757812 101.8703125 181.77757812 103.5703125 185.51757812 C107.8603125 185.51757812 112.1503125 185.51757812 116.5703125 185.51757812 C117.8903125 181.88757813 119.2103125 178.25757813 120.5703125 174.51757812 C113.3103125 174.51757812 106.0503125 174.51757812 98.5703125 174.51757812 Z M135.7578125 181.26757812 C131.62414036 187.40903387 129.78090088 192.53328068 130.8828125 199.99414062 C132.40567368 205.58373338 135.17580447 209.78054518 139.875 213.18945312 C145.33297542 216.21599401 150.3689386 217.70626824 156.5703125 216.51757812 C163.55987071 214.33734896 167.93404842 209.78238759 171.71484375 203.66601562 C173.87711763 198.23564743 173.25231213 191.49178757 171.3828125 186.08007812 C167.80377156 181.02005473 163.52828646 176.6078992 157.5703125 174.51757812 C148.67714818 173.20154932 142.15477952 175.01276593 135.7578125 181.26757812 Z M183.5703125 174.51757812 C185.31478753 180.12342003 185.31478753 180.12342003 187.5703125 185.51757812 C215.6203125 185.51757812 243.6703125 185.51757812 272.5703125 185.51757812 C276.70569199 177.85445058 276.70569199 177.85445058 276.5703125 174.51757812 C245.8803125 174.51757812 215.1903125 174.51757812 183.5703125 174.51757812 Z M292.81640625 180.35351562 C288.55829929 185.70949594 286.30308258 190.39278946 286.5703125 197.33007812 C287.34482562 203.10846816 289.50783278 207.3399674 293.5703125 211.51757812 C298.70675693 215.2436768 304.02157397 217.36665524 310.4140625 216.92773438 C318.11115804 215.46361294 323.22992678 210.88427652 327.5703125 204.51757812 C330.0999004 198.61520635 329.85910628 193.42814668 327.88671875 187.44335938 C325.48630186 181.84238662 321.76341886 178.59931886 316.5703125 175.51757812 C308.1241083 172.70217673 299.0791111 173.79790031 292.81640625 180.35351562 Z M339.5703125 174.51757812 C340.8040962 178.21892923 342.12130703 181.89506444 343.5703125 185.51757812 C348.8503125 185.51757812 354.1303125 185.51757812 359.5703125 185.51757812 C359.5703125 181.88757813 359.5703125 178.25757813 359.5703125 174.51757812 C352.9703125 174.51757812 346.3703125 174.51757812 339.5703125 174.51757812 Z M209.5703125 201.51757812 C209.5703125 203.16757812 209.5703125 204.81757813 209.5703125 206.51757812 C222.1103125 206.51757812 234.6503125 206.51757812 247.5703125 206.51757812 C247.5703125 204.86757813 247.5703125 203.21757812 247.5703125 201.51757812 C235.0303125 201.51757812 222.4903125 201.51757812 209.5703125 201.51757812 Z " fill="#000000" transform="translate(8.4296875,139.482421875)"/>
<path d="M0 0 C4.10518073 0.85524599 5.41363835 2.34785459 8 5.625 C8.48978511 8.5887775 8.67597905 10.97444757 8.63110352 13.93188477 C8.63825882 14.75524323 8.64541412 15.57860168 8.65278625 16.4269104 C8.66965558 19.14064502 8.65028363 21.85272366 8.62890625 24.56640625 C8.62973504 26.45539995 8.63219478 28.34439358 8.63621521 30.23338318 C8.63907189 34.18860632 8.62438333 38.14326276 8.59692383 42.09838867 C8.56281787 47.16846811 8.56886821 52.23753584 8.5875864 57.30766392 C8.59815308 61.20676612 8.589222 65.10563276 8.57420158 69.00471306 C8.56901844 70.87421914 8.56950319 72.7437498 8.57574654 74.61325264 C8.5811957 77.22521028 8.56083518 79.83571741 8.53344727 82.44750977 C8.53997314 83.22008621 8.54649902 83.99266266 8.55322266 84.78865051 C8.49015075 88.3251698 8.28109849 90.26033053 6.09165955 93.10069275 C3.83724363 94.74360951 2.75933104 95.19288932 0 95.1875 C-0.99 95.22037109 -0.99 95.22037109 -2 95.25390625 C-5.20544538 94.24594393 -6.20740455 92.41781683 -8 89.625 C-8.39225337 86.76189577 -8.55800935 84.28487578 -8.53344727 81.42578125 C-8.54206284 80.61378265 -8.55067841 79.80178406 -8.55955505 78.96517944 C-8.58220356 76.28895934 -8.57547896 73.61378725 -8.56640625 70.9375 C-8.57164206 69.07332041 -8.57791839 67.20914347 -8.58518982 65.3449707 C-8.59559173 61.44111652 -8.59103516 57.53762691 -8.57641602 53.63378906 C-8.55922174 48.63320591 -8.58273224 43.63377108 -8.61790562 38.63331604 C-8.63987389 34.7847941 -8.63843966 30.93654723 -8.6301403 27.08798218 C-8.6293206 25.24440246 -8.6361877 23.40080259 -8.65091133 21.55728149 C-8.66834876 18.97887713 -8.6538236 16.40254022 -8.63110352 13.82421875 C-8.64279572 13.06458832 -8.65448792 12.30495789 -8.66653442 11.52230835 C-8.59561968 7.56332954 -8.13436174 5.7948636 -5.64805603 2.65161133 C-3 0.625 -3 0.625 0 0 Z " fill="#000000" transform="translate(145,166.375)"/>
<path d="M0 0 C4.1016208 0.85450433 5.41288058 2.35429642 8 5.625 C8.48997587 8.55507211 8.67610096 10.90077989 8.63110352 13.82421875 C8.63825882 14.63621735 8.64541412 15.44821594 8.65278625 16.28482056 C8.66965576 18.96129101 8.65028197 21.63608226 8.62890625 24.3125 C8.62973511 26.17667784 8.63219516 28.04085561 8.63621521 29.9050293 C8.63907201 33.80898071 8.62438367 37.71235803 8.59692383 41.61621094 C8.56284118 46.61669438 8.56886034 51.61615138 8.5875864 56.61668396 C8.59816236 60.46521538 8.58921316 64.31350855 8.57420158 68.16201782 C8.56902369 70.00557752 8.56949682 71.84916213 8.57574654 73.69271851 C8.581206 76.27094899 8.56080136 78.84771743 8.53344727 81.42578125 C8.53997314 82.18541168 8.54649902 82.94504211 8.55322266 83.72769165 C8.4649945 88.62594293 7.52564523 91.20488313 4 94.625 C2 95.2890625 2 95.2890625 0 95.25 C-0.66 95.26289063 -1.32 95.27578125 -2 95.2890625 C-5.18604185 94.23119704 -6.2052019 92.41918198 -8 89.625 C-8.39225337 86.76189577 -8.55800935 84.28487578 -8.53344727 81.42578125 C-8.54206284 80.61378265 -8.55067841 79.80178406 -8.55955505 78.96517944 C-8.58220356 76.28895934 -8.57547896 73.61378725 -8.56640625 70.9375 C-8.57164206 69.07332041 -8.57791839 67.20914347 -8.58518982 65.3449707 C-8.59559173 61.44111652 -8.59103516 57.53762691 -8.57641602 53.63378906 C-8.55922174 48.63320591 -8.58273224 43.63377108 -8.61790562 38.63331604 C-8.63987389 34.7847941 -8.63843966 30.93654723 -8.6301403 27.08798218 C-8.6293206 25.24440246 -8.6361877 23.40080259 -8.65091133 21.55728149 C-8.66834876 18.97887713 -8.6538236 16.40254022 -8.63110352 13.82421875 C-8.64279572 13.06458832 -8.65448792 12.30495789 -8.66653442 11.52230835 C-8.59561968 7.56332954 -8.13436174 5.7948636 -5.64805603 2.65161133 C-3 0.625 -3 0.625 0 0 Z " fill="#000000" transform="translate(240,166.375)"/>
<path d="M0 0 C2.05938216 1.57885966 2.84571211 2.69142423 4 5 C4.10859308 7.56702753 4.15731443 10.10734038 4.16113281 12.67504883 C4.16609772 13.4671022 4.17106262 14.25915558 4.17617798 15.07521057 C4.19081456 17.70249289 4.19760448 20.32971481 4.203125 22.95703125 C4.20887572 24.78065493 4.21463347 26.60427859 4.22039795 28.42790222 C4.23091254 32.25540448 4.23675204 36.08288571 4.24023438 39.91040039 C4.2457166 44.81323877 4.26973686 49.71579909 4.29820633 54.6185503 C4.31683804 58.38723052 4.32203862 62.15584388 4.32357025 65.92456627 C4.32659668 67.73186448 4.3346249 69.53916152 4.34775543 71.34641457 C4.36482532 73.87674668 4.36293339 76.40640112 4.35644531 78.93676758 C4.3656601 79.68240967 4.37487488 80.42805176 4.3843689 81.19628906 C4.34875513 85.63393782 3.74490542 88.47442357 1 92 C-2.09173752 93.54586876 -4.59429552 93.29359521 -8 93 C-10.19322205 91.49829102 -10.19322205 91.49829102 -12 89 C-12.39972204 86.11158196 -12.55750292 83.60297017 -12.53344727 80.71484375 C-12.54206284 79.88187775 -12.55067841 79.04891174 -12.55955505 78.19070435 C-12.5822446 75.43931951 -12.5754713 72.68895065 -12.56640625 69.9375 C-12.57164028 68.02465512 -12.57791595 66.11181282 -12.58518982 64.19897461 C-12.59559935 60.19079439 -12.59102426 56.18296907 -12.57641602 52.17480469 C-12.55922161 47.0362223 -12.58272855 41.89875737 -12.61790562 36.76029968 C-12.63985613 32.81059345 -12.63844394 28.86115562 -12.6301403 24.91140747 C-12.62931961 23.01676202 -12.63620562 21.1220971 -12.65091133 19.22750854 C-12.66831559 16.57935687 -12.65385084 13.93322624 -12.63110352 11.28515625 C-12.64279572 10.50165802 -12.65448792 9.71815979 -12.66653442 8.91091919 C-12.59942877 5.07497507 -12.31946308 3.34830974 -9.68711853 0.47827148 C-6.02023451 -1.53900093 -3.97346269 -1.10373964 0 0 Z " fill="#000000" transform="translate(102,168)"/>
<path d="M0 0 C2.72101991 2.47229488 2.99861276 3.98682812 3.38768005 7.68103027 C3.40851637 9.18500555 3.412799 10.6892652 3.40405273 12.19335938 C3.41091599 13.01657181 3.41777924 13.83978424 3.42485046 14.6879425 C3.44313903 17.40672086 3.43927849 20.12492338 3.43359375 22.84375 C3.43815422 24.73417346 3.44345939 26.62459527 3.44947815 28.51501465 C3.45841302 32.47606138 3.45598143 36.43690653 3.44604492 40.39794922 C3.43454841 45.47584538 3.45477521 50.55304686 3.48396206 55.63085175 C3.50229995 59.53420435 3.50203653 63.43738968 3.49632454 67.34077454 C3.49617106 69.21308874 3.5022371 71.08541409 3.51461601 72.95768738 C3.52948074 75.57444992 3.5188833 78.18991881 3.50170898 80.80664062 C3.51137695 81.58078812 3.52104492 82.35493561 3.53100586 83.15254211 C3.4831218 86.63361278 3.26824641 88.63422931 1.18348694 91.47692871 C-2.06172856 93.74059902 -4.13883334 93.60965789 -8 93 C-11.61181325 90.27056706 -12.86709662 88.79525354 -13.62145996 84.28137207 C-13.64494862 82.81862786 -13.64109167 81.35528238 -13.61523438 79.89257812 C-13.62078339 79.0903331 -13.6263324 78.28808807 -13.63204956 77.46153259 C-13.64383195 74.81749176 -13.61958635 72.1751702 -13.59375 69.53125 C-13.59203844 67.68949461 -13.59210504 65.84773678 -13.59387207 64.00598145 C-13.59221963 60.14909507 -13.57353578 56.29279049 -13.54199219 52.43603516 C-13.5023148 47.49620073 -13.49794742 42.55712814 -13.50545502 37.61716461 C-13.50852691 33.81497234 -13.4963964 30.01295083 -13.47932434 26.21080017 C-13.47230103 24.38957287 -13.469169 22.56832622 -13.47001648 20.74708557 C-13.46821551 18.20017631 -13.44680871 15.65417398 -13.41992188 13.10742188 C-13.42285248 12.35714218 -13.42578308 11.60686249 -13.42880249 10.83384705 C-13.35689171 6.41127 -12.80812738 3.47502926 -10 0 C-6.20519658 -1.26493447 -3.87641726 -0.89988258 0 0 Z " fill="#000000" transform="translate(55,168)"/>
<path d="M0 0 C4.68330778 1.08719645 4.68330778 1.08719645 6.5 3.8125 C6.8013413 6.60977798 6.92005953 9.18541317 6.90405273 11.98413086 C6.91091599 12.81695084 6.91777924 13.64977081 6.92485046 14.50782776 C6.9431719 17.26450587 6.93927334 20.02061774 6.93359375 22.77734375 C6.93815311 24.69161668 6.94345795 26.60588797 6.94947815 28.52015686 C6.95841984 32.53425745 6.95597425 36.54815921 6.94604492 40.56225586 C6.93455605 45.70855875 6.95476009 50.85417543 6.98396206 56.00038815 C7.00230121 59.95435452 7.00203613 63.90815578 6.99632454 67.86215401 C6.99617103 69.75958786 7.00223954 71.6570327 7.01461601 73.55442619 C7.02948058 76.20721444 7.01888276 78.85872653 7.00170898 81.51147461 C7.01137695 82.29654388 7.02104492 83.08161316 7.03100586 83.89047241 C6.98348131 87.3930537 6.77647453 89.43307512 4.68739319 92.30006409 C1.47767235 94.51937111 -0.69338865 94.35630162 -4.5 93.8125 C-7.40717073 91.59386971 -8.33981643 90.29305071 -9.5 86.8125 C-9.6061949 84.26864528 -9.65723364 81.75178056 -9.66113281 79.20751953 C-9.66609772 78.43482727 -9.67106262 77.66213501 -9.67617798 76.86602783 C-9.69078638 74.30911367 -9.69759916 71.75226154 -9.703125 69.1953125 C-9.70887726 67.41795856 -9.71463499 65.64060464 -9.72039795 63.86325073 C-9.73090398 60.13588166 -9.73674934 56.40853414 -9.74023438 52.68115234 C-9.74572021 47.90725496 -9.76975177 43.13364263 -9.79820633 38.35983467 C-9.81683792 34.68809173 -9.82203857 31.01641741 -9.82357025 27.3446312 C-9.82659581 25.58478104 -9.8346211 23.82493207 -9.84775543 22.06512833 C-9.86482802 19.60195518 -9.86293299 17.13947799 -9.85644531 14.67626953 C-9.8656601 13.95089996 -9.87487488 13.2255304 -9.8843689 12.47817993 C-9.84810442 8.07844017 -9.22088662 5.29855184 -6.5 1.8125 C-3.5 -0.1875 -3.5 -0.1875 0 0 Z " fill="#000000" transform="translate(288.5,167.1875)"/>
<path d="M0 0 C2.820126 1.9740882 3.38661353 3.69397035 4 7 C4.10394528 9.54589136 4.1571517 12.06481204 4.16113281 14.61083984 C4.16609772 15.37231827 4.17106262 16.13379669 4.17617798 16.91835022 C4.19075968 19.43255524 4.19759454 21.94669718 4.203125 24.4609375 C4.20887925 26.21204632 4.21463695 27.96315512 4.22039795 29.71426392 C4.23089624 33.38438205 4.23674673 37.05447835 4.24023438 40.72460938 C4.24572002 45.42103232 4.26975444 50.11716548 4.29820633 54.81349754 C4.31685362 58.43037758 4.3220394 62.04718805 4.32357025 65.66411209 C4.32659202 67.39522513 4.33460449 69.12633708 4.34775543 70.8574028 C4.36486171 73.28194849 4.36292487 75.7057891 4.35644531 78.13037109 C4.3656601 78.8412236 4.37487488 79.55207611 4.3843689 80.2844696 C4.34579035 84.90618633 3.44501237 88.07838042 1 92 C-2.09173752 93.54586876 -4.59429552 93.29359521 -8 93 C-10.19322205 91.49829102 -10.19322205 91.49829102 -12 89 C-12.39972204 86.11158196 -12.55750292 83.60297017 -12.53344727 80.71484375 C-12.54206284 79.88187775 -12.55067841 79.04891174 -12.55955505 78.19070435 C-12.5822446 75.43931951 -12.5754713 72.68895065 -12.56640625 69.9375 C-12.57164028 68.02465512 -12.57791595 66.11181282 -12.58518982 64.19897461 C-12.59559935 60.19079439 -12.59102426 56.18296907 -12.57641602 52.17480469 C-12.55922161 47.0362223 -12.58272855 41.89875737 -12.61790562 36.76029968 C-12.63985613 32.81059345 -12.63844394 28.86115562 -12.6301403 24.91140747 C-12.62931961 23.01676202 -12.63620562 21.1220971 -12.65091133 19.22750854 C-12.66831559 16.57935687 -12.65385084 13.93322624 -12.63110352 11.28515625 C-12.64279572 10.50165802 -12.65448792 9.71815979 -12.66653442 8.91091919 C-12.59942877 5.07497507 -12.31946308 3.34830974 -9.68711853 0.47827148 C-6.02023451 -1.53900093 -3.97346269 -1.10373964 0 0 Z " fill="#000000" transform="translate(197,168)"/>
<path d="M0 0 C2.13708205 1.60898094 2.9005582 2.47061865 3.3984375 5.12109375 C3.36322947 8.60082046 3.31676326 11.29608166 1.875 14.5 C-0.77510618 16.62008495 -2.62133951 16.93242679 -6 17 C-9.52906067 15.39588152 -10.82772908 14.25840638 -13 11 C-13.32997475 7.12279666 -13.30077936 4.2210911 -11 1 C-7.4367155 -1.7714435 -4.20758349 -0.99451973 0 0 Z " fill="#000000" transform="translate(165,327)"/>
<path d="M0 0 C2.13708205 1.60898094 2.9005582 2.47061865 3.3984375 5.12109375 C3.36322947 8.60082046 3.31676326 11.29608166 1.875 14.5 C-0.77510618 16.62008495 -2.62133951 16.93242679 -6 17 C-9.52906067 15.39588152 -10.82772908 14.25840638 -13 11 C-13.32997475 7.12279666 -13.30077936 4.2210911 -11 1 C-7.4367155 -1.7714435 -4.20758349 -0.99451973 0 0 Z " fill="#000000" transform="translate(81,327)"/>
<path d="M0 0 C2.28693467 1.68873185 2.92344568 2.54367622 3.3984375 5.375 C3.39070313 6.24125 3.38296875 7.1075 3.375 8 C3.38273437 8.86625 3.39046875 9.7325 3.3984375 10.625 C2.92525323 13.4455494 2.26282479 14.30288141 0 16 C-3.56317503 17.08444457 -5.30293543 17.30100515 -8.75 15.8125 C-11.16567053 13.86654318 -12.17329884 12.97612417 -13 10 C-12.92526438 5.81480553 -12.60878514 3.71621781 -9.875 0.5 C-6.08386986 -1.47798094 -4.07202027 -1.13111674 0 0 Z " fill="#000000" transform="translate(445,327)"/>
<path d="M0 0 C2.28693467 1.68873185 2.92344568 2.54367622 3.3984375 5.375 C3.39070313 6.24125 3.38296875 7.1075 3.375 8 C3.38273437 8.86625 3.39046875 9.7325 3.3984375 10.625 C2.92525323 13.4455494 2.26282479 14.30288141 0 16 C-3.56317503 17.08444457 -5.30293543 17.30100515 -8.75 15.8125 C-11.16567053 13.86654318 -12.17329884 12.97612417 -13 10 C-12.92526438 5.81480553 -12.60878514 3.71621781 -9.875 0.5 C-6.08386986 -1.47798094 -4.07202027 -1.13111674 0 0 Z " fill="#000000" transform="translate(321,327)"/>
</svg>
