<?xml version="1.0" encoding="UTF-8"?>
<svg version="1.1" xmlns="http://www.w3.org/2000/svg" width="512" height="512">
<path d="M0 0 C1.3022049 -0.01260864 2.60440979 -0.02521729 3.94607544 -0.03820801 C5.35712221 -0.0310432 6.76816403 -0.02283798 8.17919922 -0.01367188 C9.64403541 -0.01637105 11.10886985 -0.02025699 12.57369995 -0.02526855 C15.64191773 -0.03115488 18.70966872 -0.02263677 21.77783203 -0.00390625 C25.67795058 0.01876239 29.57696049 0.00583312 33.47703743 -0.01819611 C36.50403907 -0.03278207 39.53078637 -0.02798824 42.55779648 -0.01768494 C43.99366263 -0.01504644 45.4295531 -0.01818415 46.86539078 -0.02760315 C62.74990822 -0.10887825 74.40505666 3.9713824 86.10888672 14.83007812 C96.62051229 25.9119098 99.56201749 39.15365826 99.45654297 53.95507812 C99.45442055 55.10339111 99.45442055 55.10339111 99.45225525 56.27490234 C99.44671525 58.68916955 99.43417451 61.10333956 99.42138672 63.51757812 C99.41636394 65.16731636 99.41180241 66.81705606 99.40771484 68.46679688 C99.39676558 72.48376067 99.37954337 76.50065299 99.35888672 80.51757812 C100.31822868 80.50425446 100.31822868 80.50425446 101.29695129 80.49066162 C107.99743649 80.40166601 114.69775178 80.34162846 121.39868164 80.29785156 C123.89419381 80.27782674 126.3896596 80.25059871 128.88500977 80.21582031 C132.48709613 80.16690043 136.08855818 80.144517 139.69091797 80.12695312 C140.79345413 80.10630798 141.8959903 80.08566284 143.03193665 80.06439209 C152.39285921 80.06172469 160.50055045 82.42583595 168.54638672 87.26757812 C169.28244141 87.69554687 170.01849609 88.12351562 170.77685547 88.56445312 C177.85864504 93.92132875 183.0208937 100.44563815 187.78076172 107.86914062 C188.6489151 109.19630348 188.6489151 109.19630348 189.53460693 110.55027771 C191.40176062 113.40859041 193.25547882 116.27533745 195.10888672 119.14257812 C197.04730787 122.1202766 198.98868168 125.09603603 200.93017578 128.07173157 C202.22497108 130.0568764 203.51859393 132.04278645 204.81103516 134.02946472 C208.66862574 139.9539174 212.56901923 145.8458893 216.53076172 151.70117188 C216.99383728 152.38711426 217.45691284 153.07305664 217.934021 153.77978516 C219.6473105 156.31627752 221.36063852 158.85256265 223.09020996 161.37799072 C236.12721015 180.42244595 239.99171353 197.18632237 239.89013672 219.89257812 C239.89283671 222.03296077 239.89672333 224.17334222 239.9017334 226.3137207 C239.90759438 230.77160467 239.89916901 235.22916561 239.88037109 239.68701172 C239.85747234 245.3944233 239.87079523 251.10108685 239.89466095 256.80847168 C239.90911648 261.21630494 239.90451591 265.6239607 239.89414978 270.03179932 C239.89148758 272.13690277 239.89473437 274.24202249 239.90406799 276.34710693 C239.91424166 279.2832724 239.89872565 282.2182219 239.87646484 285.15429688 C239.88456177 286.01775223 239.89265869 286.88120758 239.90100098 287.77082825 C239.82531719 293.16691362 238.93101031 296.23013087 235.35888672 300.51757812 C230.36957375 304.91577491 226.35412948 305.06307359 220.02294922 304.90820312 C219.14359711 304.90254333 218.264245 304.89688354 217.35824585 304.89105225 C214.5662249 304.86876896 211.7755158 304.81858876 208.98388672 304.76757812 C207.08416575 304.74750267 205.18442454 304.72925373 203.28466797 304.71289062 C198.64224006 304.66893069 194.00078535 304.59995994 189.35888672 304.51757812 C189.1598172 305.13282349 188.96074768 305.74806885 188.75564575 306.38195801 C188.4908139 307.19048218 188.22598206 307.99900635 187.953125 308.83203125 C187.69218048 309.63290161 187.43123596 310.43377197 187.16238403 311.25891113 C182.67769167 323.86558252 172.0683093 333.65392834 160.35888672 339.51757812 C147.22599402 345.41320765 131.50781709 347.32091435 117.54638672 342.83007812 C115.79594296 342.10886524 114.0634439 341.34140226 112.35888672 340.51757812 C111.57900391 340.16695313 110.79912109 339.81632812 109.99560547 339.45507812 C95.48479945 332.23726788 87.43088944 320.09038466 81.35888672 305.51757812 C48.35888672 305.18757813 15.35888672 304.85757812 -18.64111328 304.51757812 C-20.12611328 308.97257813 -20.12611328 308.97257813 -21.64111328 313.51757812 C-29.36443346 328.72411526 -41.73022932 338.07438098 -57.64111328 343.51757812 C-69.32396656 346.89937513 -84.80230632 345.75604763 -95.64111328 340.51757812 C-96.42099609 340.16695313 -97.20087891 339.81632812 -98.00439453 339.45507812 C-109.71416312 333.63053002 -119.47194854 323.30051478 -124.34033203 311.22460938 C-124.77563232 310.15315674 -125.21093262 309.0817041 -125.65942383 307.9777832 C-125.98338135 307.16591553 -126.30733887 306.35404785 -126.64111328 305.51757812 C-127.87244995 305.50355957 -127.87244995 305.50355957 -129.12866211 305.48925781 C-132.2285982 305.44475799 -135.32761281 305.38293237 -138.42700195 305.31005859 C-140.40634563 305.26856892 -142.38606359 305.24635301 -144.36572266 305.22460938 C-158.75164347 304.86040885 -171.28354516 300.43960573 -181.39111328 289.89257812 C-189.57526312 280.27439141 -193.93515892 269.27902143 -193.94750977 256.66796875 C-193.95583328 255.92862595 -193.9641568 255.18928314 -193.97273254 254.42753601 C-193.99661787 252.00957823 -194.00557599 249.59189095 -194.01220703 247.17382812 C-194.02118646 245.47806729 -194.03030852 243.7823072 -194.03956604 242.08654785 C-194.05599788 238.54286786 -194.06374609 234.99928174 -194.06665039 231.45556641 C-194.07204245 226.92959481 -194.10978085 222.40451214 -194.15539455 217.87879181 C-194.1852219 214.38019629 -194.1923751 210.88181401 -194.19337654 207.38310242 C-194.19756398 205.71502084 -194.20993866 204.04693775 -194.23089409 202.37898254 C-194.41251931 186.68001125 -194.41251931 186.68001125 -189.95326233 180.8508606 C-187.04688283 177.89767105 -184.80604559 176.67558756 -180.70361328 176.11914062 C-179.69298828 176.126875 -178.68236328 176.13460937 -177.64111328 176.14257812 C-176.63048828 176.13484375 -175.61986328 176.12710938 -174.57861328 176.11914062 C-169.93615122 176.74883628 -166.79140861 178.9016255 -163.89111328 182.51757812 C-160.57251405 186.9423771 -160.51429943 189.95063599 -160.49926758 195.35644531 C-160.49579315 196.04789642 -160.49231873 196.73934753 -160.48873901 197.45175171 C-160.48139082 198.95279894 -160.47604045 200.45385698 -160.47244835 201.95491791 C-160.46527091 204.3347194 -160.44959393 206.71431612 -160.43110657 209.09405518 C-160.37870403 215.86020056 -160.33068913 222.62623426 -160.31518555 229.39257812 C-160.30507722 233.5330079 -160.27568002 237.67292264 -160.23386574 241.8131485 C-160.22159006 243.38707831 -160.2164282 244.96108098 -160.21866417 246.53505707 C-160.22102986 248.74430341 -160.19875766 250.95208519 -160.17114258 253.16113281 C-160.16527634 254.41561218 -160.1594101 255.67009155 -160.15336609 256.96258545 C-159.40209777 262.17632624 -157.47372192 266.10787917 -153.20361328 269.39257812 C-147.63993976 271.8351665 -141.81297792 271.8078587 -135.82861328 272.08007812 C-134.94496094 272.12326172 -134.06130859 272.16644531 -133.15087891 272.2109375 C-130.98111706 272.31649348 -128.81113418 272.41748884 -126.64111328 272.51757812 C-126.46080566 271.93169922 -126.28049805 271.34582031 -126.09472656 270.7421875 C-121.68434877 256.89479399 -112.92050525 245.94311418 -100.19970703 238.79882812 C-86.38772165 231.88229193 -69.84757153 229.37407729 -54.82861328 234.20507812 C-53.07816952 234.92629101 -51.34567046 235.69375399 -49.64111328 236.51757812 C-48.86123047 236.86820313 -48.08134766 237.21882812 -47.27783203 237.58007812 C-33.78239218 244.29283577 -23.81926748 256.55803801 -18.64111328 270.51757812 C-18.64111328 271.17757813 -18.64111328 271.83757812 -18.64111328 272.51757812 C9.40888672 272.51757812 37.45888672 272.51757812 66.35888672 272.51757812 C66.29748626 243.84560002 66.22543509 215.17372559 66.12990044 186.50184235 C66.11863242 183.11605607 66.10749394 179.73026939 66.09643555 176.34448242 C66.09313002 175.33341827 66.09313002 175.33341827 66.08975772 174.30192859 C66.05439547 163.39117288 66.02952529 152.48041724 66.0085397 141.56962549 C65.98676909 130.37225639 65.95348451 119.17495414 65.91018516 107.97764546 C65.88623221 101.68907345 65.86751695 95.40058369 65.86127281 89.11196709 C65.85523143 83.19323464 65.83526546 77.2747127 65.80461121 71.35605812 C65.79581587 69.18367346 65.79211149 67.01126131 65.79387856 64.83885956 C65.79552988 61.87206064 65.77884353 58.90590449 65.75761414 55.93919373 C65.76246171 55.0802293 65.76730929 54.22126488 65.77230376 53.33627123 C65.69700242 46.95653031 64.72181233 41.94614056 60.10888672 37.20507812 C52.94773537 32.81073525 45.58293666 33.23731006 37.41748047 33.24414062 C34.86994996 33.22386068 32.32242394 33.20301008 29.77490234 33.18164062 C25.77656819 33.1590053 21.77841847 33.141707 17.7800293 33.13671875 C13.90885736 33.12720552 10.03847554 33.0934529 6.16748047 33.05664062 C4.37666298 33.06420883 4.37666298 33.06420883 2.54966736 33.07192993 C-3.80786703 32.99651733 -7.84192407 32.85616095 -12.64111328 28.51757812 C-16.26944992 24.6982764 -16.95111786 21.63478806 -17.14111328 16.51757812 C-16.95111786 11.40036819 -16.26944992 8.33687985 -12.64111328 4.51757812 C-8.29316328 1.13910248 -5.49369993 0.01532616 0 0 Z M99.35888672 112.51757812 C99.35888672 128.35757813 99.35888672 144.19757813 99.35888672 160.51757812 C126.41888672 160.51757812 153.47888672 160.51757812 181.35888672 160.51757812 C179.96061956 157.02191022 178.92636951 154.61900888 176.91625977 151.61694336 C176.43203049 150.88946396 175.94780121 150.16198456 175.44889832 149.41246033 C174.66764336 148.25599754 174.66764336 148.25599754 173.87060547 147.07617188 C173.33039261 146.27147964 172.79017975 145.46678741 172.2335968 144.63771057 C171.09200982 142.9408298 169.94792538 141.24562688 168.80151367 139.55200195 C167.05416023 136.96657999 165.32045252 134.37236807 163.58740234 131.77734375 C162.47429162 130.12639891 161.36038546 128.47599003 160.24560547 126.82617188 C159.73084152 126.05317245 159.21607758 125.28017303 158.68571472 124.48374939 C154.55735823 118.42669589 150.76672252 114.21536578 143.35888672 112.51757812 C139.95135852 112.26769958 136.56305616 112.28425681 133.14794922 112.32226562 C131.85957153 112.32528687 131.85957153 112.32528687 130.54516602 112.32836914 C127.35801805 112.33877822 124.17094663 112.36670058 120.98388672 112.39257812 C113.84763672 112.43382812 106.71138672 112.47507812 99.35888672 112.51757812 Z M99.35888672 192.51757812 C99.35888672 209.67757812 99.35888672 226.83757812 99.35888672 244.51757812 C102.98888672 242.53757812 106.61888672 240.55757812 110.35888672 238.51757812 C123.70219435 232.8428381 139.00757127 230.64914268 153.17138672 235.20507812 C154.92183048 235.92629101 156.65432954 236.69375399 158.35888672 237.51757812 C159.52871094 238.04351562 159.52871094 238.04351562 160.72216797 238.58007812 C175.06586412 245.71476636 183.30270839 258.2029748 189.35888672 272.51757812 C195.29888672 272.51757812 201.23888672 272.51757812 207.35888672 272.51757812 C207.40425879 264.3457192 207.44087211 256.17395994 207.46251106 248.00200844 C207.47290209 244.20653184 207.4869746 240.41114666 207.50976562 236.61572266 C207.53166247 232.94580576 207.54349045 229.27597623 207.5486412 225.60599899 C207.55230699 224.21312461 207.55946439 222.82025445 207.57034683 221.42741776 C207.64833546 211.02202106 206.6463133 202.37985787 203.35888672 192.51757812 C169.03888672 192.51757812 134.71888672 192.51757812 99.35888672 192.51757812 Z M-92.41455078 275.67382812 C-96.34665755 281.58451091 -96.33974605 287.63873237 -95.64111328 294.51757812 C-93.86768895 301.16230727 -89.19444858 305.69125771 -83.64111328 309.51757812 C-77.64224325 312.45820069 -70.75827798 312.616416 -64.32861328 310.90039062 C-58.19978468 308.19508737 -53.40158537 303.10894118 -50.46923828 297.12695312 C-48.56305471 291.1206766 -48.57672641 284.01466255 -51.14111328 278.20507812 C-54.62148586 272.27234338 -60.07673258 267.58594068 -66.64111328 265.51757812 C-78.3650629 264.0914895 -84.94853689 266.83139827 -92.41455078 275.67382812 Z M115.58544922 275.67382812 C111.65334245 281.58451091 111.66025395 287.63873237 112.35888672 294.51757812 C114.13231105 301.16230727 118.80555142 305.69125771 124.35888672 309.51757812 C130.35775675 312.45820069 137.24172202 312.616416 143.67138672 310.90039062 C149.80021532 308.19508737 154.59841463 303.10894118 157.53076172 297.12695312 C159.43694529 291.1206766 159.42327359 284.01466255 156.85888672 278.20507812 C153.37851414 272.27234338 147.92326742 267.58594068 141.35888672 265.51757812 C129.6349371 264.0914895 123.05146311 266.83139827 115.58544922 275.67382812 Z " fill="#000000" transform="translate(256.64111328125,83.482421875)"/>
<path d="M0 0 C0.768601 -0.00623996 1.537202 -0.01247993 2.32909393 -0.01890898 C4.89484172 -0.03481581 7.45963642 -0.02224428 10.02539062 -0.00964355 C11.86873935 -0.01506571 13.71208373 -0.0221889 15.55541992 -0.03088379 C20.55541624 -0.04910888 25.55508218 -0.04205293 30.55508423 -0.02936745 C35.789336 -0.0192356 41.02355961 -0.02863364 46.2578125 -0.03491211 C55.04757767 -0.04218796 63.83720837 -0.0326024 72.62695312 -0.0135498 C82.78698248 0.00821878 92.94669076 0.00116737 103.10671234 -0.02085543 C111.8321482 -0.03901115 120.55748745 -0.04156689 129.2829361 -0.03110075 C134.49328372 -0.02486679 139.70348045 -0.02402758 144.91381836 -0.0372467 C149.81245951 -0.04880703 154.71068696 -0.04077601 159.60928345 -0.01766968 C161.40637526 -0.01238358 163.20350192 -0.01389467 165.00057983 -0.02272034 C167.45528259 -0.03366361 169.90866261 -0.01992806 172.36328125 0 C173.07320976 -0.00892289 173.78313828 -0.01784577 174.51457977 -0.02703905 C179.51471523 0.05161339 182.30858222 1.41433383 186.18164062 4.50793457 C189.80997726 8.32723629 190.49164521 11.39072463 190.68164062 16.50793457 C190.49164521 21.62514451 189.80997726 24.68863285 186.18164062 28.50793457 C181.59872912 32.16852961 178.09590311 33.08792081 172.36328125 33.01586914 C171.59468025 33.0221091 170.82607925 33.02834907 170.03418732 33.03477812 C167.46843953 33.05068495 164.90364483 33.03811342 162.33789062 33.0255127 C160.4945419 33.03093485 158.65119752 33.03805804 156.80786133 33.04675293 C151.80786501 33.06497802 146.80819907 33.05792207 141.80819702 33.04523659 C136.57394525 33.03510474 131.33972164 33.04450278 126.10546875 33.05078125 C117.31570358 33.0580571 108.52607288 33.04847154 99.73632812 33.02941895 C89.57629877 33.00765036 79.41659049 33.01470177 69.25656891 33.03672457 C60.53113305 33.05488029 51.8057938 33.05743603 43.08034515 33.04696989 C37.86999753 33.04073593 32.6598008 33.03989672 27.44946289 33.05311584 C22.55082174 33.06467617 17.65259429 33.05664515 12.7539978 33.03353882 C10.95690599 33.02825272 9.15977933 33.02976381 7.36270142 33.03858948 C4.90799866 33.04953275 2.45461864 33.0357972 0 33.01586914 C-0.70992851 33.02479203 -1.41985703 33.03371491 -2.15129852 33.04290819 C-7.15143398 32.96425575 -9.94530097 31.60153531 -13.81835938 28.50793457 C-17.44669601 24.68863285 -18.12836396 21.62514451 -18.31835938 16.50793457 C-18.12836396 11.39072463 -17.44669601 8.32723629 -13.81835938 4.50793457 C-9.23544787 0.84733953 -5.73262186 -0.07205167 0 0 Z " fill="#000000" transform="translate(33.818359375,83.4920654296875)"/>
<path d="M0 0 C1.80102173 -0.01051392 1.80102173 -0.01051392 3.63842773 -0.02124023 C6.919582 -0.03579754 10.20008754 -0.03242994 13.48123169 -0.01972389 C16.921746 -0.00956688 20.36221828 -0.01899704 23.80273438 -0.02526855 C29.57950574 -0.03253716 35.35607227 -0.02297813 41.1328125 -0.00390625 C47.80287848 0.01786123 54.47245533 0.01080928 61.14250946 -0.01121187 C66.8786003 -0.02938852 72.61454425 -0.03191322 78.3506546 -0.0214572 C81.77250684 -0.0152346 85.19412949 -0.01435227 88.6159668 -0.02760315 C92.43181426 -0.03776132 96.24672249 -0.02227556 100.0625 0 C101.19099365 -0.00809692 102.3194873 -0.01619385 103.48217773 -0.02453613 C109.65561161 0.04222947 113.34434284 0.37053288 118.03125 4.51757812 C121.65958663 8.33687985 122.34125458 11.40036819 122.53125 16.51757812 C122.34125458 21.63478806 121.65958663 24.6982764 118.03125 28.51757812 C112.47772201 33.43142239 107.25320116 33.08674942 100.0625 33.03515625 C98.26147827 33.04567017 98.26147827 33.04567017 96.42407227 33.05639648 C93.142918 33.07095379 89.86241246 33.06758619 86.58126831 33.05488014 C83.140754 33.04472313 79.70028172 33.05415329 76.25976562 33.0604248 C70.48299426 33.06769341 64.70642773 33.05813438 58.9296875 33.0390625 C52.25962152 33.01729502 45.59004467 33.02434697 38.91999054 33.04636812 C33.1838997 33.06454477 27.44795575 33.06706947 21.7118454 33.05661345 C18.28999316 33.05039085 14.86837051 33.04950852 11.4465332 33.0627594 C7.63068574 33.07291757 3.81577751 33.05743181 0 33.03515625 C-1.69274048 33.04730164 -1.69274048 33.04730164 -3.41967773 33.05969238 C-9.59311161 32.99292678 -13.28184284 32.66462337 -17.96875 28.51757812 C-21.59708663 24.6982764 -22.27875458 21.63478806 -22.46875 16.51757812 C-22.27875458 11.40036819 -21.59708663 8.33687985 -17.96875 4.51757812 C-12.41522201 -0.39626614 -7.19070116 -0.05159317 0 0 Z " fill="#000000" transform="translate(69.96875,147.482421875)"/>
<path d="M0 0 C1.30904297 -0.0038269 2.61808594 -0.00765381 3.96679688 -0.01159668 C6.73066196 -0.01747605 9.49400802 -0.00898041 12.2578125 0.00976562 C15.78862831 0.03255558 19.31822777 0.01942391 22.84899902 -0.00452423 C26.23276177 -0.02250956 29.61620276 -0.00989232 33 0 C34.89395508 -0.01214539 34.89395508 -0.01214539 36.82617188 -0.02453613 C47.68018545 0.09130219 47.68018545 0.09130219 52.5 4.53125 C56.12833663 8.35055172 56.81000458 11.41404006 57 16.53125 C56.81000458 21.64845994 56.12833663 24.71194828 52.5 28.53125 C46.74545317 33.83226051 40.50898761 33.11065296 33 33.0625 C31.69095703 33.0663269 30.38191406 33.07015381 29.03320312 33.07409668 C26.26933804 33.07997605 23.50599198 33.07148041 20.7421875 33.05273438 C17.21137169 33.02994442 13.68177223 33.04307609 10.15100098 33.06702423 C6.76723823 33.08500956 3.38379724 33.07239232 0 33.0625 C-1.26263672 33.07059692 -2.52527344 33.07869385 -3.82617188 33.08703613 C-14.68018545 32.97119781 -14.68018545 32.97119781 -19.5 28.53125 C-23.12833663 24.71194828 -23.81000458 21.64845994 -24 16.53125 C-23.81000458 11.41404006 -23.12833663 8.35055172 -19.5 4.53125 C-13.74545317 -0.76976051 -7.50898761 -0.04815296 0 0 Z " fill="#000000" transform="translate(103.5,211.46875)"/>
</svg>
