<?xml version="1.0" encoding="UTF-8"?>
<svg version="1.1" xmlns="http://www.w3.org/2000/svg" width="512" height="512">
<path d="M0 0 C1.16726787 -0.00538554 2.33453574 -0.01077108 3.53717536 -0.01631981 C6.75044521 -0.02808596 9.96337879 -0.02655903 13.17665112 -0.019153 C16.65258144 -0.01440045 20.1284575 -0.0269496 23.60437012 -0.03717041 C30.40398019 -0.05432379 37.20349771 -0.05520554 44.0031238 -0.04995751 C49.53338973 -0.04590766 55.06362841 -0.04736902 60.59389305 -0.05270576 C61.77686058 -0.0538284 61.77686058 -0.0538284 62.98372644 -0.05497371 C64.5861386 -0.05650527 66.18855075 -0.05804362 67.7909629 -0.05958868 C82.80210298 -0.07330151 97.81319088 -0.06788488 112.82432976 -0.05640347 C126.53693274 -0.0464751 140.24940072 -0.05940704 153.96198288 -0.08333766 C168.06380102 -0.10776088 182.16555635 -0.11732845 196.2673952 -0.11068493 C204.17576854 -0.10719951 212.08403812 -0.10937974 219.9923954 -0.12693596 C226.72547091 -0.14169845 233.45836962 -0.14224094 240.19144181 -0.12486505 C243.62200893 -0.11638524 247.05226076 -0.11413053 250.48281097 -0.1295166 C254.2133628 -0.14276609 257.94306784 -0.13114235 261.67358398 -0.11352539 C262.74170706 -0.1231304 263.80983014 -0.1327354 264.91032058 -0.14263147 C281.43643257 0.01701145 293.67952299 7.04993245 305.49992371 18.06736755 C309.83620443 22.04843517 314.44857679 25.69124062 319.02726746 29.38768005 C325.50046895 34.64538957 331.90869862 39.96928862 338.26115417 45.37156677 C342.26167599 48.76411377 346.33698926 52.04908877 350.44914246 55.3056488 C353.43693914 57.71852097 356.35782943 60.20564085 359.27726746 62.70018005 C363.73365689 66.50511969 368.26895549 70.17570484 372.90226746 73.76268005 C378.58573007 78.16775936 384.01960158 82.80682992 389.42131042 87.55125427 C393.52396919 91.13590593 397.71523117 94.55869552 402.02726746 97.88768005 C407.76254186 102.31600807 413.24637687 106.98267507 418.69645691 111.75608826 C422.14628266 114.7725982 425.62407113 117.72560345 429.21476746 120.57518005 C429.98820496 121.19006287 430.76164246 121.80494568 431.55851746 122.4384613 C433.38572692 123.88114725 435.22019105 125.31465548 437.05851746 126.7431488 C447.09197598 134.67549769 453.74826942 142.8865713 457.02726746 155.38768005 C457.60890785 160.78475082 457.6403303 166.15094232 457.62882996 171.5712738 C457.63662677 173.11864674 457.64530072 174.66601548 457.65480042 176.21337891 C457.6696313 179.43999677 457.66921086 182.66617658 457.65861511 185.89280701 C457.64702647 189.99600137 457.68092473 194.09738976 457.72730446 198.20028591 C457.7569873 201.39114584 457.75849508 204.58158082 457.752285 207.7725544 C457.75330071 209.28381493 457.76357153 210.7951027 457.78390884 212.30622673 C457.91166009 223.12171275 456.42936391 232.20586246 449.08113098 240.61471558 C443.29112894 246.30553853 436.03669272 249.59937036 427.90226746 249.63768005 C426.62351746 249.55518005 425.34476746 249.47268005 424.02726746 249.38768005 C423.68695496 251.30580505 423.68695496 251.30580505 423.33976746 253.26268005 C420.81879008 264.29627282 414.64649004 273.52060462 405.50382996 280.2431488 C393.24972531 287.87839862 380.23433718 290.22656617 366.00382996 287.8915863 C352.82908008 284.21346213 342.97821497 275.97510769 335.53507996 264.68455505 C333.32419298 259.85038768 332.31652614 254.5447148 331.02726746 249.38768005 C252.15726746 249.38768005 173.28726746 249.38768005 92.02726746 249.38768005 C91.69726746 251.69768005 91.36726746 254.00768005 91.02726746 256.38768005 C85.98142771 269.57293987 77.96406417 279.26282334 65.02726746 285.38768005 C53.49111873 290.18381118 39.27771345 290.15962959 27.67961121 285.6572113 C21.22793793 282.56914972 15.82948106 278.70905188 11.02726746 273.38768005 C10.54644714 272.91072693 10.06562683 272.4337738 9.57023621 271.94236755 C4.53633483 266.66632915 0.12511383 259.1388573 -0.02790833 251.70848083 C-0.00970032 250.94261658 0.00850769 250.17675232 0.02726746 249.38768005 C-0.77380432 249.40862732 -1.5748761 249.42957458 -2.40022278 249.45115662 C-6.07009564 249.53489406 -9.73976671 249.58652374 -13.41023254 249.63768005 C-14.67029114 249.67119568 -15.93034973 249.7047113 -17.22859192 249.73924255 C-24.76874862 249.81799093 -30.44600577 249.2824718 -36.97273254 245.38768005 C-38.16962708 244.70125427 -38.16962708 244.70125427 -39.39070129 244.0009613 C-46.99802561 238.40882223 -51.47389488 231.53209576 -53.39466858 222.25746155 C-54.09265014 217.58490572 -54.34355597 212.97306125 -54.53425598 208.2563324 C-54.57537884 207.28996038 -54.61650169 206.32358837 -54.6588707 205.32793236 C-55.0532533 195.44457107 -55.15494516 185.56694023 -55.17585754 175.67674255 C-55.17868492 174.74392834 -55.1815123 173.81111412 -55.18442535 172.85003281 C-55.19923797 167.91124461 -55.20857934 162.97248426 -55.21296692 158.03367615 C-55.21733982 154.03748894 -55.23121214 150.04151906 -55.25398254 146.0453949 C-55.86737739 36.04923469 -55.86737739 36.04923469 -32.69148254 10.98143005 C-23.11040767 2.09716062 -12.76041722 -0.07135244 0 0 Z M-13.28913879 31.66111755 C-25.15959571 50.8851986 -27.05587796 85.53794636 -26.98498535 107.57830811 C-26.98094193 108.83540085 -26.9768985 110.09249359 -26.97273254 111.38768005 C-26.20004972 111.38822482 -25.42736691 111.38876959 -24.63126945 111.38933086 C-5.82729992 111.40430031 12.97642387 111.44675371 31.78026009 111.51977062 C40.87369085 111.55441891 49.96697005 111.57977593 59.06047058 111.58323669 C66.98669187 111.58627682 74.91264323 111.60677367 82.83876026 111.64820462 C87.03538411 111.6695321 91.23162423 111.68213665 95.42830276 111.67383385 C99.37984293 111.66629192 103.33060568 111.68212121 107.2820034 111.7157402 C108.73076143 111.72397192 110.17959679 111.72372511 111.6283474 111.71427727 C123.93938708 111.64195222 123.93938708 111.64195222 127.87367249 114.80389404 C131.43418176 119.07563232 131.41524583 122.16529956 131.38664246 127.61424255 C130.83016 131.90883543 129.19554859 133.52113998 126.02726746 136.38768005 C123.28515283 137.75873737 121.08683792 137.52819324 118.01625061 137.54589844 C116.09369949 137.56058167 116.09369949 137.56058167 114.13230896 137.57556152 C112.70390357 137.58146611 111.27549779 137.58727653 109.84709167 137.59300232 C108.349276 137.60257814 106.85146304 137.61258804 105.35365295 137.6230011 C101.27953852 137.65008839 97.20541245 137.67107721 93.13125753 137.69100308 C88.87644921 137.71283909 84.62167689 137.74023943 80.36689758 137.76705933 C72.30630971 137.81701853 64.24570188 137.86194536 56.18507493 137.90508169 C47.00984685 137.95442651 37.8346549 138.00935484 28.65946174 138.06476128 C9.78209716 138.17863087 -9.09530148 138.28545905 -27.97273254 138.38768005 C-27.97732173 142.3446334 -27.98062675 146.30158569 -27.98281765 150.25854111 C-27.98417869 152.25510971 -27.98651331 154.25167757 -27.98886871 156.24824524 C-27.99325422 165.7205685 -27.8649727 175.17123866 -27.53523254 184.63768005 C-27.50063934 185.66192581 -27.50063934 185.66192581 -27.46534729 186.7068634 C-27.35129988 190.08103482 -27.23107923 193.45484504 -27.10505676 196.82859802 C-27.02328628 199.02795257 -26.94588591 201.22748045 -26.87556458 203.42723083 C-26.79744655 205.85242042 -26.70214764 208.27600508 -26.59773254 210.70018005 C-26.54874817 211.93381287 -26.49976379 213.16744568 -26.44929504 214.4384613 C-25.92988625 217.65283537 -25.26366106 219.10218028 -22.97273254 221.38768005 C-15.16548469 223.990096 -4.98424659 224.12544917 3.02726746 222.38768005 C7.19017528 219.03362738 8.78875334 215.15123809 11.02726746 210.38768005 C18.52312231 201.65555686 30.21579388 196.56625543 41.52726746 195.57518005 C54.34287749 194.83165837 66.5524703 198.11621281 76.71476746 206.07518005 C80.92187924 209.90345239 83.93737964 214.6509391 87.02726746 219.38768005 C88.61117116 222.52130842 88.61117116 222.52130842 90.84611964 222.77178222 C91.58939738 222.77606378 92.33267511 222.78034535 93.09847641 222.78475666 C93.95567363 222.79689679 94.81287084 222.80903693 95.69604373 222.82154495 C96.64329861 222.81962762 97.59055349 222.81771029 98.56651306 222.81573486 C99.5685424 222.8253538 100.57057173 222.83497273 101.60296559 222.84488314 C104.98242041 222.87338653 108.3615713 222.88016459 111.74113464 222.88694763 C114.15531673 222.90246202 116.56949147 222.91915735 118.98365784 222.93695068 C126.24429664 222.98523982 133.50488773 223.00780472 140.765643 223.0264695 C144.18382489 223.03600389 147.60199332 223.04895177 151.02016449 223.06169701 C162.38139406 223.10309998 173.74260891 223.13819115 185.10390854 223.15219593 C185.83136129 223.15310619 186.55881405 223.15401645 187.30831082 223.1549543 C188.4021232 223.15631973 188.4021232 223.15631973 189.51803279 223.15771276 C190.9957204 223.15956823 192.473408 223.1614356 193.95109558 223.16331482 C194.68408195 223.16424142 195.41706832 223.16516802 196.17226639 223.1661227 C208.04740472 223.18231863 219.92188223 223.24255747 231.79675207 223.32161454 C243.98517953 223.40210206 256.17327369 223.44504752 268.36197019 223.45057601 C275.20697227 223.45457592 282.05107439 223.47484688 288.89582062 223.53667641 C295.3343684 223.5946602 301.77169281 223.60152495 308.21045303 223.57363701 C310.57521847 223.57159526 312.94006938 223.58670606 315.30459976 223.62010956 C327.17002867 224.40929988 327.17002867 224.40929988 337.66139984 220.2293911 C339.22631336 217.63217932 340.08698711 215.25584172 341.02726746 212.38768005 C347.72472606 203.5055432 358.29063491 198.03320308 369.08976746 195.88768005 C382.4504609 194.28866089 394.86082631 196.79173795 405.89445496 204.62205505 C411.91463801 209.60579634 416.48624706 215.45318179 420.02726746 222.38768005 C423.19809447 222.6038728 425.36702524 222.74552522 428.19903564 221.21060181 C430.23361299 219.51680703 430.23361299 219.51680703 430.5284729 216.95477295 C430.52872215 215.50870918 430.52872215 215.50870918 430.52897644 214.03343201 C430.53835739 212.93831802 430.54773834 211.84320404 430.55740356 210.71490479 C430.54616959 209.53055344 430.53493561 208.34620209 430.52336121 207.1259613 C430.52481644 205.90620102 430.52627167 204.68644073 430.527771 203.42971802 C430.5261092 200.84479896 430.51451685 198.2598703 430.49382019 195.67503357 C430.46500817 191.7331134 430.4731785 187.79254957 430.48625183 183.85057068 C430.48001009 181.33819438 430.47161576 178.82582233 430.46086121 176.3134613 C430.46526466 174.55211601 430.46526466 174.55211601 430.46975708 172.75518799 C430.38434136 165.27451376 430.011972 158.85684224 424.93351746 152.9540863 C423.74242371 151.96215271 423.74242371 151.96215271 422.52726746 150.95018005 C421.63136902 150.1922113 420.73547058 149.43424255 419.81242371 148.65330505 C418.89332214 147.9056488 417.97422058 147.15799255 417.02726746 146.38768005 C416.20097839 145.7018988 415.37468933 145.01611755 414.52336121 144.30955505 C412.25666809 142.44083096 409.97750472 140.58852918 407.69377136 138.7407074 C404.33424292 136.01312073 400.99370172 133.26237885 397.65226746 130.51268005 C396.92314148 129.91286316 396.1940155 129.31304626 395.4427948 128.6950531 C390.42102892 124.55609376 385.44414272 120.36783753 380.48869324 116.14988708 C376.59034507 112.84052448 372.61372689 109.64405357 368.60539246 106.4697113 C365.61759578 104.05683914 362.69670549 101.56971926 359.77726746 99.07518005 C355.32087566 95.2702384 350.78555059 91.59969593 346.15226746 88.01268005 C340.37973275 83.53783442 334.84967574 78.82944262 329.35636902 74.01756287 C325.17131932 70.35755861 320.90439219 66.83860992 316.53507996 63.3993988 C313.56485965 61.01674544 310.6713846 58.54896114 307.77726746 56.07518005 C302.6645904 51.71365461 297.44551079 47.51412347 292.13786316 43.39256287 C287.46915348 39.76243632 282.93156187 36.00104648 278.42961121 32.1650238 C271.19744732 26.81439849 262.74793693 27.24095555 254.14056396 27.25396729 C253.04190079 27.25170173 251.94323762 27.24943617 250.81128162 27.24710196 C247.12879031 27.24077036 243.44633588 27.24159079 239.76383972 27.24241638 C237.12409833 27.23942441 234.48435983 27.2360501 231.84461975 27.23223877 C225.41814581 27.22394093 218.99168104 27.22118434 212.56520218 27.22062639 C207.34133807 27.2201509 202.11747697 27.21809451 196.89361382 27.21492577 C182.07872567 27.20612223 167.26384477 27.20150602 152.44895399 27.20225624 C151.65068367 27.2022962 150.85241334 27.20233615 150.029953 27.20237732 C148.83108372 27.20243864 148.83108372 27.20243864 147.60799485 27.2025012 C134.65094049 27.20290778 121.69391518 27.1933345 108.73686922 27.17923895 C95.42848736 27.16487554 82.12011966 27.15796872 68.81172985 27.15883273 C61.34170393 27.15916467 53.87170847 27.15641878 46.40168953 27.14565468 C40.04278752 27.13655023 33.68392978 27.13437403 27.32502408 27.1411641 C24.08162764 27.14442935 20.83833382 27.14339906 17.59494209 27.13581085 C14.07687005 27.12811256 10.5590217 27.13272157 7.04095459 27.14044189 C6.01877211 27.13529833 4.99658962 27.13015477 3.94343191 27.12485534 C-5.45888777 27.07114122 -5.45888777 27.07114122 -13.28913879 31.66111755 Z M31.15226746 229.38768005 C27.07295952 235.14670303 26.17237127 239.35853364 27.02726746 246.38768005 C28.98276583 252.58185328 32.26310829 256.13736751 37.82414246 259.4618988 C42.9028677 261.59604398 49.33126503 261.40085516 54.44914246 259.4775238 C59.41639731 256.57373384 62.61620338 252.91534023 64.77726746 247.51268005 C65.6084809 240.44736581 65.36144478 235.22678006 61.02726746 229.38768005 C56.25981927 224.88400462 52.29353486 222.70174423 45.77726746 222.07518005 C39.7682504 222.57593148 35.11855744 224.7914499 31.15226746 229.38768005 Z M362.31242371 229.18455505 C358.63574036 234.51308164 357.33287153 240.09359951 358.36711121 246.48924255 C360.10110174 252.35987719 364.0952374 255.95713496 369.02726746 259.38768005 C374.11475441 261.08350904 379.9796812 261.37899529 385.12882996 259.7040863 C390.58876753 256.8057494 394.0954094 252.67496801 396.40226746 247.01268005 C397.37870321 241.34935267 397.04334468 237.30693704 394.33976746 232.20018005 C389.74650017 226.61377389 385.1599128 222.95490588 377.83976746 221.95018005 C371.85462929 222.63699919 366.53393645 224.76110207 362.31242371 229.18455505 Z " fill="#000000" transform="translate(54.97273254394531,111.61231994628906)"/>
<path d="M0 0 C0.7205658 -0.0065712 1.44113159 -0.0131424 2.18353271 -0.01991272 C4.57393496 -0.03966037 6.96427423 -0.05131353 9.35473633 -0.0612793 C10.1716073 -0.06535482 10.98847828 -0.06943035 11.83010292 -0.07362938 C16.15642673 -0.09449964 20.48271875 -0.10879534 24.80908203 -0.11816406 C29.27015241 -0.12921083 33.73072154 -0.16358758 38.1916151 -0.20333576 C41.62753705 -0.22953439 45.06334038 -0.23785892 48.49935341 -0.24144554 C50.14313441 -0.24630571 51.78691031 -0.25790351 53.43059349 -0.27648354 C55.73798131 -0.30093777 58.04408368 -0.29989883 60.3515625 -0.29296875 C61.66235275 -0.29883499 62.97314301 -0.30470123 64.32365417 -0.31074524 C69.92421453 0.4324389 74.13294069 3.13793608 78.35864258 6.8762207 C79.18730835 7.59950562 79.18730835 7.59950562 80.03271484 8.33740234 C80.59917725 8.84134521 81.16563965 9.34528809 81.74926758 9.86450195 C82.98146834 10.94102188 84.21455023 12.01653405 85.44848633 13.09106445 C86.35219971 13.8804541 86.35219971 13.8804541 87.27416992 14.68579102 C89.66459742 16.75212715 92.10792162 18.74912031 94.56176758 20.73950195 C98.58284849 24.00478498 102.5527192 27.32258039 106.49926758 30.67700195 C110.46830301 34.04983784 114.45943779 37.38876841 118.49926758 40.67700195 C122.65140812 44.06203149 126.77530037 47.47792762 130.87426758 50.92700195 C131.40987305 51.37495117 131.94547852 51.82290039 132.49731445 52.28442383 C142.98437703 61.13987316 142.98437703 61.13987316 143.80004883 69.40356445 C144.979559 85.82419625 144.979559 85.82419625 140.99926758 91.17700195 C136.70444278 95.99241157 132.07141911 95.82014368 125.99926758 96.17700195 C122.69045087 96.25381785 119.39287992 96.20255561 116.08447266 96.12280273 C115.14769684 96.10504791 114.21092102 96.08729309 113.24575806 96.06900024 C110.16995794 96.00922007 107.09441434 95.94089226 104.01879883 95.87231445 C101.84292031 95.82796944 99.66703197 95.78410454 97.49113464 95.74069214 C92.92597154 95.6483985 88.36091383 95.5522088 83.79589844 95.45288086 C78.04084184 95.3276923 72.28567501 95.20916045 66.53042793 95.09309769 C55.60251746 94.87263989 44.67510925 94.63637049 33.74801826 94.37837601 C28.29480594 94.25014502 22.84164807 94.13332041 17.38784885 94.03318214 C14.46209692 93.97707164 11.53669541 93.90971374 8.61127281 93.83861923 C6.71123884 93.7958821 4.81090512 93.76717358 2.91059875 93.73904419 C-4.15240187 93.55043963 -9.16744636 93.08686332 -14.31323242 87.80200195 C-17.21647571 83.28584572 -17.12865077 78.83960929 -17.14599609 73.57006836 C-17.15237595 72.25164948 -17.1587558 70.93323059 -17.16532898 69.57485962 C-17.16685788 68.14276161 -17.16797172 66.7106631 -17.16870117 65.27856445 C-17.17191733 63.80032316 -17.17528167 62.32208219 -17.17878723 60.84384155 C-17.18476549 57.74883283 -17.18662847 54.65385198 -17.18603516 51.55883789 C-17.1859336 47.60581993 -17.1995847 43.65298185 -17.21680737 39.70000648 C-17.22796171 36.64754425 -17.22995331 33.59512503 -17.22942543 30.5426445 C-17.23060041 29.08589432 -17.23499496 27.62914284 -17.2427578 26.17241287 C-17.25262759 24.12905763 -17.24965254 22.08608692 -17.24365234 20.04272461 C-17.24507736 18.88310211 -17.24650238 17.72347961 -17.24797058 16.52871704 C-16.92986835 12.21632426 -16.37804699 7.84624733 -13.56323242 4.43481445 C-8.50704936 0.76908173 -6.26042584 0.04715974 0 0 Z M10.99926758 28.17700195 C10.99926758 40.71700195 10.99926758 53.25700195 10.99926758 66.17700195 C42.67129468 66.87943107 74.31924184 67.33802805 105.99926758 67.17700195 C102.78643492 63.93276265 99.56206382 60.90875625 95.99926758 58.05200195 C91.78725029 54.64389119 87.62550113 51.1876997 83.49926758 47.67700195 C78.5566237 43.47667064 73.56758676 39.33919034 68.53442383 35.24731445 C65.99926758 33.17700195 65.99926758 33.17700195 63.54736328 30.578125 C59.13262593 26.92343677 54.1675807 27.55302494 48.69458008 27.6887207 C47.61546356 27.69579544 46.53634705 27.70287018 45.42453003 27.7101593 C41.9903931 27.73806534 38.55790864 27.80080027 35.12426758 27.86450195 C32.79095785 27.88958956 30.45762248 27.91240192 28.12426758 27.93286133 C22.41479122 27.98362125 16.70887072 28.08148815 10.99926758 28.17700195 Z " fill="#000000" transform="translate(254.000732421875,156.822998046875)"/>
</svg>
