<svg version="1.1" xmlns="http://www.w3.org/2000/svg" width="512px" height="515px" transform="rotate(0) scale(1, 1)">
<path d="M0 0 C4.82383165 0.05758659 9.64531904 -0.03647366 14.46861637 -0.1095556 C23.88195827 -0.22816206 33.28991541 -0.20814478 42.70353287 -0.13585196 C50.36331962 -0.07953781 58.02160267 -0.07442158 65.68152416 -0.10464799 C66.77757504 -0.10892078 67.87362591 -0.11319356 69.00289046 -0.11759582 C71.23049926 -0.12648227 73.45810763 -0.13547754 75.68571556 -0.14458039 C96.50655145 -0.22363093 117.32441371 -0.14342779 138.14480681 -0.00798675 C155.95333724 0.10406049 173.75723997 0.07687709 191.56560123 -0.05158746 C212.31727129 -0.20123243 233.06616827 -0.2617514 253.81832546 -0.18431765 C256.03739338 -0.17628825 258.25646173 -0.16837745 260.47553051 -0.16058671 C262.11264714 -0.15478104 262.11264714 -0.15478104 263.78283684 -0.14885807 C271.42002764 -0.12782732 279.05536761 -0.16923684 286.69224727 -0.23590791 C296.02038507 -0.31570869 305.34245087 -0.29726193 314.66998785 -0.15837989 C319.41810944 -0.09006189 324.15606922 -0.06229059 328.90401256 -0.15496194 C346.75568511 -0.47503755 361.19951173 -0.04856507 374.79836172 12.63877052 C376.00939119 13.83713861 377.21016023 15.04597363 378.39990604 16.26547492 C378.96688331 16.84598389 379.53386058 17.42649286 380.11801898 18.02459302 C388.72459168 27.13415706 392.27746961 35.5547332 393.11591327 48.22652876 C393.02650533 49.79001586 393.02650533 49.79001586 392.93529117 51.38508856 C392.85606292 53.19003224 392.85606292 53.19003224 392.7752341 55.03143942 C392.71693172 56.26353518 392.65862934 57.49563094 392.59856021 58.76506293 C392.57093284 61.37283148 392.55413079 63.98073442 392.54747379 66.58864081 C392.51466271 71.99668531 392.3821953 77.39414764 392.17668521 82.79826605 C391.9143986 89.70888353 391.82340064 96.61117111 391.78354633 103.52622664 C391.74381764 110.16948087 391.60654574 116.81059601 391.47356021 123.45256293 C391.45663372 124.70534663 391.43970722 125.95813033 391.42226779 127.24887717 C391.36013174 130.80131821 391.23743997 134.34636451 391.09563053 137.89641058 C391.0855698 138.93437277 391.07550907 139.97233496 391.06514347 141.04175055 C390.74020648 147.20418719 389.45354994 150.20699184 385.05479801 154.63331854 C383.60828143 155.92002681 382.14580615 157.19001547 380.64543521 158.41350043 C382.02002531 161.60972226 383.51702648 163.27761604 386.19299686 165.45886481 C390.8284021 169.9980626 390.77188052 174.44645022 390.88444889 180.68767035 C390.93044727 181.80439124 390.97644565 182.92111212 391.02383792 184.07167304 C391.16158842 187.76247838 391.24355183 191.45128392 391.31340396 195.14396918 C391.34193265 196.41547638 391.37046134 197.68698359 391.39985454 198.99702132 C391.53079855 205.05193905 391.63269759 211.10567025 391.69113833 217.16162473 C391.75903306 224.07803843 391.9415946 230.97844151 392.22664458 237.88922864 C392.46706215 243.9334168 392.54644162 249.97115476 392.57456768 256.01984847 C392.60819069 258.55722715 392.68824343 261.09451358 392.81983364 263.62870085 C393.53051875 278.24103055 391.10978733 288.59951634 381.35083812 299.44122893 C380.18713602 300.6661877 379.01353978 301.88181268 377.83092105 303.08851874 C377.22186284 303.7112354 376.61280463 304.33395206 375.9852901 304.97553892 C363.91202967 316.91988606 353.08957291 319.85049238 336.43823649 319.9280267 C332.9863962 319.89682081 329.53893054 319.78747355 326.08892798 319.67458558 C321.41927901 319.55370121 316.7505122 319.59887408 312.07976139 319.62227118 C304.01983397 319.64097013 295.9662102 319.55923772 287.90778148 319.40631163 C276.25283627 319.18573212 264.60130064 319.12782815 252.94448786 319.10822827 C234.01896201 319.07255688 215.09652901 318.91615173 196.17253482 318.67839301 C177.82178505 318.44816723 159.47164915 318.26323841 141.11980045 318.14714301 C139.98596442 318.13994673 138.85212838 318.13275045 137.68393368 318.1253361 C125.30867858 318.04784381 112.93337527 317.98025994 100.55804718 317.91563761 C97.27852125 317.89833039 93.99899572 317.88095172 90.71947063 317.86348557 C88.5581714 317.85202936 86.39687135 317.84072822 84.23557048 317.82958467 C70.49354948 317.75790284 56.75278218 317.64351449 43.01151943 317.48252058 C36.09563791 317.40196545 29.17963689 317.3377634 22.26354254 317.27853286 C16.79269124 317.23038363 11.32266599 317.16114829 5.8522808 317.07546758 C2.53819584 317.02877262 -0.77580229 317.00280823 -4.09014673 316.98298199 C-5.61035474 316.96962904 -7.13051561 316.94759259 -8.65045678 316.91613554 C-10.71289803 316.87452725 -12.77327963 316.86383897 -14.83608544 316.86085665 C-15.98247189 316.84681778 -17.12885835 316.83277891 -18.30998379 316.81831461 C-22.3128783 317.60084135 -23.80237898 319.31233488 -26.35456479 322.41350043 C-27.08378326 324.38103257 -27.08378326 324.38103257 -26.99621212 326.3911463 C-27.01175641 327.14662253 -27.02730069 327.90209876 -27.04331601 328.6804682 C-27.0347659 329.49463202 -27.02621579 330.30879584 -27.01740658 331.14763129 C-27.02777447 332.01654501 -27.03814236 332.88545874 -27.04882443 333.78070319 C-27.07588259 336.64706687 -27.0662352 339.51189912 -27.05378354 342.37834418 C-27.05969302 344.3746508 -27.06693997 346.37095388 -27.07546628 348.36725104 C-27.08734507 352.54944072 -27.08064173 356.73109817 -27.0613519 360.91325629 C-27.03847432 366.26813379 -27.06523306 371.62142357 -27.10641396 376.97614443 C-27.13201231 381.09838864 -27.12940637 385.22025406 -27.11852086 389.34254897 C-27.11703553 391.31648508 -27.12470847 393.29045042 -27.14177144 395.26431334 C-27.16177667 398.02717422 -27.14332784 400.78724209 -27.11506283 403.54997504 C-27.13563748 404.76818442 -27.13563748 404.76818442 -27.15662777 406.01100409 C-27.07744177 409.89153039 -26.60501199 412.79243988 -24.20446408 415.91916144 C-19.16927997 420.22093659 -12.24213387 419.24451856 -5.99567807 419.18644965 C-4.52681494 419.19462547 -3.05796445 419.20543079 -1.58913815 419.21866095 C2.38791505 419.2470595 6.36413893 419.23875795 10.34123361 419.22379315 C14.50132567 419.21440536 18.66121639 419.23887089 22.82124698 419.25972235 C30.69409357 419.29405181 38.56664964 419.29800168 46.43955612 419.29099727 C55.40454634 419.28450338 64.36933273 419.31193704 73.33426249 419.34219968 C91.77140404 419.40367838 110.20818357 419.41814006 128.64543521 419.41350043 C128.64543521 430.96350043 128.64543521 442.51350043 128.64543521 454.41350043 C107.58094131 455.00337607 86.5232588 455.48098315 65.45256603 455.7606169 C55.66616565 455.89398247 45.88530551 456.07529906 36.10246646 456.37492621 C27.5623282 456.63636451 19.02620258 456.80232432 10.48217368 456.85980129 C5.96696582 456.89335159 1.46322045 456.97042193 -3.04825604 457.1624819 C-19.91560729 457.85079532 -34.78863884 457.91642678 -48.13359082 446.39410269 C-57.77407606 437.38361208 -64.31647409 427.95958562 -65.43317807 414.48137152 C-65.58469905 409.5304388 -65.39950974 404.63299313 -65.17487729 399.68693793 C-65.14657602 397.02989686 -65.12790359 394.37438059 -65.12089169 391.71736395 C-65.08625992 386.20540273 -64.95596471 380.7030656 -64.75544369 375.19475043 C-64.4993072 368.14642474 -64.40442149 361.10522372 -64.35873234 354.05275786 C-64.31386142 347.28390443 -64.18111446 340.51710153 -64.04987729 333.74943793 C-64.03180146 332.47032916 -64.01372563 331.19122038 -63.99510205 329.87335074 C-63.93051909 326.25171307 -63.81172583 322.63608821 -63.67536557 319.01652777 C-63.66328061 317.95469779 -63.65119565 316.8928678 -63.63874447 315.79886115 C-63.35237236 309.95287406 -62.46110106 306.9075101 -58.27201474 302.68831122 C-56.98987243 301.56899596 -55.69150702 300.46675301 -54.35456479 299.41350043 C-55.74566636 296.24085291 -56.60782809 295.20581924 -59.42905819 292.89235175 C-63.07883295 289.32955707 -63.09357996 286.01407537 -63.18995297 281.07702887 C-63.18094967 279.97972952 -63.17194638 278.88243018 -63.16267025 277.75187933 C-63.18326001 275.99956755 -63.18326001 275.99956755 -63.20426571 274.21185553 C-63.24083771 270.3540953 -63.23312246 266.49795916 -63.22175229 262.64006293 C-63.22856838 260.63382078 -63.23540029 258.62757785 -63.24445844 256.62134457 C-63.27251982 250.31523093 -63.26945301 244.00965928 -63.24665463 237.70353949 C-63.22370544 231.21255607 -63.251822 224.72322663 -63.30544758 218.23246121 C-63.34985746 212.64658097 -63.36301511 207.06121808 -63.35129476 201.47517395 C-63.34457325 198.14436543 -63.3527003 194.81546066 -63.38379681 191.48465598 C-63.41361667 187.76649676 -63.39227197 184.05195786 -63.35798275 180.33391058 C-63.37731869 179.2406597 -63.39665463 178.14740881 -63.4165765 177.02102911 C-63.30168831 171.06034375 -62.56792622 167.97632251 -58.29185116 163.66847479 C-57.0044091 162.55394855 -55.69975316 161.45760005 -54.35456479 160.41350043 C-55.74263803 157.25404062 -56.61772372 156.19490721 -59.41120541 153.87449896 C-63.734316 149.65569302 -63.34463549 144.78758097 -63.44831479 139.03752387 C-63.51227444 137.32858199 -63.51227444 137.32858199 -63.57752621 135.58511603 C-63.70593889 131.81441096 -63.78582836 128.04511935 -63.85456479 124.27287543 C-63.88151425 122.97588973 -63.90846371 121.67890402 -63.93622983 120.34261572 C-64.04497683 114.87472714 -64.14227907 109.40724969 -64.19446957 103.93850577 C-64.2687083 96.16978726 -64.43077547 88.41535951 -64.72472775 80.65174139 C-64.92539447 75.15737429 -65.02132155 69.66670632 -65.04488766 64.16876686 C-65.06134793 60.90152481 -65.13121568 57.65176689 -65.28693783 54.387797 C-65.34212582 53.15553633 -65.39731381 51.92327567 -65.45417416 50.65367377 C-65.51552548 49.58523104 -65.5768768 48.51678832 -65.64008725 47.41596854 C-65.23652957 33.95002414 -60.78821306 25.13652336 -51.61101925 15.75201666 C-50.7688917 14.8890642 -50.7688917 14.8890642 -49.90975147 14.00867835 C-35.29883189 -0.42897018 -19.56654025 -0.3507028 0 0 Z M-26.25492746 43.50157112 C-28.28303703 47.02782659 -28.3222187 50.38810785 -28.24445736 54.37468207 C-28.25511731 55.24388785 -28.26577725 56.11309363 -28.27676022 57.00863898 C-28.30234767 59.86469669 -28.27727919 62.71766186 -28.24909604 65.57365668 C-28.25127349 67.56710408 -28.25567669 69.56055019 -28.26220334 71.5539881 C-28.26800037 75.72444346 -28.24908222 79.89384444 -28.2122308 84.06413519 C-28.16672183 89.40334565 -28.17934974 94.74051562 -28.2100383 100.07976878 C-28.22785285 104.19348868 -28.21658601 108.30673242 -28.1963979 112.42042601 C-28.18989249 114.38875574 -28.19198261 116.35713367 -28.20290196 118.32544386 C-28.21346173 121.07864134 -28.185265 123.82882121 -28.14680111 126.58171332 C-28.15737545 127.39071082 -28.1679498 128.19970831 -28.17884457 129.03322089 C-28.07991605 133.10263621 -27.53134002 135.1472428 -25.22463906 138.62157977 C-20.16995471 143.33091842 -13.14251847 142.23910386 -6.66474545 142.17540228 C-5.14177829 142.18231709 -3.61882114 142.19184735 -2.09588492 142.20376575 C2.08642864 142.22882432 6.26792128 142.21642896 10.45023787 142.19784844 C14.96159348 142.1842833 19.47280708 142.20522191 23.98413455 142.22172797 C32.82072673 142.24842429 41.65701333 142.24263776 50.49361753 142.22525212 C57.67451325 142.21170826 64.85532325 142.2098613 72.03622806 142.21639502 C73.05779108 142.21731442 74.0793541 142.21823382 75.13187358 142.21918108 C77.20708301 142.22109941 79.28229242 142.22304468 81.3575018 142.22501662 C100.82216383 142.24213074 120.28665639 142.22244635 139.75129062 142.19021443 C156.45713855 142.1634074 173.16273633 142.16806341 189.86857975 142.19572699 C209.26301701 142.22782758 228.65730568 142.24048273 248.0517658 142.22205341 C250.1193913 142.22014209 252.18701682 142.21825587 254.25464237 142.21639502 C255.27198486 142.21546937 256.28932735 142.21454371 257.3374984 142.21359001 C264.51075215 142.2084069 271.68391174 142.2171593 278.85715091 142.23127234 C287.59760712 142.24809061 296.33773999 142.24356735 305.07815909 142.21158788 C309.53876207 142.19580594 313.99882572 142.18966596 318.45942485 142.20948279 C322.54191045 142.22734566 326.62335623 142.21756599 330.70574731 142.18561748 C332.1834472 142.1789082 333.66123472 142.18234125 335.13887841 142.1968722 C344.00652394 142.57837573 344.00652394 142.57837573 351.51550949 138.62157977 C354.28733011 134.44668279 354.50177349 131.48587828 354.43767154 126.58171332 C354.44979175 125.71425986 354.46191196 124.8468064 354.47439945 123.95306647 C354.50580484 121.0967222 354.49331281 118.24260153 354.47746646 115.38615668 C354.48405171 113.39367329 354.49227025 111.4011947 354.50204837 109.40872443 C354.51539269 105.23662108 354.50657322 101.06528696 354.48259342 96.89323676 C354.45402103 91.55508073 354.48405825 86.21913389 354.53122795 80.88117564 C354.56046494 76.76742628 354.55667594 72.65420204 354.54320705 68.54039061 C354.5410579 66.57286032 354.54952239 64.60528798 354.56893718 62.63785231 C354.59152939 59.88212622 354.5691217 57.13021819 354.53532779 54.37468207 C354.55106845 53.5677088 354.56680912 52.76073554 354.58302677 51.92930853 C354.48207719 47.74519445 353.7626881 44.92545981 351.010764 41.70542109 C345.59710895 36.61000723 338.92779243 37.44353564 331.91801822 37.52461493 C330.40314529 37.51654526 328.88828606 37.505425 327.37345541 37.49152422 C323.21803345 37.46232104 319.06373778 37.47673515 314.90831196 37.49842775 C310.42420096 37.51426712 305.94028351 37.48981879 301.45621097 37.4705683 C292.67486371 37.4394367 283.89393517 37.44616711 275.11257148 37.46645679 C267.97603524 37.48226358 260.83961638 37.48441033 253.70306766 37.47679007 C252.17968553 37.47518112 252.17968553 37.47518112 250.62552801 37.47353967 C248.56239983 37.4713016 246.49927169 37.46903211 244.43614358 37.46673153 C225.08873819 37.44676921 205.74156495 37.46972362 186.39419764 37.5073341 C169.7921176 37.53860864 153.19038017 37.53317651 136.58830631 37.50090277 C117.31029911 37.4634447 98.03249539 37.44869184 78.75445688 37.47018862 C76.69890554 37.47241847 74.64335417 37.47461906 72.58780277 37.47679007 C71.5764242 37.47787 70.56504563 37.47894993 69.52301922 37.48006258 C62.39479397 37.48610735 55.26669774 37.47590319 48.13849247 37.4594332 C39.4518435 37.43980362 30.76563731 37.44510612 22.0790391 37.48239841 C17.64659215 37.50079991 13.2148835 37.50799305 8.78244197 37.48485434 C4.72447725 37.46399085 0.66793483 37.47546065 -3.38990086 37.5126972 C-4.85749069 37.520515 -6.32520074 37.51654083 -7.79271322 37.49956669 C-15.52281239 37.41701591 -21.01496092 37.37026278 -26.25492746 43.50157112 Z M-25.22463906 180.20542109 C-27.99645968 184.38031806 -28.21090306 187.34112258 -28.14680111 192.24528754 C-28.15892132 193.112741 -28.17104153 193.98019446 -28.18352902 194.87393439 C-28.21493441 197.73027866 -28.20244239 200.58439933 -28.18659604 203.44084418 C-28.19318128 205.43332756 -28.20139982 207.42580616 -28.21117795 209.41827643 C-28.22452226 213.59037978 -28.21570279 217.7617139 -28.19172299 221.9337641 C-28.1631506 227.27192013 -28.19318782 232.60786697 -28.24035752 237.94582522 C-28.26959451 242.05957458 -28.26580551 246.17279882 -28.25233662 250.28661025 C-28.25018747 252.25414053 -28.25865196 254.22171288 -28.27806675 256.18914855 C-28.30065896 258.94487463 -28.27825127 261.69678267 -28.24445736 264.45231879 C-28.26019803 265.25929205 -28.27593869 266.06626532 -28.29215634 266.89769232 C-28.19124635 271.08016541 -27.47208971 273.90201871 -24.72268689 277.12200034 C-19.29961449 282.22606336 -12.60278799 281.37998833 -5.5824548 281.2956568 C-4.0627458 281.30300991 -2.54304904 281.31341755 -1.0233795 281.32660943 C3.1453879 281.35387484 7.3130128 281.33752544 11.4817605 281.31391406 C15.98015615 281.29601658 20.47837626 281.31843604 24.9767493 281.33569586 C33.78584587 281.36297244 42.59451269 281.35252875 51.40360422 281.32878236 C58.56207621 281.3102432 65.72043045 281.30573324 72.8789233 281.31127226 C73.89757547 281.31205617 74.91622764 281.31284008 75.96574805 281.31364774 C78.03507896 281.31531351 80.10440983 281.3170173 82.17374068 281.31875869 C101.57882565 281.33354806 120.98367455 281.30619922 140.38870787 281.26394024 C157.04281259 281.22857405 173.69663537 281.22698718 190.35075748 281.25065863 C209.68771102 281.27811532 229.02450499 281.2863797 248.36146909 281.26272374 C250.42290034 281.26024224 252.48433161 281.25777877 254.5457629 281.25533354 C255.56004629 281.2541129 256.57432968 281.25289226 257.61934893 281.25163463 C264.77056754 281.2442985 271.92170115 281.25052882 279.0729121 281.2618376 C287.78590699 281.27517065 296.49856591 281.26693958 305.2115025 281.23110107 C309.65792888 281.21333093 314.10381986 281.20516915 318.55025852 281.22294104 C322.61976461 281.23892215 326.68821431 281.22725386 330.75760239 281.19340476 C332.23055681 281.1860007 333.70360382 281.18873051 335.17651201 281.20255098 C344.02279864 281.5757334 344.02279864 281.5757334 351.51313674 277.62395251 C354.30567024 273.41943091 354.49497059 270.4135368 354.4218024 265.4740473 C354.43231632 264.59523398 354.44283023 263.71642066 354.45366275 262.81097662 C354.4799868 259.91733624 354.46261918 257.02591162 354.44231021 254.13225043 C354.44635401 252.11495285 354.45217883 250.09765813 354.45970523 248.08037055 C354.46854142 243.85698293 354.45572521 239.63435784 354.42766178 235.41105902 C354.39347592 230.00348717 354.41316418 224.597702 354.44909656 219.19019568 C354.47080164 215.02589252 354.46386667 210.8620114 354.44832981 206.69769537 C354.44433379 204.70423415 354.44921647 202.71073432 354.46320713 200.71731818 C354.47848767 197.92816781 354.45516859 195.14189043 354.4218024 192.35295355 C354.44002048 191.12307463 354.44002048 191.12307463 354.4586066 189.86834967 C354.36799774 185.76999777 353.83640196 183.70144052 351.51593006 180.20262778 C346.46039191 175.49672974 339.43212933 176.58790938 332.95561588 176.65159857 C331.43264872 176.64468377 329.90969157 176.6351535 328.38675535 176.62323511 C324.20444179 176.59817654 320.02294915 176.61057189 315.84063256 176.62915242 C311.32927694 176.64271755 306.81806335 176.62177895 302.30673587 176.60527289 C293.4701437 176.57857656 284.6338571 176.58436309 275.79725289 176.60174873 C268.61635718 176.6152926 261.43554718 176.61713955 254.25464237 176.61060584 C253.23307935 176.60968644 252.21151633 176.60876704 251.15899685 176.60781978 C249.08378742 176.60590145 247.00857801 176.60395617 244.93336862 176.60198423 C225.4687066 176.58487012 206.00421404 176.60455451 186.53957981 176.63678643 C169.83373188 176.66359346 153.12813409 176.65893745 136.42229068 176.63127387 C117.02785342 176.59917328 97.63356474 176.58651812 78.23910463 176.60494745 C76.17147913 176.60685877 74.10385361 176.60874499 72.03622806 176.61060584 C70.51021433 176.61199432 70.51021433 176.61199432 68.95337203 176.61341085 C61.78011828 176.61859396 54.60695868 176.60984156 47.43371952 176.59572852 C38.69326331 176.57891025 29.95313044 176.58343351 21.21271133 176.61541298 C16.75210836 176.63119491 12.2920447 176.6373349 7.83144557 176.61751807 C3.74895998 176.5996552 -0.33248581 176.60943487 -4.41487688 176.64138338 C-5.89257678 176.64809266 -7.37036429 176.64465961 -8.84800798 176.63012865 C-17.71565352 176.24862513 -17.71565352 176.24862513 -25.22463906 180.20542109 Z " fill="#ffffff" transform="translate(62.354564785957336,-3.413500428199768)"/>
<path d="M0 0 C3.03456588 1.24678483 4.86505632 3.38390054 7.15223122 5.71096802 C7.63488441 6.19786606 8.11753761 6.6847641 8.61481667 7.18641663 C10.15011472 8.73846627 11.67463547 10.30063313 13.19910622 11.86331177 C14.24007841 12.91933533 15.28173762 13.97468215 16.32410622 15.02932739 C18.87378254 17.61202592 21.41389818 20.20390059 23.94910622 22.80081177 C15.72448194 39.25006032 -1.04662098 49.79653897 -14.05089378 62.80081177 C43.03910622 63.13081177 100.12910622 63.46081177 158.94910622 63.80081177 C158.94910622 75.35081177 158.94910622 86.90081177 158.94910622 98.80081177 C101.85910622 99.13081177 44.76910622 99.46081177 -14.05089378 99.80081177 C-1.51089378 112.34081177 11.02910622 124.88081177 23.94910622 137.80081177 C21.24473207 143.20956006 17.28794107 146.87117618 13.0457859 151.12966919 C11.57345206 152.61397124 10.12079992 154.11591435 8.66785622 155.61917114 C7.74230934 156.55180786 6.81676247 157.48444458 5.86316872 158.44534302 C5.01706032 159.30490601 4.17095192 160.16446899 3.29920387 161.05007935 C0.94910622 162.80081177 0.94910622 162.80081177 -0.97789192 162.60756779 C-3.43370412 161.65183238 -4.71168763 160.50954248 -6.56902122 158.64344788 C-7.5869677 157.63168739 -7.5869677 157.63168739 -8.62547874 156.5994873 C-9.35915672 155.8550235 -10.0928347 155.11055969 -10.84874535 154.34353638 C-11.6296151 153.56310471 -12.41048485 152.78267303 -13.21501732 151.97859192 C-15.79769084 149.39382619 -18.36957245 146.79859185 -20.94151878 144.20315552 C-22.72876738 142.41031254 -24.5166789 140.61813018 -26.30522728 138.82658386 C-30.53223996 134.58928195 -34.75250213 130.34536857 -38.96957755 126.09818512 C-43.77138928 121.26283762 -48.58172559 116.43600913 -53.39279795 111.60987842 C-63.28834639 101.68297499 -73.17313803 91.74541768 -83.05089378 81.80081177 C-78.75361875 76.67510704 -74.26191798 71.8487802 -69.54845238 67.10549927 C-68.45949921 66.00427986 -68.45949921 66.00427986 -67.34854698 64.8808136 C-64.96849061 62.47613482 -62.58447499 60.07544416 -60.19933128 57.67581177 C-59.38238415 56.85354095 -58.56543701 56.03127014 -57.7237339 55.18408203 C-53.41055206 50.84428785 -49.09378346 46.50809435 -44.7745266 42.17434692 C-41.1981597 38.58457039 -37.62922735 34.98763932 -34.06651878 31.38430786 C-29.75881884 27.02750373 -25.43917275 22.68290206 -21.11042213 18.34701538 C-19.46269243 16.69254927 -17.81923928 15.03381287 -16.18011665 13.37081909 C-13.89641819 11.05573334 -11.5977012 8.75667476 -9.29454613 6.46096802 C-8.61704811 5.76706467 -7.93955009 5.07316132 -7.24152184 4.35823059 C-6.61363258 3.73865982 -5.98574333 3.11908905 -5.33882713 2.48074341 C-4.79723143 1.93583755 -4.25563572 1.3909317 -3.69762802 0.82951355 C-2.05089378 -0.19918823 -2.05089378 -0.19918823 0 0 Z " fill="#ffffff" transform="translate(353.05089378356934,352.1991882324219)"/>
<path d="M0 0 C11.88 0 23.76 0 36 0 C36 11.88 36 23.76 36 36 C24.12 36 12.24 36 0 36 C0 24.12 0 12.24 0 0 Z " fill="#ffffff" transform="translate(86,346)"/>
<path d="M0 0 C11.88 0 23.76 0 36 0 C36 11.88 36 23.76 36 36 C24.12 36 12.24 36 0 36 C0 24.12 0 12.24 0 0 Z " fill="#ffffff" transform="translate(86,69)"/>
<path d="M0 0 C11.88 0 23.76 0 36 0 C36 11.55 36 23.1 36 35 C24.12 35 12.24 35 0 35 C0 23.45 0 11.9 0 0 Z " fill="#ffffff" transform="translate(86,208)"/>
</svg>